<?xml version="1.0" encoding="utf-8"?>
<!-- Generator: Adobe Illustrator 16.0.0, SVG Export Plug-In . SVG Version: 6.00 Build 0)  -->
<!DOCTYPE svg PUBLIC "-//W3C//DTD SVG 1.1//EN" "http://www.w3.org/Graphics/SVG/1.1/DTD/svg11.dtd">
<svg version="1.1" xmlns="http://www.w3.org/2000/svg" xmlns:xlink="http://www.w3.org/1999/xlink" x="0px" y="0px" width="360px"
	 height="432px" viewBox="0 0 360 432" enable-background="new 0 0 360 432" xml:space="preserve">
<g id="Layer_1">
	<rect x="-1.583" y="-10" fill="#F2D7E8" width="366" height="443"/>
</g>
<g id="Layer_14">
	<path opacity="0.8" fill="#997C91" d="M183.057,386.358c15.565,17.339,19.904,41.033,39.035,56.451
		c6.285,5.065,18.525,12.793,27.402,13.941c9.567,1.236,23.285-4.1,29.424-9.953c14.018-13.368-9.122-33.936-21.353-42.14
		c-11.246-7.543-25.273-12.245-38.535-16.039c-3.859-1.104-8.197-2.21-12.209-2.042c-0.573,3.25,3.345,5.399,5.505,7.8
		c3.205,3.561,5.725,7.821,7.948,11.81c3.379,6.06,7.219,18.585-3.47,7.399c-5.617-5.879-10.983-11.883-16.781-17.558
		c-2.875-2.813-9.053-6.434-10.092-10.028"/>
</g>
<g id="Layer_6">
	<rect x="64.916" y="140.096" opacity="0.4" fill="#997C91" width="240.666" height="101.333"/>
</g>
<g id="Layer_3">
	<rect x="59.544" y="132.861" fill="#AF6D99" width="240.666" height="101.281"/>
	<path fill="#FFFFFF" d="M78.877,138.787c2.894,0.846,1.54,7.585,1.097,9.313c-0.808,3.154-2.887,7.384-6.509,9.368
		c3.02-1.516,9.104,0.55,12.144,1.104c3.594,0.655,12.835,2.444,16.479,0.617c1.516-0.761,1.6-3.285,1.807-4.581
		c0.601-3.759,0.304-7.686,0.232-11.471c-0.018-0.918,0.114-3.551-0.737-4.35c-1.195-1.121-3.602-0.289-5.494-0.141
		c-3.571,0.277-7.209,0.006-10.768,0.318c-2.188,0.192-7.004,1.451-8.751,0.009"/>
	<path fill="#FFFFFF" d="M113.627,147.393c0,2.933-0.215,6.042,0.051,8.998c0.33,3.673,1.784,7.309,1.737,10.993
		c4.293,0.163,8.602-0.155,12.965,0.169c3.259,0.241,6.755,0.65,10.046,0.425c2.833-0.194,3.01-0.187,3.501-2.065
		c1.182-4.523,1.444-10.999,0.012-15.473c-0.289-0.903-0.759-3.601-1.744-4.183c-1.521-0.898-5.635,0.303-7.374,0.396
		c-6.534,0.353-13.041-0.156-19.444,0.739"/>
	<path fill="#FFFBC7" d="M83.877,171.528c-1.875,2.544,0.303,6.388-2.473,8.756c4.535,0.475,9.269-1.02,13.691-0.726
		c-0.411-2.604-0.313-5.333-0.511-7.963c-2.997,1.861-7.74,1.054-11.207,0.495"/>
	<path fill="#FFFBC7" d="M98.377,173.025c1.86,2.575,1.1,5.897,1.288,8.722c2.402-0.783,6.005-0.338,8.412,0.056
		c0.181-1.805,1.692-7.585-0.45-8.797c-1.795,0.95-7.521,1.746-8.999,0.393"/>
	<path fill="#FFFBC7" d="M113.127,173.025c0,2.1-0.148,4.247,0.039,6.332c3.674,0.159,7.438,0.283,10.924,0.565
		c0.19-2.518-0.532-4.983-0.5-7.43c-3.01,0.052-7.659,1.059-10.462,0.159"/>
	<path fill="#FFFBC7" d="M69.877,164.605c0,1.646-1.053,5.852,0.982,6.551c1.051,0.362,4.06-0.354,5.271-0.377
		c1.151-0.022,2.32,0.015,3.458-0.029c0.232-2.438-0.307-4.926-1.256-7.24c-2.805-0.157-5.621,0.71-8.457,0.533"/>
	<path fill="#FFFBC7" d="M66.627,178.076c1,1.963-0.619,6.499,1.482,8.053c1.371,1.015,5.321,0.282,6.979,0.155
		c0.102-2.591,0.44-5.203,0.256-7.808c-1.984-0.07-7.101,0.732-8.218-0.587"/>
	<path fill="#FFFFFF" d="M237.127,178.637c-0.693,2.117-0.467,4.196-0.188,6.383c0.685,5.359,1.04,10.712,1.882,16.063
		c1.004,6.386,1.502,12.768,3.094,19.061c9.777,0.424,19.52,1.871,29.292,2.234c3.238,0.121,6.5,0.039,9.743,0.039
		c1.23,0,4.037,0.422,4.938,0.01c1.315-0.607,1.237-2.281,1.427-3.33c0.736-4.088,0.818-8.229,1.237-12.339
		c0.814-7.987,1.24-15.826,0.826-23.818c-0.094-1.812,0.72-5.4-1.555-6.693c-1.767-1.005-6.352-0.687-8.392-0.613
		c-4.886,0.175-9.813,0.513-14.683,0.897c-6.418,0.507-12.829,0.443-19.249,0.941c-2.007,0.156-6.273-0.176-7.88,0.745
		c-0.495,0.283-0.562,0.202-0.743,0.793"/>
	<path fill="#FFD9B0" d="M238.377,164.189c1.128,2.114-0.331,4.714-0.475,6.861c2.556-1.2,5.819,0.208,7.974-0.501
		c1.966-0.646,1.097-4.863,0.963-6.517c-2.423,0.123-4.922,0.343-7.462,0.343"/>
	<path fill="#FFD9B0" d="M252.877,164.75c0.515,1.954,0.355,4.445-0.668,6.52c3.172,0.13,6.041-0.892,9.13-0.735
		c0.148-2.195,0.765-5.409-0.194-7.454c-1.143,0.531-2.377,1.261-3.817,1.49c-1.395,0.222-2.881-0.137-4.2,0.178"/>
	<path fill="#FFD9B0" d="M266.377,165.312c1.047,1.72,1.416,4.772,0.275,6.509c2.779,0.9,6.722,0.178,9.742,0.492
		c-0.083-2.449-0.122-4.511-1.312-6.786c-1.304-0.028-2.138,0.705-3.431,0.962c-1.073,0.214-3.464,0.129-4.025,0.132"/>
	<path fill="#FFD9B0" d="M281.127,164.231c1.355,1.568,1.108,4.636,1.538,6.521c2.372,0.014,4.988-0.278,7.424-0.375
		c0.358-2.165-0.962-4.337-1-6.491c-2.439-0.131-4.606,0.341-6.962,0.72"/>
	<path fill="#FFD9B0" d="M269.877,156.144c0.861,1.483,0.708,3.516-0.205,4.985c1.39-0.945,7.457,0.119,9.667,0.042
		c0.131-1.833,0.491-4.214-0.249-5.935c-2.619-0.161-5.115,0.636-7.713,0.534"/>
	<path fill="#FFD9B0" d="M246.877,156.331c0.755,1.315-0.086,2.847-0.911,4.088c2.375,0.31,4.704,0.389,7.118,0.41
		c0.778-2.054,0.904-4.046,0.755-6.157c-1.928,0.259-3.96,0.658-5.962,0.912"/>
	<path fill="#C66678" d="M90.877,136.354c-6.449,0-6.449,7.484,0,7.484S97.326,136.354,90.877,136.354z"/>
	<path fill="#C66678" d="M129.043,142.715c-2.726,0-5,1.702-5,3.742v0.125c0,2.04,2.274,3.742,5,3.742s5-1.702,5-3.742v-0.125
		C134.043,144.417,131.769,142.715,129.043,142.715z"/>
	<path fill="#C66678" d="M261.877,176.018c-6.448,0-6.448,7.484,0,7.484S268.325,176.018,261.877,176.018z"/>
	<path fill="#FFFFFF" d="M85.127,188.554c-1.222,0.627-0.5,3.428-0.5,4.488c0,2.421-0.105,4.853,0.043,7.271
		c0.079,1.284-0.333,4.756,0.772,5.867c1.934,1.945,6.74-1.366,9.18-2.124c2.843-0.883,6.982-1.881,9.972-1.037
		c0.146-4.118-1.885-8.43-2.467-12.546c-0.087-0.617,0.037-3.17-0.789-3.564c-0.673-0.322-2.475,0.289-3.17,0.381
		c-2.479,0.333-5.009,0.359-7.49,0.646c-1.41,0.163-5.318,1.472-6.051,0.431"/>
	<path fill="#FFFFFF" d="M110.377,190.424c-1.429,3.039-0.304,8.096,0.313,11.248c0.485,2.475,1.473,4.952,1.719,7.434
		c4.858,0.08,10.422-0.95,15.18,0.031c0.353-4.207-0.527-8.378-1.037-12.562c-0.151-1.235,0.124-3.913-0.658-5.038
		c-1.935-2.784-9.689-2.04-13.018-2.049"/>
	<path fill="#FFFFFF" d="M67.627,193.979c0.202,3.257,0.057,6.828,0.006,10.166c-0.022,1.454-1.564,6.748-0.074,8
		c0.846,0.711,2.013,0.192,3.101,0.169c2.296-0.045,6.399,1.052,8.471,0.374c2.487-0.815,1.299-5.068,1.19-6.89
		c-0.166-2.783,0.562-6.239-0.194-8.979c-1-3.621-7.228-1.989-11-2.84"/>
	<path fill="#FFD4F1" d="M155.127,158.993c0.963,1.766,0.502,3.969,0.273,5.824c-0.818,6.608-2.302,13.192-3.271,19.796
		c-0.351,2.386-2.289,7.171-1.007,9.537c0.833,1.538,1.494,0.744,3.728,0.205c4.478-1.081,9.452-0.975,14.106-1.081
		c9.336-0.21,18.882-0.339,28.18,0.333c10.078,0.729,20.823,1.512,30.957,1.097c1.328-6.811-0.938-13.184-1.727-19.96
		c-0.477-4.099-0.405-8.088,0.064-12.009c0.188-1.568,0.236-1.734-1.85-2.202c-5.903-1.325-14.179-0.27-20.273-0.407
		c-13.284-0.298-26.723-0.724-39.919-1.131c-2.591-0.08-6.574,0.515-8.763-0.188"/>
	<path fill="#FFFFC2" d="M212.877,199.966c0.815,1.961-1.16,8.209,1.194,9.147c1.971,0.786,8.559-2.293,11.041-2.631
		c-0.58-2.558-1.436-5.165-1.768-7.8c-2.186,0.402-5.221,1.196-7.468,0.537"/>
	<path fill="#FFFFC2" d="M195.127,201.089c0.184,2.479,0.318,5.26,0.539,7.844c3.164,0.073,6.353,0.178,9.483,0.382
		c0.488-1.27,1.116-5.28,0.189-6.547c-1.46-1.999-5.646-1.147-7.962-1.118"/>
	<path fill="none" stroke="#E85454" stroke-miterlimit="10" d="M170.877,165.915c0.062-0.162,0.467-0.006,0.217-0.384
		c-5.022-1.605-10.301,6.651-6.267,8.753c3.986,2.077,11.616-2.773,12.242-5.622c0.784-3.568-4.62-3.163-7.942-3.123"/>
	<path fill="none" stroke="#E85454" stroke-miterlimit="10" d="M209.127,165.167c2.391,0.702,4.758,1.717,6.5,3.181"/>
	<path fill="none" stroke="#E85454" stroke-miterlimit="10" d="M213.877,163.857c-0.586,1.742-2.946,2.997-4.25,4.491"/>
	<path fill="none" stroke="#E85454" stroke-miterlimit="10" d="M193.377,176.205c1.902,3.899,6.1-0.833,8.5-2.058"/>
	<path fill="none" stroke="#E85454" stroke-miterlimit="10" d="M171.127,170.592c-2.387,2.911,1.028,8.176,3.417,10.444
		c6.35,6.031,19.374,5.823,28.308,3.788c3.569-0.812,8.169-2.047,10.31-4.557c0.618-0.726,1.697-1.732,0.215-2.204
		c-1.558-0.495-7.073,2.598-8.634,3.131c1.538-0.736,5.469-3.77,7.385-3.514c2.075,0.277,2.815,4.9,4.25,5.26"/>
	<path fill="none" stroke="#E85454" stroke-miterlimit="10" d="M120.127,162.734c-0.204,0.659,0.844-1.548,1.263-1.883
		c1.298-1.041,0.439-0.698,2.243-0.553c1.477,0.12,0.398,1.208,1.981,0.578c1.011-0.402,1.142-1.744,2.02-2.286
		c1.906,1.24,1.48,2.519,3.486,0.377c1.894-2.021,1.644-4.637,3.174-6.686c-0.752,0.087-1.54,0.434-2.085,0.896
		c2.054-2.24,2.486,0.436,4.417-0.172"/>
	<path fill="none" stroke="#E85454" stroke-miterlimit="10" d="M245.627,188.74c0.767,1.608-0.659,4.844,0.731,6.178
		c1.562,1.5,5.736,0.124,7.729-0.247c0.136-0.926,0.278-5.399-0.449-6.126c-0.919-0.92-4.056-0.139-5.512-0.178"/>
	<path fill="none" stroke="#E85454" stroke-miterlimit="10" d="M274.127,206.889c-0.15,1.518-1.338,3.624-0.09,5.048
		c1.275,1.454,3.739,1.096,5.731,1.36c1.304-1.937,0.708-4.645,0.57-6.758c-1.762-0.028-3.845,0.668-5.462,0.163"/>
	<path fill="none" stroke="#E85454" stroke-miterlimit="10" d="M267.377,208.199c-1.942,1.186-10.327-0.943-12.246-2.066
		c-2.867-1.677-3.501-4.709-3.212-7.264c-0.47,0.668-1.043,1.322-1.714,1.862c1.527-3.555,4.016-0.575,7.422-1.513"/>
	<path fill="none" stroke="#E85454" stroke-miterlimit="10" d="M259.377,191.173c1.449,0.193,3.58,0.038,5.23-0.028
		c-0.195-0.651-0.866-1.241-1.623-1.696c1.786,0.745,4.146,1.857,1.393,3.221"/>
	<path fill="none" stroke="#E85454" stroke-miterlimit="10" d="M270.877,189.489c0.124,1.339,0.438,3.156,0.004,4.461
		c2.472,0.189,4.739-0.245,7.198,0.209c0.388-0.882,0.816-3.247-0.016-4.056c-1.118-1.086-3.267-0.615-5.187-0.614"/>
	<path fill="#E85454" d="M117.044,188.242c-1.444,0.807-1.872,3.681,0.918,3.501c3.608-0.232,2.114-5.255-1.251-3.501"/>
	<path fill="#E85454" d="M91.71,187.244c-2.462,0.84-0.03,3.021,2.291,2.019c3.305-1.427-1.759-3.693-3.624-1.769"/>
	<path fill="#E85454" d="M72.377,193.481c-0.365,0.14-1.584,2.47,1.008,2.018c2.638-0.46-0.504-3.911-2.341-1.27"/>
	<path fill="#E85454" d="M159.71,160.801c-0.406,0.301-1.02,0.122-0.616,0.96c1.457,0.176,2.134-0.332,1.899-1.421
		c-0.801-0.167-1.464-0.006-1.95,0.212"/>
	<path fill="#E85454" d="M221.044,162.547c0.099-0.126-0.243,0.459-0.289,0.767c1.225,0.501,2.08,0.314,2.246-0.723
		c-0.979-0.372-1.907-0.334-2.624-0.043"/>
	<path fill="#E85454" d="M216.711,199.218c-0.026,0.327,0.197,0.812,0.391,1.205c5.692,1.315-0.583-4.311-0.725-0.706"/>
	<path fill="#E85454" d="M248.044,154.565c-0.759,2.418,3.616,1.964,2.967-0.461c-1.022-0.155-2.283-0.079-2.967,0.211"/>
</g>
<g id="Layer_4">
	<g>
		
			<ellipse transform="matrix(0.9821 -0.1884 0.1884 0.9821 -36.4534 30.9884)" fill="none" stroke="#7F6576" stroke-width="6" stroke-miterlimit="10" cx="144.813" cy="207.287" rx="40.532" ry="37.532"/>
		
			<ellipse transform="matrix(0.9821 -0.1884 0.1884 0.9821 -36.291 31.029)" opacity="0.6" fill="#FFFFFF" cx="145.113" cy="206.458" rx="39.473" ry="36.626"/>
	</g>
	<path fill="#FFFFFF" d="M112.113,226.597c-9.824-18.439-2.45-41.561,16.471-51.641
		C147.505,164.876,121.938,245.038,112.113,226.597z"/>
	<path fill="#7F6576" d="M195.332,288.738c1.267,2.716-0.491,6.216-3.926,7.817l0,0c-3.435,1.601-7.246,0.697-8.512-2.02
		l-22.727-48.764c-1.266-2.717,0.492-6.216,3.927-7.817l0,0c3.435-1.601,7.245-0.697,8.512,2.02L195.332,288.738z"/>
</g>
<g id="Layer_8">
	<path fill="#FFFFFF" d="M248.893,231.277c-0.429-5.159-9.135-5.198-8.703,0c0.13,1.565,0.141,3.112,0.066,4.646
		c-0.041,0.061-0.085,0.117-0.125,0.182c-4.745,7.69-11.944,13.37-20.415,17.332c-4.946,2.312-0.722,9.119,4.191,7.058
		c-0.642,0.729-1.262,1.478-1.836,2.268c-1.962,2.694,0.162,5.219,2.847,5.767c-1.098,1.29-2.214,2.564-3.358,3.803
		c-1.454,0.118-2.784,0.727-3.384,1.937c-2.138-1.173-5.585-0.916-6.755,1.177c-0.463,0.826-0.919,1.654-1.376,2.482
		c-0.313-2.562-0.877-5.09-1.973-7.534c-0.377-0.843-1.047-1.51-1.856-1.976c-0.941-1.594-2.143-3.069-3.74-4.347
		c-0.232-0.185-0.481-0.342-0.737-0.479c0.157-0.449,0.288-0.914,0.354-1.412c0.254-1.911-1.108-3.364-2.958-4.271
		c0.618-2.204-0.824-4.844-4.342-4.79c-6.962,0.108-12.544,4.165-19.33,5.237c-6.231,0.985-14.115-0.419-14.514-6.778
		c-0.31-4.945-9.094-4.985-9.272,0c-0.322,9.031,8.101,20.541,18.581,23.492c0.707,0.197,1.403,0.358,2.093,0.497
		c0.861,0.537,1.976,0.753,3.264,0.451c3.879,0.281,7.509-0.358,10.966-1.587c0.422,0.729,0.894,1.436,1.401,2.122
		c0.491,7.527,0.852,18.74,2.046,26.213c-1.34,7.653,2.063,11.603,9.71,14.343c4.314,1.547,9.797,1.268,13.848-0.724
		c1.812-0.891,2.931-2.312,3.655-3.945c0.534-0.272-5.097,0.339-4.667-0.183c5.688-6.902,13.561-16.218,16.286-24.436
		c2.035-6.138,3.559-12.812,4.213-19.185C241.613,257.447,250.036,245.051,248.893,231.277z"/>
</g>
<g id="Layer_12">
</g>
<g id="Layer_10">
	<path fill="#FFDACA" d="M152.502,249.655c-0.786-1.474,1.896-5.99,3.494-6.472c2.474-0.745,4.497,1.756,5.037,3.847
		c0.301,1.163,0.461,2.773-0.184,3.878c-0.767,1.313-1.659,0.657-2.969,0.213c-2.103-0.714-3.656-1.968-5.753-0.966"/>
	<path fill="#FFDACA" d="M240.127,230.655c-0.354,0.023-0.379-4.584-0.253-5.473c0.604-4.28,4.818-2.355,6.378,0.092
		c0.712,1.116,2.521,3.314,2.006,4.755c-0.457,1.282-1.625,1.245-2.625,0.967c-1.382-0.385-4.054-2.477-5.256-0.716"/>
	<path opacity="0.5" fill="#C1C1C1" d="M192.399,300.634c-1.356,0.385-1.982-2.208-2.133-3.059
		c-0.473-2.694,1.144-3.968,3.593-5.196c3.629-1.821,7.774-1.561,11.48-3.096c5.012-2.078,9.472-4.836,14.246-7.312
		c2.215-1.146,4.833-0.887,6.703,0.711c1.147,0.985,1.07,2.311,1.069,3.681c-0.007,2.12-0.216,4.118-1.064,6.116
		c-1.473,3.469-6.109,4.787-9.59,5.973c-4.239,1.446-8.665,2.898-13.104,3.639c-2.053,0.342-4.597,0.384-6.602-0.092
		c-1.145-0.271-2.249-0.758-3.371-1.095c-0.862-0.261-2.143-0.357-2.774-0.961"/>
</g>
<g id="Layer_9">
	<path fill="#22345B" d="M227.627,291.903c-0.122-0.013-13.029,10.239-38.312,1.816c-2.354-0.784-2.817-0.759-2.487,2.047
		c0.133,1.128,0.574,4.337,0.107,6.78c-1.418,7.407-13.891,35.9,0.276,85.233c1.233,4.296,4.889,4.422,4.865-0.333
		c-0.055-10.94,8.577-51.917,15.452-59.167c5.875,5.25-5.66,52.945-5.317,61c0.159,3.734,2.67,5.22,5.025,1.604
		c14.891-22.854,23.641-76.354,19.767-87.395C225.264,298.533,231.166,290.525,227.627,291.903z"/>
	<path fill="#22345B" d="M188.752,385.53c-0.529-0.056-0.48-0.291-0.866-0.64c-1.117-1.011-1.868-2.225-3.545-2.237
		c-2.786-0.021-2.775,2.124-1.284,3.705c1.623,1.723,3.489,3.851,5.945,4.297c0.979,0.178,1.639,0.378,1.878-0.72
		c0.479-2.205-3.23-4.457-4.628-5.53"/>
	<path fill="#22345B" d="M203.602,393.148c2.184-0.543,1.679-2.816,0.885-4.338c-0.449-0.86-1.03-1.736-1.778-2.365
		c-0.754-0.634-1.723-1.794-2.734-1.869c-0.749-0.056-1.746,0.021-1.98,0.845c-0.456,1.607,0.651,3.71,1.482,5.008
		C200.303,391.722,201.836,393.588,203.602,393.148z"/>
</g>
<g id="Layer_13">
	<path fill="#14223A" d="M208.709,327.948c1.896,0.239,4.457-1.813,6.793-0.5c2.242,1.262,1.595,5.964,1.698,7.866
		c0.411,7.641-1.136,16.45-3.877,23.8c-2.037,5.461-3.337,11.012-5.251,16.5c-0.928,2.663-1.306,5.358-2.074,8.018
		c-0.391,1.354-0.712,4.545-2.168,5.49c-2.2,1.43-1.072-2.576-0.849-3.512c0.354-1.482,0.118-4.81,1.272-5.996"/>
</g>
<g id="Layer_7">
	<path fill="#FFDACA" d="M208.579,225.112c-0.724-1.826,0.355-3.851-1.858-2.851c-0.984,0.444-2.418,0.05-3.506,0.354
		c-2.396,0.673-4.081,2.382-5.428,4.22c-1.247,1.704-1.945,2.138-4.15,2.483c-2.941,0.461-1.126,3.894-1.444,5.788
		c-0.542,3.236-1.187,5.987,0.52,9.093c2.017,3.672,9.576,3.082,8.8-1.683c-0.667-4.089,0.946-8.332,3.425-11.854
		c0.271-0.181,0.548-0.348,0.833-0.477C207.979,229.191,209.459,227.337,208.579,225.112z"/>
</g>
<g id="Layer_11">
	<path opacity="0.6" fill="#C1917E" d="M191.877,242.363c0.017-0.198-0.103-0.669-0.115-0.958c-0.029-0.63,0.038-1.221,0.155-1.84
		c0.322-1.712,0.938-3.604,1.875-5.09c1.154-1.831,3.492-3.004,4.255-5.099c-1.285,2.035-1.422,4.53-2.188,6.775
		c-0.474,1.387-0.654,2.661-0.729,4.116c-0.062,1.212,0.066,2.428-0.033,3.637c-0.029,0.355-0.043,1.732-0.426,1.833
		c-0.466,0.121-1.091-0.372-1.299-0.662c-0.449-0.627-0.945-1.821-1.298-2.504c-0.094-0.183-0.185-0.383-0.113-0.584"/>
</g>
<g id="Layer_5">
	<path fill="#262425" d="M223.083,223.398c-4.036-3.119-8.624-4.182-13.601-3.386c-3.17,0.508-5.194,0.615-8.409,3.136
		c-2.693,2.078-3.496,6.84-4.748,10.014c-0.467,1.182-0.953,2.612-1.286,4.109c-5.021,11.299,11.631,30.576,3.137,44.64
		c-2.343,3.883,11.839,0.598,18.216-3.801c5.399-3.725,9.055-10.02,10.778-16.513C233.408,238.088,230.961,229.483,223.083,223.398z
		"/>
	<path fill="#494949" d="M209.703,223.702c-3.434,0.603-7.045,7.27-7.975,9.409c-1.728,3.974-3.226,7.56-3.287,11.845
		c-0.021,1.499,2.27,9.254,4.405,4.337c3.174-7.308-1.405-21.136,8.994-23.246c0.82-0.167,5.123-0.693,5.402-1.658
		c0.813-2.796-5.365-1.337-6.16-1.08C210.607,223.464,210.179,223.61,209.703,223.702"/>
</g>
<g id="Layer_2">
	<rect x="84.217" y="70.209" fill="none" width="211.005" height="58.667"/>
	<text transform="matrix(1 0 0 1 84.2168 105.9795)" fill="#AF6D99" font-family="'Raleway-ExtraBold'" font-size="49">Explore.</text>
</g>
</svg>
