<?xml version="1.0" encoding="utf-8"?>
<!-- Generator: Adobe Illustrator 16.0.0, SVG Export Plug-In . SVG Version: 6.00 Build 0)  -->
<!DOCTYPE svg PUBLIC "-//W3C//DTD SVG 1.1//EN" "http://www.w3.org/Graphics/SVG/1.1/DTD/svg11.dtd">
<svg version="1.1" xmlns="http://www.w3.org/2000/svg" xmlns:xlink="http://www.w3.org/1999/xlink" x="0px" y="0px" width="500px"
	 height="300px" viewBox="0 0 500 300" enable-background="new 0 0 500 300" xml:space="preserve">
<g id="Layer_10">
</g>
<g id="Layer_11">
</g>
<g id="Layer_9">
	<g>
		<path fill="#FFFCBB" d="M380.259,108.417c-6.006-8.307-17.019-11.994-27.34-14.783c-0.704-0.23-1.419-0.414-2.14-0.568
			c-2.672-0.703-5.273-1.364-7.694-2.046c-21.391-6.029-42.503-12.48-64.196-17.439c-23.68-5.414-47.542-9.992-71.338-14.849
			c-22.575-4.608-44.845-10.469-67.706-13.442c-2.993-4.499-11.688-3.357-11.621,3.445c0.015,1.506,0.003,3.01-0.011,4.514
			c-1.962,10.178-2.432,20.551-2.599,30.915c-0.04,2.423-0.074,4.847-0.11,7.27c-1.82,15.927-4.124,31.743-5.516,47.711
			C117.309,169.879,118.96,202,118.96,232c0,8,12.622,8,12.622,0c0-6-0.062-12.58-0.138-18.927c0.32-0.038,0.639-0.052,0.952-0.131
			c0.478,0.629,0.982,1.26,1.508,1.853c3.005,4.435,7.353,8.055,13.105,10.266c8.933,9.304,22.434,12.624,36.057,10.333
			c2.466-0.416,4.913-1.086,7.325-1.958c16.471,9.502,35.207,18.487,53.995,18.329c-3.463,4.011-0.057,12.081,6.463,10.378
			c6.212-1.623,9.062-6.429,13.055-11.025c1.572-1.812,3.123-3.643,4.656-5.485c9.597-5.624,16.486-15.792,22.556-24.986
			c2.013-0.917,3.916-2.269,5.602-4.146c12.5-13.906,24.146-29.293,32.477-46.215c5.811-6.806,11.712-13.532,17.723-20.16
			c5.82-6.417,11.676-12.878,17.961-18.841c5.521-5.239,10.97-10.192,15.38-16.461C381.438,113.147,381.468,110.089,380.259,108.417
			z"/>
		<path fill="#3F3836" d="M318.016,91.453c0-31.138-25.838-57.121-56.798-57.121c-5.358,0-10.555,0.794-15.498,2.242
			c-1.713-0.376-3.485-0.632-5.328-0.76c-13.682-0.952-25.795,7.867-31.692,19.744c-2.618,3.365-4.537,7.26-6.097,11.595
			c-3.564,9.905-2.685,21.524,1.697,31.441c0.241,1.4,0.535,2.796,0.89,4.192c-0.012,0.366-0.029,0.735-0.048,1.102
			c-0.425,2.275-1.037,4.517-1.628,6.751c-1.8,6.804-4.097,13.483-6.553,20.072c-3.039,8.148-6.163,14.973-6.719,23.867
			c-0.873,13.97,7.3,28.221,19.71,34.518c11.933,6.052,25.883,5.207,35.781-2.771c5.828-0.832,11.396-2.809,16.712-6.125
			c5.579-2.697,10.268-6.439,15.196-10.324c8.933-7.044,16.478-15.627,23.232-24.764c5.513-7.456,9.511-17.534,11.198-28.079
			c1.045-2.278,1.998-4.645,2.836-7.12c0.1-0.295,0.177-0.595,0.27-0.892C317.009,103.467,318.016,97.562,318.016,91.453z"/>
	</g>
	<path fill="#F4E4D9" d="M295.297,95.264c2.63-9.102-0.5-18.784-5.261-27.714c-11.13-20.89-29.538-22.943-51.887-17.533
		c-12.984,3.144-11.851,5.685-17.32,14.571c-2.808,4.561-7.371,21.061-6.521,32.581c0.842,11.424,6.345,22.14,6.941,23.906
		c3.787,11.213,13.462,19.675,21.431,24.841c1.885,1.223,5.075,5.412,9.492,6.046c5.655,0.812,13.043,0.342,18.933-3.808
		c8.672-6.329,10.186-11.248,15.146-17.348C293.822,121.497,293.053,109.019,295.297,95.264z"/>
	<path fill="#F4E4D9" d="M295.297,95.264c2.63-9.102-0.5-18.784-5.261-27.714c-11.13-20.89-29.538-22.943-51.887-17.533
		c-12.984,3.144-11.851,5.685-17.32,14.571c-2.808,4.561-7.371,21.061-6.521,32.581c0.842,11.424,6.298,22.157,6.941,23.906
		c1.683,4.574,6.971,14.928,14.939,20.095c1.884,1.223,11.566,10.158,15.983,10.792c5.655,0.812,13.043,0.342,18.933-3.808
		c8.672-6.329,10.186-11.248,15.146-17.348C293.822,121.497,293.053,109.019,295.297,95.264z"/>
	<g>
		<defs>
			<path id="SVGID_1_" d="M295.297,95.264c2.63-9.102-0.5-18.784-5.261-27.714c-11.13-20.89-29.538-22.943-51.887-17.533
				c-12.984,3.144-11.851,5.685-17.32,14.571c-2.808,4.561-7.371,21.061-6.521,32.581c0.842,11.424,6.345,22.14,6.941,23.906
				c3.787,11.213,13.462,19.675,21.431,24.841c1.885,1.223,5.075,5.412,9.492,6.046c5.655,0.812,13.043,0.342,18.933-3.808
				c8.672-6.329,10.186-11.248,15.146-17.348C293.822,121.497,293.053,109.019,295.297,95.264z"/>
		</defs>
		<clipPath id="SVGID_2_">
			<use xlink:href="#SVGID_1_"  overflow="visible"/>
		</clipPath>
		<path clip-path="url(#SVGID_2_)" fill="#E5D1CA" d="M223.944,135.375c-0.855,0.236-1.765,0.295-2.666,0.184
			c0.029,0.106,0.054,0.214,0.083,0.321c0.646,2.36,3.083,2.696,4.708,1.744C225.213,137.069,224.47,136.325,223.944,135.375z"/>
		<path clip-path="url(#SVGID_2_)" fill="#E5D1CA" d="M292.303,56.562c-3.104,0.317-6.207,0.364-9.308,0.289
			c0.825-1.833,1.467-3.716,0.607-5.854c-1.556-3.855-3.774-6.396-7.468-8.378c-4.19-2.249-9.443-0.974-13.783,0.046
			c-1.978,0.465-3.958,0.954-5.942,1.434c-2.73,0.257-5.42,0.721-7.911,1.296c-1.387-0.579-2.973-0.747-4.363-0.454
			c-1.586,0.333-3.049,1.01-4.527,1.661c-0.498,0.219-0.985,0.462-1.474,0.701c-0.33,0.112-0.658,0.233-0.976,0.393
			c-0.156,0.079-0.313,0.157-0.469,0.235c-0.871-0.522-1.767-1.134-2.657,0.185c-1.082-0.721-4.613,2.137-5.843,3.354
			c-3.042,3.012-4.055,2.588-7.361,5.289c-1.696-0.659-3.302,6.856-3.579,10.138c-0.457,0.268-0.896,0.604-1.305,1.03
			c-1.069,1.113-2.021,2.271-2.894,3.467c-0.35,0.327-0.713,0.649-1.104,0.976c-1.544,1.291-2.159,2.806-2.121,4.279
			c-0.871,1.678-1.663,3.419-2.416,5.231c-2.583,6.211-2.018,12.971-2.781,19.518c-0.647,5.557,5.063,7.266,9.033,5.22
			c0.001,3.331,0.78,6.959,1.729,10.078c0.416-5.786,0.721-11.087,3.332-15.298c2.438-3.936,7.922-4.047,12.622-2.75
			c10.727,2.96,6.258,9.995,7.946,15.668c1.099,2.048-0.176,3.534,2.979,4.084c1.621,0.283,3.869-1.02,5.049-2.38
			c0.303-0.999,1.694-2.776,1.905-6.373c0.552-2.063-0.295-6.494-1.262-7.616c-2.42-2.813-3.154-11.636,2.314-23.907
			c16.199,12.694,26.043,7.253,42.702,21.58C297.654,96.409,299.138,55.864,292.303,56.562z"/>
	</g>
	<g>
		<defs>
			<path id="XMLID_2_" d="M334.87,174.08c-1.871-12.207-8.273-23.331-11.656-35.174c0.914-2.54,1.528-5.204,1.727-7.994
				c0.815-11.435-4.372-20.624-9.05-30.603c-0.106-0.227-0.22-0.44-0.34-0.641c0.414-4.432,0.65-8.9,0.676-13.397
				c0.037-6.66-8.307-7.898-11.446-3.725c-1.227-0.035-2.461,0.299-3.543,0.917c0.168-0.85,0.168-1.783-0.064-2.795
				c-1.655-7.16-3.803-14.122-7.789-20.345c-0.54-0.841-1.19-1.473-1.898-1.95c-1.109-1.581-2.642-2.232-4.213-2.196
				c-1.464-1.593-3.312-1.979-5.049-1.57c-1.661-2.359-3.333-4.713-4.827-7.189c-1.96-3.245-5.305-3.638-7.927-2.414
				c-1.202-0.187-2.417-0.056-3.512,0.363c-0.773-4.691-6.204-6.002-9.656-3.961c-3.254-3.924-11.314-2.622-11.28,3.926
				c0.065,12.771,2.453,24.51,12.224,33.375c4.812,4.367,10.632,7.358,16.685,9.793c4.396,4.428,9.435,8.495,14.936,11.322
				c2.147,7.909,1.725,16.617,0.752,24.631c-0.503,4.147,2.554,6.145,5.789,6.04c-3.03,7.229-6.989,14.125-12.106,20.547
				c-6.785,8.517-15.074,15.762-23.601,22.452c-8.305,6.516-17.071,12.81-27.502,14.784c0.255-2.68,0.317-5.376,0.096-8.074
				c-0.478-5.824-6.38-7.997-10.773-4.488c-3.593,2.869-7.004,6.869-8.984,11.326c-1.934-2.532-3.726-5.188-5.326-8.015
				c-1.149-2.029-1.737-4.341-2.036-6.779c0.656-1.782,1.515-3.424,2.658-4.799c1.604-1.929,1.858-4.123,1.294-6.051
				c1.401-3.033,2.571-6.162,3.273-9.444c1.027-4.792-4.481-10.877-9.27-7.167c-2.27,1.758-4.224,3.793-5.901,6.042
				c-2.864,0.99-5.336,3.766-4.784,7.578c0.043,0.302,0.076,0.6,0.114,0.9c-1.533,3.844-2.551,7.995-3.119,12.292
				c-3.606,6.099-7.038,12.291-8.557,19.304c-1.429,6.6-0.988,14.346,3.439,19.707c1.965,2.382,4.287,4.368,6.637,6.353
				c1.339,1.131,2.68,2.257,3.986,3.425c0.265,0.237,0.471,0.434,0.653,0.607c-0.025,5.307,8.225,8.814,11.958,3.136
				c2.516-3.828,0.816-7.588-1.748-10.635c1.383-1.44,2.036-3.446,1.122-5.681c-1.334-3.26-2.342-6.624-3.098-10.047
				c-0.051-0.339-0.106-0.675-0.149-1.014c4.136,4.993,9.01,9.496,13.734,13.322c0.786,0.636,1.655,1.086,2.547,1.369
				c1.638,0.84,3.648,0.996,5.731-0.059c14.239-7.211,28.948-13.771,41.597-23.643c8.166-6.374,15.828-13.933,23.002-21.717
				c-0.433,1.146-0.435,2.318-0.124,3.418c-0.754,2.278-1.5,4.558-2.223,6.849c-1.714,5.442,4.614,9.831,9.271,7.166
				c0.347-0.198,0.679-0.416,1.018-0.624c1.504,1.224,3.453,1.711,5.47,0.809c1.909,2.359,5.091,3.752,7.962,1.761
				c0.277,0.034,0.562,0.045,0.849,0.034c0.384,0.456,0.832,0.822,1.325,1.112c-0.57,5.799-1.379,11.591-1.086,17.45
				c0.274,5.472,6.695,8.476,10.773,4.487C333.354,198.885,336.943,187.602,334.87,174.08z"/>
		</defs>
		<use xlink:href="#XMLID_2_"  overflow="visible" fill="#3F3836"/>
		<clipPath id="XMLID_4_">
			<use xlink:href="#XMLID_2_"  overflow="visible"/>
		</clipPath>
		<path clip-path="url(#XMLID_4_)" fill="#3F3836" d="M233.64,135.218c-3.761-5.964-13.616-2.198-11.535,4.89
			c3.301,11.248,5.9,23.62,4.979,35.543c-1.282,3.678-2.07,7.479-1.839,11.428c0.409,6.988,10.483,8.846,12.396,1.688
			c0.58-2.168,1.032-4.363,1.375-6.578c0.687,0.001,1.424-0.121,2.21-0.413c4.044-1.495,7.424-3.499,10.358-6.71
			c0.76-0.831,1.239-1.785,1.484-2.775c1.334-1.017,2.307-2.572,2.468-4.674C256.757,151.782,240.797,146.565,233.64,135.218z"/>
		<path clip-path="url(#XMLID_4_)" fill="#2D2524" d="M261.202,151.119c-1.708-5.64-7.586-5.606-10.618-2.206
			c-0.292-0.285-0.53-0.536-0.865-0.739c-1.111-2.314-1.719-4.545-3.719-6.701v-8.13c0-7.696-11.222-8.155-12.56-1.383
			c-3.552,1.591-6.056,6.641-2.645,10.524c0.829,0.944,1.205,1.924,2.205,2.921v23.479c0,0.698,0.218,1.331,0.385,1.91
			c-0.482,0.63-0.891,1.192-1.302,1.641c-5.506,6.007,3.427,15.007,8.954,8.976c1.271-1.386,2.534-2.986,3.681-4.723
			c1.594,1.507,3.318,2.865,5.103,4.023c2.96,1.921,6.87,0.551,8.638-2.277C263.207,170.838,263.757,159.559,261.202,151.119z"/>
	</g>
	<g>
		<defs>
			<path id="SVGID_3_" d="M295.297,95.264c2.63-9.102-0.5-18.784-5.261-27.714c-11.13-20.89-29.538-22.943-51.887-17.533
				c-12.984,3.144-11.851,5.685-17.32,14.571c-2.808,4.561-7.371,21.061-6.521,32.581c0.842,11.424,6.345,22.14,6.941,23.906
				c3.787,11.213,13.462,19.675,21.431,24.841c1.885,1.223,5.075,5.412,9.492,6.046c5.655,0.812,13.043,0.342,18.933-3.808
				c8.672-6.329,10.186-11.248,15.146-17.348C293.822,121.497,293.053,109.019,295.297,95.264z"/>
		</defs>
		<clipPath id="SVGID_4_">
			<use xlink:href="#SVGID_3_"  overflow="visible"/>
		</clipPath>
		<path clip-path="url(#SVGID_4_)" fill="#E5D1CA" d="M294.834,98.374c-21.415,23.758-12.814,42.14-31.723,47.03
			c-7.883,2.039-17.821,7.612-9.678,7.405c24.349-0.621,35.479-21.369,51.163-36.556C310.47,110.567,300.302,92.311,294.834,98.374z
			"/>
	</g>
	<path fill="#E5D1CA" d="M255.229,151.959c2.743,5.744-1.077,22.828-0.932,29.196c0.105,4.644,7.604,7.508,11.325,5.864
		c1.629,0.602,3.49,0.59,5.195-0.384c7.671-4.374,16.162-12.147,18.521-20.19c1.685-5.739,1.126-45.288,0.402-43.043
		C283.693,142.189,253.436,148.204,255.229,151.959z"/>
	<path fill="#3F3836" d="M307.175,124.42c-4.381-1.054-8.887-4.068-10.125-8.602c-1.41-5.166,0.648-11.51,0.243-16.854
		c-0.613-8.108-13.238-8.167-12.621,0c0.589,7.79-1.95,15.953,1.297,23.405c3.087,7.086,10.463,12.514,17.852,14.291
		C311.732,138.562,315.09,126.323,307.175,124.42z"/>
	<g>
		<defs>
			<path id="XMLID_1_" d="M374.601,239.545c-0.084-7.837-1.168-15.669-4.134-22.828c-0.672-16.738-14.737-30.485-31.521-30.485
				c-0.878,0-1.744,0.048-2.605,0.122c-3.16-1.584-16.747-5.516-22.338-6.085c-4.937-3.239-10.79-5.143-17.023-5.143
				c-2.527,0-4.988,0.319-7.355,0.904c-0.906-0.114-1.82-0.208-2.742-0.269c-2.738-0.185-4.651,1.478-5.571,3.664
				c-3.247,1.906-6.131,4.382-8.529,7.276c-5.707-5.567-13.445-9.038-21.872-9.038c-5.494,0-10.694,1.478-15.231,4.047
				c-6.987,0.633-13.947,1.378-20.924,2.481c-7.648,1.211-15.111,8.152-18.858,14.584c-1.244,2.136-2.214,4.409-2.922,6.76
				c-4.789,8.858-4.948,21.283-0.264,30.795c1.62,8.864,7.193,16.968,15.137,22.683c11.316,8.139,142.683,6.025,150.361,2.154
				c7.672-3.869,17.145,1.391,20.812-6.391C378.472,253.891,374.615,240.847,374.601,239.545z"/>
		</defs>
		<use xlink:href="#XMLID_1_"  overflow="visible" fill="#FFFFFF"/>
		<clipPath id="XMLID_5_">
			<use xlink:href="#XMLID_1_"  overflow="visible"/>
		</clipPath>
		<path clip-path="url(#XMLID_5_)" fill="#D8D8D8" d="M384.954,247.752c-11.794-9.781-27.571-22.869-43.744-17.841
			c-10.872,3.381-20.459,9.95-30.96,14.227c-11.575,4.711-23.952,4.32-36.202,4.293c-8.139-0.018-8.138,12.677,0,12.693
			c10.567,0.024,21.016,0.071,31.399-2.181c2.789-0.604,5.513-1.467,8.189-2.483c0.975,0.763,2.219,1.258,3.747,1.279
			c12.251,0.176,28.358-6.341,39.729-0.021c2.845,1.582,5.565,0.783,7.358-0.997c5.376,1.048,10.781,1.733,16.021,1.864
			C385.675,258.715,389.287,251.344,384.954,247.752z"/>
		<use xlink:href="#XMLID_1_"  overflow="visible" fill="none" stroke="#D8D8D8" stroke-miterlimit="10"/>
	</g>
	<path fill="#B7553B" d="M338.945,171.212"/>
	<path fill="#3F3836" d="M234.54,105.201c-3.206-3.215-10.81-1.469-14.289,0.651c-1.197,0.729,0.33,1.796,1.529,1.43
		c1.754-0.535,3.6-0.689,5.468-0.745c-0.396,0.383-0.586,0.94-0.568,1.495c-0.136,0.436-0.14,0.913-0.014,1.384
		c0.096,0.637,0.355,1.255,0.827,1.819c0.074,0.089,0.16,0.155,0.24,0.229c0.129,0.208,0.273,0.405,0.463,0.574
		c0.889,0.785,2.015,0.886,3.15,0.889c0.182,0,0.345-0.026,0.5-0.064c0.012,0.001,0.025,0.009,0.037,0.006
		c1.06,0.062,1.919-0.791,1.986-1.866c0.103-1.659-0.404-3.531-1.826-4.502c-0.027-0.018-0.056-0.022-0.082-0.04
		c-0.001-0.002-0.004-0.002-0.005-0.004c0.304-0.009,0.608-0.016,0.91-0.031C233.901,106.779,235.346,106.01,234.54,105.201z"/>
	<path fill="#3F3836" d="M266.383,89.291c-4.74,0.503-13.447,4.122-14.84,9.092c-0.305,1.084,1.083,0.998,2.009,0.301
		c-0.008,0.89,0.29,1.797,0.9,2.443c0.129,0.138,0.273,0.245,0.423,0.336c0.229,0.353,0.579,0.627,1.056,0.732
		c0.262,0.135,0.557,0.222,0.869,0.261c0.842,0.103,1.651-0.035,2.362-0.427c1.041-0.334,1.835-1.297,2.212-2.309
		c0.709-1.898-0.132-4.046-1.719-5.086c1.936-1.225,3.907-2.338,6.004-3.061C267.086,91.082,268.016,89.117,266.383,89.291z"/>
	<path fill="#35201C" d="M268,190.994c-5,0-5,6.347,0,6.347C271,197.341,271,190.994,268,190.994z"/>
	<path fill="#FFFFFF" d="M269,189.089c-9,0-9,12.694,0,12.694C277,201.783,277,189.089,269,189.089z"/>
	<path fill="#D8D8D8" d="M309.966,178.019c-2.258-1.729-8.481-3.915-9.517-1.94c-1.12,2.135-10.31,13.023-12.028,14.518
		c-0.789-0.286-1.673-0.313-2.502,0.091c-0.078,0.038-0.156,0.081-0.236,0.121c-0.407,0.061-0.825,0.217-1.234,0.514
		c-0.208,0.149-0.419,0.289-0.627,0.436c-0.16,0.083-0.323,0.159-0.48,0.245c-0.216-0.001-0.437,0.016-0.665,0.055
		c-0.48,0.088-0.945,0.204-1.403,0.338c-0.13-0.067-0.266-0.12-0.404-0.17c0-0.24-0.041-0.479-0.104-0.71
		c0.24-0.958-0.096-1.994-0.749-2.78c0.939-1.942-0.527-4.742-2.69-4.698c2.108-3.336,4.124-6.505,4.814-10.5
		c0.535-3.099-7.26,2.846-7.26-0.486c0-0.462-3.578,4.649-4.987,8.983c-0.307-0.966-3.112-5.784-3.443-6.593
		c-0.863-2.108-2.777-3.689-4.496-3.408c-0.434-0.266,1.648,1.615,1.154,1.408c-2.877-1.202-4.541,2.486-3.563,4.662
		c0.19,0.425,0.338,0.84,0.455,1.247c-1.479,0.191-2.85,1.276-2.779,3.075c0.094,2.412-1.431,2.8-0.946,5.062
		c-0.108-0.068-1.009,1.3-1.118,1.238c-1.332-0.736,0,0-0.879,0.757c-1.246-2.249-1.649-4.666-1.686-7.692
		c-0.045-3.911-11.966-5.025-12.966-1.536c-0.182-0.008-0.362-0.022-0.543-0.007c-0.264,0.021-0.529,0.042-0.794,0.063
		c-2.595,0.205-5.608,1.761-6.085,4.659c-3.048,18.533-5.609,37.143-7.377,55.845c-0.771,8.148,11.858,8.075,12.622,0
		c1.557-16.471,3.779-32.85,6.408-49.178c0.71-0.775,1.263-1.707,1.561-2.74c3.004,2.588,6.361,5.038,7.969,7.062
		c1.424,1.791,9.726-9.953,14.774-8.472c0.182,2.825,2.629,2.555,7.257,11.635c0.719,1.409,19.563,0.282,27.253-11.938
		C304.055,184.981,311.623,179.288,309.966,178.019z"/>
	<path fill="#FFFFFF" d="M300.925,167.934c-2.179-4.134-7.275-10.716-8.879-8.373c-2.038,2.976-4.487,5.586-7.244,7.895
		c-2.783,2.333-6.382,2.489-9.063,4.913c-0.335,0.171-0.616,0.401-0.848,0.672c-2.762,2.198-4.413,5.176-5.646,8.394
		c-0.632-1.497-1.4-2.965-2.082-4.337c-0.012-0.254-0.056-0.514-0.167-0.763c-0.871-1.944-1.873-3.812-4.203-4.064
		c-0.057-0.005-0.112,0.002-0.169,0.006c-0.439-0.166-1.218-0.346-2.462-0.95c-0.218-0.104-0.453-0.166-0.678-0.252
		c-0.063-0.023-0.428-0.175-0.61-0.248c-0.607-0.269-1.198-0.573-1.765-0.917c-0.03-0.019-0.323-0.231-0.44-0.309
		c-0.149-0.15-0.37-0.379-0.437-0.423c-0.028-0.054-0.056-0.106-0.079-0.157c0.002-0.115,0-0.23,0.014-0.346
		c0.153-1.727-1.55-3.173-3.155-3.173c-0.544,0-1.024,0.14-1.442,0.366c-0.565,0.105-1.127,0.413-1.629,0.985
		c-3.44,3.924-6.234,8.711-6.367,14.056c-0.131,5.276,7.544,9.868,10.717,13.26c2.073,2.217,7.679-18.027,8.042-19.064
		c0.148,0.051,0.298-0.104,0.46-0.104c-0.021,0-0.03,0-0.045,0c-0.012,0-0.014,0.211-0.028,0.205
		c0.002,0.001,0.016,0.121,0.022,0.125c-0.152-0.009,0.039,0.107,0.07,0.102c0.057,0.037,0.108,0.102,0.133,0.113
		c0.092,0.086,0.18,0.189,0.263,0.284c-0.146-0.168,0.118,0.201,0.189,0.305c0.005,0.204,0.046,0.418,0.139,0.635
		c1.064,2.493,4.269,6.955,3.883,10.227c-0.127,0.42-0.254,0.839-0.382,1.256c-0.14,0.271-0.302,0.533-0.521,0.773
		c-1.371,1.505,1.99-0.364,2.062-0.451c-0.024-2.629,3.575-6.849,5.15-9.502c-0.019,5.16,1.949,18.789,4.079,18.743
		c6.351-0.133,12.296-1.77,17.442-5.597c2.956-2.198,7.476-10.397,7.407-11.3C302.323,176.554,302.961,171.796,300.925,167.934z"/>
</g>
<g id="Layer_13">
</g>
<g id="Layer_12">
	<path fill="#3F3836" d="M258.797,127.366c-3.309,0.087-6.479,1.184-9.781,1.27c-0.975,0.025-1.479,0.771-1.517,1.534
		c-0.194,0.512-0.172,1.117,0.243,1.65c3.495,4.478,9.831,2.124,12.418-2.067C260.785,128.743,259.979,127.335,258.797,127.366z"/>
	<path fill="#FFFCBB" d="M258.396,99.438c-0.21-0.423-0.42-0.847-0.631-1.27c-0.198-0.398-0.695-0.367-0.991-0.128
		c-0.95,0.767-2.061,1.304-3.192,1.741c-0.485,0.188-0.518,0.761-0.276,1.068c0.021,0.106,0.062,0.212,0.156,0.31
		c0.333,0.351,0.584,0.737,0.848,1.141c0.383,0.588,1.247,0.193,1.188-0.367c0.095-0.027,0.188-0.069,0.277-0.139
		c0.744-0.585,1.555-1.058,2.396-1.488C258.49,100.142,258.542,99.733,258.396,99.438z"/>
	<path fill="#FFFCBB" d="M230.061,108.475c-0.084-0.271-0.319-0.466-0.608-0.466c-1.056,0-2.107-0.02-3.156-0.158
		c-0.559-0.075-0.715,0.511-0.5,0.914c-0.161,0.106-0.279,0.28-0.29,0.514c-0.114,2.386,2.778,1.935,4.27,1.564
		c0.207-0.052,0.391-0.235,0.44-0.443C230.377,109.743,230.261,109.109,230.061,108.475z"/>
	<path fill="#3F3836" d="M242.708,117.14c-1.423-0.605-2.181-1.698-2.212-3.26c-0.017-0.817-1.279-0.819-1.263,0
		c0.04,1.968,1.013,3.581,2.838,4.356C242.812,118.55,243.455,117.458,242.708,117.14z"/>
	<path fill="#3F3836" d="M233.532,102.89c-0.525-0.106-1.051-0.212-1.577-0.317c-0.397-0.08-0.567,0.532-0.167,0.612
		c0.525,0.105,1.052,0.211,1.578,0.317C233.762,103.582,233.932,102.971,233.532,102.89z"/>
	<path fill="#3F3836" d="M251.842,95.25c-0.346,0.382-0.569,0.807-0.712,1.303c-0.111,0.394,0.497,0.562,0.609,0.168
		c0.112-0.396,0.273-0.718,0.549-1.023C252.563,95.397,252.118,94.946,251.842,95.25z"/>
	<path fill="#3F3836" d="M231.124,97.604c-3.248-1.083-7.39,0.375-10.519,2.335c-0.415,0.261-0.104,0.701,0.336,0.537
		c3.352-1.246,6.234-1.935,9.61-1.763c0.3,0.016,0.559-0.284,0.495-0.484C231.323,98.104,231.457,97.716,231.124,97.604z"/>
	<path fill="#3F3836" d="M246.89,92.122c2.711-3.418,8.476-5.664,13.531-6.717c0.67-0.137,0.684,0.439,0.061,0.672
		c-4.717,1.767-8.466,3.57-12.06,6.414c-0.317,0.252-0.852,0.239-0.942,0.037C247.071,92.657,246.609,92.475,246.89,92.122z"/>
</g>
<g id="Layer_5">
	<g id="Layer_4">
		<linearGradient id="SVGID_5_" gradientUnits="userSpaceOnUse" x1="129.7412" y1="249.4639" x2="293.1924" y2="249.4639">
			<stop  offset="0.0012" style="stop-color:#9E9E9E"/>
			<stop  offset="0.3981" style="stop-color:#9B9B9B"/>
			<stop  offset="0.7045" style="stop-color:#919191"/>
			<stop  offset="0.9802" style="stop-color:#818181"/>
			<stop  offset="0.9988" style="stop-color:#808080"/>
		</linearGradient>
		<polygon fill="url(#SVGID_5_)" points="293.192,252.928 154.984,252.902 129.741,246 273.628,246 		"/>
	</g>
	<g>
		<g>
			<linearGradient id="SVGID_6_" gradientUnits="userSpaceOnUse" x1="168.5522" y1="171" x2="168.5522" y2="252.873">
				<stop  offset="0" style="stop-color:#B8B8B8"/>
				<stop  offset="0.3207" style="stop-color:#B5B5B5"/>
				<stop  offset="0.5579" style="stop-color:#ABABAB"/>
				<stop  offset="0.7682" style="stop-color:#9B9B9B"/>
				<stop  offset="0.9618" style="stop-color:#858585"/>
				<stop  offset="0.9988" style="stop-color:#808080"/>
			</linearGradient>
			<polygon fill="url(#SVGID_6_)" points="250.278,252.873 112.071,252.238 86.827,171 230.714,171 			"/>
		</g>
		<path fill="#939393" d="M173.512,206.44c-0.73-0.104-1.424-0.114-2.085-0.056c0.67-0.739,0.72-1.817,0.596-2.804
			c-0.051-0.411-0.52-0.877-0.95-0.549c-1.521,1.162-2.93,2.441-4.013,4.037c-0.083,0.121-0.102,0.237-0.097,0.35
			c-0.184-0.062-0.373-0.118-0.568-0.148c-0.284-0.896-0.659-1.757-1.288-2.447c-0.551-0.604-1.441,0.298-0.892,0.898
			c0.399,0.438,0.659,0.988,0.869,1.568c-3.096,0.607-5.064,2.981-5.283,6.091c-0.189,2.677,1.462,5.436,3.306,7.217
			c5.082,4.911,13.129,2.822,16.058-3.432C181.329,212.546,178.654,207.182,173.512,206.44z"/>
	</g>
</g>
<g id="Layer_8">
</g>
<g id="Layer_7">
	<path fill="#64B26B" d="M451.562,168.496c-3.715,1.239-6.31,4.135-8.151,7.855c0.416-6.887,1.585-13.448,5.656-19.351
		c4.632-6.718,7.731-11.893,7.624-21.423c-0.041-3.584-4.202-3.587-4.16,0c0.035,3.311-0.501,6.058-1.375,8.508
		c-4.584,0.779-8.978,0.666-12.552-3.8c-1.611-2.017-3.813,0.029-3.477,2.706c0.856,6.834,3.94,12.688,9.017,13.236
		c-0.674,1.065-1.336,2.163-1.953,3.339c-4.483,8.498-3.039,20.14-3.381,30.333c-2.478-3.922-5.458-7.199-8.949-9.999
		c-1.997-1.604-4.329,2.263-2.522,4.367c5.817,6.775,12.004,14.976,10.287,26.217c-0.536,3.5,3.473,4.994,4.011,1.481
		c0.502-3.268,0.499-6.325,0.119-9.207c0.857-0.345,1.609-1.35,1.618-2.66c0.032-3.374,0.177-7.315,0.713-11.12
		c2.459-4.842,5.606-8.54,9.077-12.062c1.056-1.076,1.062-2.824,0.537-4.03C454.768,170.805,453.607,167.814,451.562,168.496z"/>
	<path fill="#7C5C42" d="M464.909,236.211c-0.144-1.024-0.334-2.042-0.52-3.059c-0.087-0.473-0.513-3.22-0.39-2.152
		c-0.013-0.11-0.042-0.214-0.06-0.323c0.079-5.337-0.571-10.752-1.146-16.111c-0.646-6.018-3.841-11.123-9.512-11.127
		c-8.895-0.001-17.776-0.056-26.632-1.113c-6.583-0.783-10.243,7.65-9.172,14.082c0.307,1.818,0.95,3.648,1.088,5.486
		c-0.003,0.152,0.434,0.298,0.434,0.458v21.135c0,9.164,7.26,12.465,12.864,9.925c1.743,2.768,4.294,4.616,7.378,4.538
		c5.538-0.143,11.289-1.447,15.802-4.877c5.677,0.177,9.542-3.746,10.257-9.401C465.617,241.166,465.258,238.693,464.909,236.211z"
		/>
	<path fill="#917159" d="M459,202h-40c-11,0-11,21,0,21h40C472,223,472,202,459,202z"/>
	<path fill="#7C5C42" d="M222,252.5c-6,0-6,10,0,10C229,262.5,229,252.5,222,252.5z"/>
</g>
<g id="desk">
	<path fill="#C4C4C4" d="M499,261.129c0,2.407-4.687,4.871-11.892,4.871H14.292C7.088,266,1,263.536,1,261.129v-4.724
		C1,254,7.088,252,14.292,252h472.816c7.205,0,11.892,2,11.892,4.405V261.129z"/>
</g>
<g id="Layer_6">
	<g>
		<path fill="#27345B" d="M69.975,200.01C69.637,204.415,68,208.644,67,212.785v-9.9c1,0.229,2.29-0.283,2.289-1.547
			c-0.001-3.405,0.009-6.797-0.402-10.185c-0.12-0.997-1.173-1.521-1.994-1.572c-0.335-1.061-2.893-0.989-2.893,0.245v25.235
			c0,1.194,0.8,1.822,1.412,1.941c-1.931,4.851-4.037,9.614-5.911,14.441c-0.779,2.008,2.6,2.867,3.372,0.882
			c4.123-10.619,9.681-20.823,10.562-32.316C73.599,197.872,70.138,197.889,69.975,200.01z"/>
		<path fill="#C66767" d="M62,195.604V195c0-3-4-3-4,0v30c0,2,4,2,4,0v-18.259c0-0.185,0.614-0.501,0.741-0.979
			C63.642,202.344,63,198.874,62,195.604z"/>
		<path fill="#78CC87" d="M51.633,184.54c-1.09-0.613-2.772-0.192-2.568,1.303c0.421,3.088,0.567,6.187,0.567,9.297
			c0,0.877,0.367,1.389,1.367,1.547V233h4v-47.157C55,184.311,52.833,183.882,51.633,184.54z"/>
		<path fill="#FFD05C" d="M46.972,197.354c-0.194-1.9-3.304-2.101-3.7-0.566C42.73,197.015,42,197.495,42,198.239v4.427
			c0,0.942,0.976,1.468,1.72,1.582c0.475,9.792,0.167,19.596,0.121,29.407c-0.01,2.142,3.502,2.141,3.512,0
			C47.409,221.542,48.208,209.437,46.972,197.354z"/>
		<linearGradient id="SVGID_7_" gradientUnits="userSpaceOnUse" x1="38.3892" y1="232" x2="75.4678" y2="232">
			<stop  offset="0" style="stop-color:#78CC87"/>
			<stop  offset="0.3057" style="stop-color:#78C78C"/>
			<stop  offset="0.6725" style="stop-color:#78B89A"/>
			<stop  offset="1" style="stop-color:#78A5AC"/>
		</linearGradient>
		<polygon fill="url(#SVGID_7_)" points="71.806,252 43.024,252 38.389,212 75.468,212 		"/>
	</g>
</g>
</svg>
