<?xml version="1.0" encoding="utf-8"?>
<!-- Generator: Adobe Illustrator 16.0.0, SVG Export Plug-In . SVG Version: 6.00 Build 0)  -->
<!DOCTYPE svg PUBLIC "-//W3C//DTD SVG 1.1//EN" "http://www.w3.org/Graphics/SVG/1.1/DTD/svg11.dtd">
<svg version="1.1" id="Layer_1" xmlns="http://www.w3.org/2000/svg" xmlns:xlink="http://www.w3.org/1999/xlink" x="0px" y="0px"
	 width="360px" height="432px" viewBox="0 0 360 432" enable-background="new 0 0 360 432" xml:space="preserve">
<g id="Layer_2">
	<g id="Layer_11_1_">
		<rect fill="#C2DDF2" width="360" height="432"/>
	</g>
</g>
<g id="Layer_4">
	<g id="Layer_14_1_">
		<path fill="#5D798C" d="M125.181,269.273c1.341-0.547,2.466-0.938,3.374-1.18C127.181,267.793,126.031,268.309,125.181,269.273z"
			/>
		<path fill="#5D798C" d="M165.833,328.501c-16.259-8.19-32.826-19.478-49.007-28.938c-29.263-17.109-54.419-29.748-54.027-17.955
			c-15.132,19.561,31.076,42.144,50.701,63.519C129.176,337.875,151.084,333.078,165.833,328.501z"/>
		<path fill="#5D798C" d="M218,317c-16.48-6.508-27.6-14.671-44.934-24.115c-28.992-15.796-64.891-33.9-63.399-22.384
			c-24,18.5,34.698,40.563,58,56.833C183.5,325,199,322.083,218,317z"/>
	</g>
</g>
<g id="Layer_3">
</g>
<g id="Layer_1_2_">
	<g id="Layer_1_1_" display="none">
		<g id="_x30_AfUCi_1_" display="inline" opacity="0.5">
			
				<image overflow="visible" enable-background="new    " width="1046" height="1394" id="_x30_AfUCi_2_" xlink:href="C52F542E551C5257.jpeg"  transform="matrix(3.050558e-04 -0.2409 0.2105 2.665598e-04 40.6562 341.8145)">
			</image>
		</g>
		<g display="inline" opacity="0.2">
			<g>
				<g>
					<path fill="#231F20" d="M224.131,200.987c0,0,0.528,0.545,1.192,1.206c0.665,0.661,1.213,1.186,1.213,1.186
						s-0.528-0.545-1.193-1.206C224.68,201.512,224.131,200.987,224.131,200.987z"/>
					<path fill="#457BBA" d="M220.562,197.715c0,0,0.547,0.526,1.213,1.187c0.664,0.66,1.19,1.205,1.19,1.205L220.562,197.715z"/>
					<path fill="#457BBA" d="M213.7,190.894c0,0,0.548,0.525,1.212,1.186s1.193,1.206,1.193,1.206L213.7,190.894z"/>
					<path fill="#457BBA" d="M224.131,200.987c0,0,0.528,0.545,1.192,1.206c0.665,0.661,1.213,1.186,1.213,1.186
						s-0.528-0.545-1.193-1.206C224.68,201.512,224.131,200.987,224.131,200.987z"/>
					<path fill="#8C9B56" d="M224.075,201.042c0,0,0.528,0.545,1.192,1.206c0.664,0.66,1.213,1.186,1.213,1.186
						s-0.528-0.545-1.192-1.206S224.075,201.042,224.075,201.042z"/>
					<path fill="#457BBA" d="M224.021,201.098c0,0,0.526,0.545,1.19,1.206c0.665,0.661,1.213,1.186,1.213,1.186
						s-0.528-0.545-1.192-1.206C224.568,201.623,224.021,201.098,224.021,201.098z"/>
					<path fill="#8C9B56" d="M213.811,190.782c0,0,0.528,0.545,1.192,1.205c0.665,0.661,1.213,1.187,1.213,1.187
						s-0.528-0.545-1.192-1.206C214.357,191.308,213.811,190.782,213.811,190.782z"/>
					<path fill="#8C9B56" d="M213.755,190.838c0,0,0.529,0.545,1.193,1.205c0.663,0.661,1.212,1.187,1.212,1.187
						s-0.528-0.545-1.192-1.206C214.303,191.363,213.755,190.838,213.755,190.838z"/>
					<path fill="#8C9B56" d="M220.672,197.604c0,0,0.529,0.545,1.193,1.206c0.664,0.66,1.213,1.186,1.213,1.186
						s-0.529-0.545-1.193-1.205C221.221,198.129,220.672,197.604,220.672,197.604z"/>
					<path fill="#8C9B56" d="M220.616,197.659c0,0,0.528,0.545,1.194,1.206c0.664,0.66,1.211,1.186,1.211,1.186
						s-0.527-0.545-1.192-1.205C221.165,198.185,220.616,197.659,220.616,197.659z"/>
					<path fill="#8C9B56" d="M217.27,194.165c0,0,0.528,0.545,1.192,1.206c0.665,0.661,1.213,1.187,1.213,1.187
						s-0.528-0.545-1.192-1.206C217.816,194.691,217.27,194.165,217.27,194.165z"/>
					<path fill="#457BBA" d="M217.214,194.221c0,0,0.529,0.545,1.192,1.206c0.664,0.661,1.213,1.187,1.213,1.187
						s-0.528-0.545-1.193-1.206C217.762,194.747,217.214,194.221,217.214,194.221z"/>
					<path fill="#8C9B56" d="M217.158,194.276c0,0,0.529,0.545,1.193,1.206s1.213,1.187,1.213,1.187s-0.529-0.545-1.194-1.206
						C217.707,194.802,217.158,194.276,217.158,194.276z"/>
					<path fill="#457BBA" d="M210.398,187.336c0,0,0.531,0.546,1.192,1.206c0.664,0.66,1.214,1.186,1.214,1.186
						s-0.529-0.545-1.193-1.205C210.948,187.863,210.398,187.336,210.398,187.336z"/>
					<path fill="#8C9B56" d="M210.346,187.392c0,0,0.528,0.546,1.192,1.206c0.664,0.66,1.212,1.186,1.212,1.186
						s-0.527-0.545-1.191-1.205S210.346,187.392,210.346,187.392z"/>
					<path fill="#457BBA" d="M210.289,187.447c0,0,0.529,0.546,1.193,1.206c0.664,0.66,1.211,1.186,1.211,1.186
						s-0.527-0.545-1.191-1.205C210.838,187.974,210.289,187.447,210.289,187.447z"/>
					<path fill="#457BBA" d="M220.729,197.548c0,0,0.528,0.545,1.192,1.206c0.664,0.66,1.212,1.186,1.212,1.186L220.729,197.548z"/>
					<path fill="#457BBA" d="M213.866,190.727c0,0,0.528,0.545,1.192,1.205c0.664,0.661,1.213,1.186,1.213,1.186L213.866,190.727z"
						/>
				</g>
			</g>
		</g>
	</g>
	<g id="Layer_9" display="none">
		<g display="inline">
			<path opacity="0.1" fill="#464D9E" enable-background="new    " d="M297.252,210.801c-0.325-4.631-0.564-9.27-0.792-13.908
				c0.017-0.098,0.024-0.201,0.011-0.316c-0.02-0.182-0.033-0.362-0.053-0.544c-0.148-3.071-0.298-6.142-0.464-9.21
				c-0.074-6.359,0.187-12.727-0.265-19.081c-0.057-0.781-0.736-1.146-1.354-1.102c-0.172-1.472-0.357-2.968-0.564-4.438
				c0.927-0.483,0.746-2.202-0.551-2.202h-2.636c-0.069,0-0.245-0.435-0.553-0.585l-0.017,0.005
				c-0.238-0.348-0.621-0.496-1.002-0.481c-0.486-0.236-0.973-0.468-1.461-0.704c-0.445-1.799-0.891-3.598-1.279-5.412
				c-0.145-0.674-0.84-0.884-1.438-0.804c-2.767,0.367-5.504,0.871-8.229,1.431c-3.771-1.77-7.729-3.283-8.83-4.006
				c-0.934-0.614-1.791,0.31-1.686,1.171c-0.849-0.14-1.697-0.259-2.553-0.347c-0.15-0.032-0.303-0.061-0.453-0.092
				c-1.055-0.421-2.102-0.858-3.134-1.317c1.25-0.055,2.493-0.057,3.721,0.044c1.506,0.124,1.494-2.184,0-2.307
				c-2.536-0.208-5.144,0.011-7.716,0.3c-0.756-0.412-1.504-0.838-2.234-1.296c-1.154-0.724-2.218,0.88-1.479,1.777
				c-4.094,0.457-8.178,0.623-12.256,1.623h-1.82c-0.393,0-0.68,0.271-0.867,0.498c-0.893,0.128-1.783,0.502-2.677,0.502h-1.532
				c-0.4,0-0.689-0.018-0.877,0.2c-3.473,0.514-6.943,0.954-10.41,1.5c-5.025,0.101-10.029,0.503-15.039,0.879
				c-2.66-0.028-5.312,0.063-7.953,0.616c-0.699,0.146-0.918,0.735-0.795,1.286c-0.386,0.079-0.771,0.153-1.156,0.236
				c-0.926,0.198-1.226,1.713-0.279,2.106c0.361,0.151,0.729,0.292,1.092,0.44c0.137,1.338,0.258,2.676,0.354,4.017
				c-0.002,0.006-0.002,0.014-0.004,0.021c-0.445,0.125-0.828,0.475-0.853,1.059c-0.146,3.463-0.065,6.908,0.158,10.343
				c-0.19,10.676,0.67,21.345,1.421,32.015c-0.29,0.534-0.725,0.942-1.24,1.224c0.117,0.816,0.234,1.634,0.35,2.449
				c0.177,0.135,0.35,0.283,0.513,0.462c0.239,0.262,0.474,0.531,0.714,0.794c0.164,2.563,0.312,5.128,0.432,7.691
				c0.065,1.48,2.408,1.488,2.342,0c-0.072-1.631-0.162-3.261-0.258-4.892c1.979,2.229,3.943,4.472,5.896,6.727
				c8.122,4.241,15.991,9.103,21.976,15.925c1.377-0.369,2.76-0.718,4.152-1.018c2.334-0.118,4.671-0.199,7.016-0.21
				c1.213-0.007,1.448-1.491,0.713-2.075c1.041-0.218,2.078-0.436,3.111-0.656c1.477-0.318,0.85-2.544-0.623-2.226
				c-2.322,0.503-4.669,0.978-7.003,1.506c-0.034-0.002-0.065-0.01-0.104-0.009c-1.836,0.023-3.664,0.14-5.491,0.283
				c-0.247-0.326-0.5-0.649-0.755-0.971c-0.33-2.238-0.639-4.479-0.926-6.722c-0.066-2.821-0.279-5.635-0.569-8.44
				c-0.177-2.509-0.37-5.016-0.574-7.522c0.535-11.424,1.196-22.873,0.133-34.233c0.159-0.707,0.347-1.405,0.601-2.066
				c0.15-0.396,0.078-0.724-0.117-0.964c0.242-0.403,0.242-0.921-0.159-1.298c4.545-0.145,9.013-0.842,13.491-1.524
				c8.441,0.287,16.974-0.742,25.363-1.948c6.32,0.228,12.651,0.024,18.857-0.76c0.057,0.243,0.114,0.484,0.168,0.728
				c0.1,0.457,0.393,0.7,0.73,0.786c0.004,0.276,0.009,0.552,0.009,0.829c0,1.085,1.241,1.375,1.918,0.877
				c0.774,6.703,0.139,13.61,0.629,20.322c0.442,6.077,0.823,12.154,1.479,18.204c0.131,3.67,0.211,7.383,0.73,11.005
				c-0.372,0.069-0.7,0.319-0.812,0.804c-0.188,0.807-0.285,1.633-0.345,2.463c-2.435,0.586-4.782,1.438-7.058,2.465
				c-0.909,0.258-1.816,0.519-2.713,0.804c-0.496,0.157-0.741,0.528-0.799,0.926c-0.219,0.114-0.438,0.228-0.652,0.345
				c-0.969,0.521-0.596,2.282,0.591,2.148c0.454-0.051,0.909-0.11,1.362-0.176c0.205,0.461,0.668,0.765,1.291,0.52
				c0.908-0.357,1.81-0.725,2.701-1.109c1.291-0.166,2.584-0.261,3.883-0.209c0.182,0.301,0.482,0.537,0.914,0.592
				c1.9,0.24,3.525-0.01,5.387-0.426c0.797-0.179,1-1.054,0.699-1.693c-1.014-2.176-1.637-4.457-2.033-6.795
				c0.658,0.129,1.424-0.229,1.414-1.081c-0.02-1.568-0.098-3.132-0.213-4.691C296.544,212.021,297.312,211.666,297.252,210.801z
				 M289.805,223.708c0.019-0.116,0.016-0.233-0.006-0.351c0.405-0.144,0.809-0.293,1.209-0.445
				c-0.001,0.191-0.003,0.386-0.003,0.576c0,0.104,0.015,0.203,0.036,0.295C290.627,223.744,290.215,223.718,289.805,223.708z
				 M284.245,154.429c0.128,0.57,0.255,1.141,0.391,1.709c-0.147-0.391-0.495-0.701-1.05-0.699
				c-0.691,0.002-1.385,0.012-2.077,0.021c-0.321-0.14-0.645-0.279-0.968-0.416C281.771,154.822,283.005,154.61,284.245,154.429z
				 M259.823,161.834c4.829-1.088,9.698-1.89,14.567-2.055C269.543,160.513,264.682,161.162,259.823,161.834z M269.41,155.033
				c-0.139,0.031-0.278,0.063-0.417,0.095c-1.06-0.419-2.103-0.906-3.126-1.433C267.048,154.14,268.23,154.582,269.41,155.033z
				 M209.907,157.487c-0.558,0.338-0.804,1.181-0.323,1.769c-1.216-0.416-2.428-0.843-3.637-1.277
				C207.266,157.801,208.586,157.64,209.907,157.487z M200,169.941v-1.815c1-0.556,0.227-1.107,0.234-1.654
				c0.531-0.174,1.043-0.664,0.82-1.344c-0.391-1.017-0.584-2.067-0.688-3.153c-0.013-0.12-0.041-0.228-0.071-0.328
				c0.002-0.019,0-0.038,0.002-0.057c0.036-0.368-0.082-0.644-0.281-0.827c-0.062-0.293-0.132-0.584-0.22-0.871
				c1.729,0.855,3.537,1.545,5.36,2.221c-0.307-0.031-0.606-0.055-0.915-0.097c-1.456-0.195-2.104,1.762-0.621,2.224
				c3.96,1.235,8.026,2.024,12.071,2.919c0.55-0.629,1.266-1,2.023-1.156c1.112,0.483,2.219,0.985,3.314,1.508
				c1.039,0.598,2.021,1.14,3.158,1.603c0.004,0.002-0.074,0.005-0.078,0.008c0.006,0.038,0.279,0.079,0.373,0.116
				c0.3,0.117,0.621,0.088,0.85-0.028c0.15,0.088,0.324,0.178,0.479,0.262c0.076,0.602,0.158,1.204,0.229,1.806
				c-0.48-0.131-1.034,0.054-1.332,0.484c-0.203-0.546-0.411-1.092-0.643-1.635c-0.57-1.353-2.838-0.76-2.258,0.613
				c1.213,2.867,2.039,5.788,2.603,8.745c0.019,1.879,0.065,3.757,0.141,5.634c-0.454,0.103-0.836,0.456-0.827,1.077
				c0.049,4.908,0.564,9.776,1.188,14.634c0.102,1.165,0.201,2.329,0.309,3.493c-0.211,6.983-0.24,13.949,1.209,20.719
				c-6.765-7.149-14.791-13.055-22.166-19.624c-1.315-9.021-3.051-18.011-4.039-27.065C200.287,175.542,201,172.737,200,169.941z
				 M211.799,163.949c0.062-0.067,0.115-0.143,0.16-0.224c0.591,0.209,1.182,0.421,1.768,0.644
				C213.084,164.23,212.439,164.09,211.799,163.949z M200.529,196.729c0.343,2.06,0.68,4.119,1.003,6.179
				c-0.201-0.188-0.407-0.368-0.604-0.558C200.793,200.477,200.658,198.604,200.529,196.729z M214.952,220.042
				c-3.451-2.843-7.42-5.002-11.306-7.274c-0.006-0.003-0.013-0.007-0.018-0.01c-0.703-0.411-1.396-0.835-2.089-1.26
				c-0.117-1.915-0.243-3.83-0.376-5.744c0.303,0.274,0.607,0.545,0.914,0.817c0.068,0.487,0.145,0.974,0.21,1.461
				c0.144,1.043,1.317,1.025,1.919,0.409c8.074,6.964,16.77,13.311,23.529,21.525C222.896,227.977,218.695,223.123,214.952,220.042z
				 M227.325,163.958c-0.046-0.25-0.082-0.501-0.132-0.752c-0.254-1.313-2.278-0.958-2.301,0.307
				c0.014,0.229,0.01,0.457-0.004,0.684c-0.396,0.019-0.798,0.036-1.191,0.056c0.267-0.826-0.322-1.877-1.331-1.467
				c-0.277,0.113-0.552,0.233-0.826,0.354c-0.281-0.088-0.562-0.177-0.845-0.266c3.891-0.943,7.789-1.856,11.662-2.862
				c1.461-0.378,0.842-2.603-0.621-2.224c-4.82,1.25-9.678,2.355-14.508,3.558c-2.054-1.293-4.106-2.582-6.19-3.827
				c-0.097-0.057-0.19-0.096-0.284-0.125c6.755-0.762,13.544-1.298,20.286-2.122c4.208-0.304,8.399-0.874,12.595-1.37
				c0.549-0.065,0.903-0.399,1.051-0.794c3.287-0.115,6.576-0.323,9.883-0.359c0.564-0.006,0.918-0.332,1.062-0.736
				c0.849,0.086,1.69,0.186,2.533,0.31c0.151,0.022,0.294,0.013,0.427-0.011c2.161,1.169,4.415,2.498,6.751,3.645
				c-2.987,0.671-5.981,1.313-9.004,1.832c-0.392,0.067-0.631,0.271-0.753,0.529C246.15,160.135,236.705,161.892,227.325,163.958z
				 M292.996,224.3c0.209-0.186,0.352-0.45,0.352-0.812c0-0.463,0-0.932,0.004-1.401c0.211,0.699,0.443,1.394,0.713,2.078
				C293.707,224.223,293.352,224.271,292.996,224.3z M293.011,196.646c-0.257-3.409-0.479-6.824-0.729-10.235
				c-0.515-7.025,0.226-14.139-0.812-21.079c0.13,0.027,0.259,0.034,0.386,0.021c0.883,6.978,1.375,13.988,1.754,21.009
				c0.031,3.297,0.146,6.592,0.49,9.881c0.012,0.231,0.021,0.463,0.033,0.693C293.825,196.669,293.395,196.572,293.011,196.646z"/>
			<polygon fill="#464D9E" points="224.113,169.122 224.113,169.122 224.113,169.121 			"/>
		</g>
		<path display="inline" fill="#464D9E" d="M38-19v2c0,1.935,3,1.935,3,0v-2C41-20.935,38-20.935,38-19z"/>
		<path display="inline" opacity="0.1" fill="#464D9E" enable-background="new    " d="M160.779,236.602
			c-0.35-1.899-3.241-1.094-2.893,0.797c2.894,15.711,1.662,31.729,1.613,47.604c-0.006,1.936,2.994,1.936,3,0
			C162.55,268.841,163.725,252.593,160.779,236.602z"/>
		<path display="inline" opacity="0.1" fill="#464D9E" enable-background="new    " d="M184.062,207.044
			c0.006,0.159,0.008,0.317,0.015,0.476c0.899,0.097,1.801,0.181,2.705,0.25c0.002-1.037-0.019-2.075-0.042-3.113
			c-0.312,0.363-0.646,0.717-1.016,1.057C185.186,206.209,184.63,206.65,184.062,207.044z"/>
		<path display="inline" opacity="0.1" fill="#464D9E" enable-background="new    " d="M239.113,259.936
			c-0.055-0.332-0.198-0.58-0.393-0.756c0.049-1.75,0.139-3.666,0.062-5.638c0.166-4.856,0.215-9.733-0.785-14.54
			c0-0.001,0-0.001,0-0.002c0-0.133-0.117-0.266-0.139-0.398c-0.209-1.352-1.848-1.33-2.6-0.511
			c-0.604-0.997-1.328-1.866-2.142-2.575c-0.071-0.649-0.528-1.258-1.349-1.336c1.442-0.294,2.875-0.637,4.297-1.064
			c1.848-0.559,1.058-3.453-0.799-2.895c-0.957,0.289-1.922,0.539-2.892,0.764c-1.306-1.123-2.644-2.2-4.003-3.245
			c0.074,0.013,0.146,0.028,0.225,0.042c1.381,0.215,2.635-1.368,1.459-2.508c-4.902-4.748-10.643-8.475-16.306-12.233
			c-1.615-1.074-3.117,1.525-1.515,2.59c3.051,2.025,6.115,4.042,9.057,6.222c-2.764-1.535-5.411-3.348-8.209-4.812
			c-1.38-0.723-2.52,0.655-2.127,1.8c-0.387,0.029-0.753,0.225-1.021,0.51c-1.211-0.619-2.514-1.119-3.951-1.451
			c-3.282-0.762-6.58-0.502-9.877-0.023c-0.229-0.568-0.436-1.135-0.647-1.703c-0.353,0.438-0.772,0.812-1.247,1.112
			c-0.839-0.403-1.672-0.815-2.496-1.241c0.121-0.597-0.055-1.277-0.63-1.667c-2.176-1.476-4.465-2.754-6.762-4.018
			c-1.57-2.034-3.147-4.062-4.7-6.11c-0.578-0.762-1.431-0.837-2.04-0.474c-1.001-0.645-2.199-1.094-3.653-1.285
			c-4.489-0.589-8.994-0.619-13.508-0.428c-0.059-0.69-0.53-1.301-1.428-1.222c-2.566,0.225-5.107,0.556-7.633,0.963
			c-8.052-0.877-16.162-0.743-24.1,1.09c-1.798,0.415-1.146,2.739,0.399,2.946c1.065,0.143,2.131,0.252,3.196,0.346
			c-1.796,0.099-3.594,0.144-5.391,0.121c-1.319-0.944-2.565-1.973-3.72-3.094c0.437,0.99,0.815,2.001,1.183,3.016
			c-0.851-0.04-1.7-0.098-2.549-0.169c-0.101-0.845-0.782-1.57-1.784-1.166c-0.908,0.501-1.886,0.706-2.935,0.613
			c-1.147,0.024-1.727,1.343-1.371,2.214c-5.086-0.027-10.195-0.518-15.296-0.876c-1.95-0.137-1.89,2.885,0,3.081
			c2.354,0.244,4.69,0.081,7.016,1.081h-15.68c-1.965,0-1.894,2.744,0,2.916c0.136,0.014,0.273-0.017,0.409-0.005
			c-2.004,0.605-3.958,1.389-5.833,2.481c-1.67,0.973-0.161,3.557,1.515,2.58c7.385-4.302,16.133-3.869,24.41-3.807
			c-3.484,0.661-6.96,1.359-10.501,1.671c-1.901,0.167-1.96,2.949,0,2.998c8.806,0.218,17.472-0.517,25.941,2.17
			c-8.961,0.734-17.94,1.136-26.941,1.162c-1.367,0.004-1.763,1.5-1.198,2.378c-2.043-1.417-3.599-3.635-5.408-5.271
			c-1.02-0.922-3.081-0.043-2.507,1.459c0.074,0.195,0.161,0.382,0.239,0.572c-0.987,0.447-1.444,1.984-0.216,2.657
			c0.642,0.353,1.289,0.688,1.939,1.022c-0.172,0.461-0.094,0.986,0.423,1.41c0.312,0.254,0.612,0.519,0.912,0.783
			c-0.062-0.006-0.123-0.009-0.185-0.013c-1.934-0.112-1.922,2.888,0,3c0.576,0.034,1.152,0.062,1.729,0.099
			c4.41,15.502,6.476,31.562,10.895,47.064c-1.576-2.364-3.208-4.713-4.995-6.893c0.31-0.407,0.391-0.961,0-1.527
			c-0.776-1.13-1.514-2.075-2.568-2.973c-0.65-0.553-1.381-0.506-1.887-0.14c-1.173-1.021-2.411-1.956-3.75-2.761
			c-0.005-0.003-0.01-0.005-0.015-0.008c-0.06-0.178-0.13-0.355-0.187-0.534c0.319-0.412,0.423-0.981,0.074-1.587
			c-0.434-0.752-0.835-1.52-1.22-2.295c-0.29-4.52-0.851-9.02-1.701-13.465c0.782,1.217,1.73,2.313,2.899,3.244
			c0.976,0.773,2.559,0.357,2.561-1.062c0.012-9.034-4.416-17.18-6.72-25.73c-0.502-1.867-3.396-1.074-2.893,0.797
			c0.194,0.721,0.409,1.438,0.632,2.154c-0.835-0.092-1.748,0.426-1.686,1.445c0.156,2.578,0.317,5.154,0.497,7.73
			c-0.431,0.235-0.771,0.67-0.831,1.27c-0.807,8.188,0.615,16.546,4.089,23.988c0.103,0.471,0.189,0.941,0.298,1.408
			c0.083,0.361,0.281,0.621,0.531,0.797c0.146,0.604,0.313,1.192,0.494,1.776c-0.093-0.133-0.192-0.259-0.283-0.395
			c-1.068-1.601-3.667-0.101-2.591,1.514c2.927,4.39,6.894,7.591,10.968,10.699c1.031,1.216,2.116,2.376,3.267,3.456
			c2.079,3.68,4.663,6.986,8.304,9.049c1.224,0.693,2.977-0.775,2.052-2.052c-0.623-0.858-1.235-1.746-1.844-2.647
			c0.471-0.523,0.591-1.335-0.058-1.988c-0.153-0.153-0.312-0.301-0.468-0.453c0.455-0.312,0.729-0.856,0.521-1.553
			c-4.68-15.595-6.751-31.808-11.041-47.492c0.307-0.111,0.576-0.334,0.762-0.619c19.394,1.062,38.806,1.809,58.165,3.404
			c0.388,0.187,0.835,0.211,1.229,0.103c0.701,0.06,1.403,0.108,2.104,0.172c1.928,0.169,1.912-2.832,0-3
			c-0.563-0.05-1.128-0.091-1.691-0.14c-0.542-1.543-0.938-3.332-0.487-4.832c0.237,0.357,0.628,0.617,1.178,0.639
			c0.45,0.018,0.888,0.085,1.319,0.18c0.926,0.613,1.852,1.217,2.784,1.801c2.566,1.662,5.139,3.312,7.806,4.814
			c0.789,0.443,1.534,0.113,1.937-0.461c0.596,0.134,1.2,0.25,1.82,0.332c1.479,0.193,2.053-2.175,0.757-2.795
			c-4.059-1.944-8.002-4.073-11.84-6.396c0.366-0.043,0.732-0.089,1.098-0.132c4.983,0.478,9.93,0.41,14.717-1.399
			c0.887-0.334,1.143-1.215,0.957-1.935c0.512,0.083,1.021,0.142,1.533,0.188c0.408,0.447,1.061,0.535,1.614,0.328
			c-0.001,0.213-0.003,0.427-0.004,0.639c-0.003,1.936,2.983,1.934,3,0c0.003-0.311,0.015-0.618,0.019-0.928
			c2.363-0.15,4.729-0.51,7.096-0.848c0.455,1.062,0.928,2.129,1.427,3.197c0.815,1.753,3.399,0.229,2.59-1.516
			c-0.326-0.698-0.642-1.396-0.946-2.092c1.273-0.149,2.547-0.271,3.815-0.314c3.688-0.133,6.553,0.941,9.083,2.596
			c0.033,0.441,0.242,0.885,0.663,1.197c1.641,1.229,3.313,2.45,5.034,3.596c1.406,1.348,2.828,2.729,4.375,3.997
			c-3.928-0.556-8.178-0.151-11.899-0.077c-9.157,0.184-18.399-0.27-27.485,1.077c-1.321,0.195-1.411,2.163-0.357,2.741
			c1.574,0.866,2.992,1.589,4.691,2.15c1.588,0.524,2.385-1.556,1.401-2.524c6.534-0.485,13.11-0.204,19.662-0.421
			c2.914-0.098,6.473-0.471,9.896-0.389c-0.217,0.83,0.416,1.926,1.438,2.055c1.791,0.227,3.581,0.357,5.372,0.459
			c0.283,0.146,0.63,0.218,1.025,0.152c0.174-0.026,0.35-0.043,0.521-0.063c1.775,0.072,3.557,0.099,5.338,0.106
			c0.602,0.281,1.146,0.647,1.637,1.105c-0.021,0.148-0.031,0.305-0.009,0.471c1.091,7.855,1.776,15.75,2.367,23.655
			c-0.028,7.257,0.353,14.497,1.633,21.679c0.013,0.062,0.045,0.106,0.063,0.164c-0.646-0.924-1.549-1.554-2.616-1.972
			c1.014-8.388,1.131-17.063-1.556-24.989c-0.176-0.521-0.539-0.822-0.953-0.955c-0.119-4.66-0.334-9.322-0.659-13.979
			c-0.038-0.544-0.31-0.932-0.673-1.166c0.002-0.059,0.006-0.112,0.006-0.168c0.015-1.938-2.985-1.936-3,0
			c-0.049,6.469-0.635,12.876-1.612,19.27c-0.29,1.893,2.601,2.704,2.894,0.797c0.031-0.213,0.058-0.428,0.09-0.642
			c0.046,5.058,0.049,10.112-0.162,15.166c-0.271,0.242-0.373,0.601-0.373,1.076v4.954c-1.155,0.076-2.322,0.23-3.458,0.412
			c-7.656-1.07-15.412-0.752-23.062,0.402c-2.369-0.42-4.725-0.584-6.881,0.116c-0.699,0.228-1.016,0.79-1.039,1.366
			c-1.537,0.341-3.068,0.708-4.591,1.1c-0.269-0.604-0.881-1.037-1.704-0.799c-0.814,0.237-1.219,0.36-1.686,0.587
			c-0.553-8.431-1.538-16.8-2.551-25.192c-0.09-3.449-0.354-6.898-0.918-10.346c-0.045-0.268-0.147-0.476-0.283-0.641
			c0.001-2.668-0.084-5.329-0.346-7.977c9.982,2.297,20.202,2.904,30.346,4.185c0.236,0.36,0.624,0.631,1.17,0.663
			c1.27,0.074,2.4,0.15,3.666,0c1.523-0.182,2.218-2.672,0.398-2.946c-11.994-1.808-24.18-2.198-35.992-5.088
			c-0.172-1.067-0.375-2.135-0.628-3.196c-0.447-1.883-3.34-1.084-2.893,0.797c0.274,1.15,0.488,2.309,0.665,3.465
			c-0.041,0.299-0.005,0.602,0.124,0.865c0.087,0.646,0.167,1.293,0.232,1.941c-0.537-0.762-1.142-1.462-1.848-2.064
			c-0.885-0.756-2.119-0.449-2.507,0.662c-4.117,11.791,1.805,24.15,5.388,35.461c-0.104,1.76-0.29,3.519-0.379,5.273
			c-0.007,0.016-0.015,0.031-0.022,0.047c-1.367-0.945-2.745-1.876-4.101-2.832c-2.02-2.088-4.112-4.093-6.682-5.513
			c-0.45-0.248-0.899-0.244-1.277-0.087c-0.138-0.118-0.283-0.228-0.419-0.346c-1.444-1.275-3.574,0.838-2.121,2.121
			c3.506,3.098,7.478,5.594,11,8.665c0.532,0.466,1.144,0.485,1.638,0.263c0.596,0.412,1.19,0.826,1.779,1.248
			c0.122,0.86,0.889,1.26,1.63,1.203c0.084,0.062,0.172,0.125,0.256,0.188c0.553,0.424,1.097,0.354,1.5,0.041
			c0.144,1.107,0.281,2.219,0.402,3.33c0.202,1.88,3.104,1.966,3.01,0c-0.01-0.229-0.024-0.454-0.037-0.684
			c8.459,2.03,17.971,0.313,26.455-1.021c5.129,0.491,10.279,0.592,15.427,0.202c1.181-0.09,1.637-1.264,1.362-2.117
			c0.578,0.15,1.256-0.044,1.623-0.594c-0.233,1.625-0.494,3.231-0.767,4.812c-0.327,1.892,2.563,2.701,2.894,0.798
			c0.287-1.668,0.562-3.363,0.811-5.074c0.177,0.127,0.334,0.267,0.449,0.434c1.002,1.449,3.268,0.309,2.779-1.125
			c0.674,0.848,2.336,0.598,2.627-0.564C240.438,276.111,240.456,267.996,239.113,259.936z M88.584,232.501
			c1.321,3.687,2.584,7.392,3.196,11.211C89.961,240.475,89.231,236.389,88.584,232.501z M143.805,207.886
			c2.545-0.389,5.08-0.848,7.595-1.438c0.33-0.078,0.578-0.251,0.751-0.477c3.703-0.243,7.406-0.508,11.112-0.666
			c3.29,0.946,6.375,2.315,9.007,4.367c0.731,0.864,1.492,1.697,2.27,2.511c-4.156-1.468-9.822,0.699-14.6-0.372
			c1.43-1.255,2.837-2.53,4.484-3.514c1.57-0.938,0.439-2.962-1.156-2.742c-3.393,0.468-6.704,1.299-10.034,2.012
			c-3.137,0.116-6.227,0.437-9.299,1.322c-1.603,0.461-1.324,3.006,0.399,2.946c1.245-0.043,2.473-0.17,3.694-0.329
			c-2.178,0.761-4.398,1.413-6.634,2.037c-0.012-0.131-0.018-0.263-0.03-0.395c-1.547-0.341-3.076-0.755-4.578-1.241
			c0.174,0.917,0.361,1.832,0.544,2.748c-0.243,0.076-0.487,0.149-0.729,0.234c-0.369,0.129-0.627,0.351-0.796,0.614
			c-1.523-1.104-2.863-2.379-4.086-3.764C135.771,210.482,139.814,208.979,143.805,207.886z M128.612,212.639
			c0.702,0.855,1.424,1.691,2.199,2.479c-3.037-0.387-6.133-0.94-9.19-1.148C123.944,213.751,126.277,213.263,128.612,212.639z
			 M124.288,210.052c0.092,0.234,0.206,0.464,0.307,0.697c-0.939,0.168-1.874,0.297-2.803,0.382c-0.119-0.065-0.24-0.129-0.393-0.16
			c-0.575-0.117-1.148-0.279-1.723-0.399C121.216,210.466,122.754,210.295,124.288,210.052z M112.621,214.912
			c0.288-0.252,0.449-0.912,0.484-0.912h3.844c0.01,0.001,0.02,0.001,0.029,0.002c-1.18,0.118-2.347,0.323-3.492,0.67
			C113.197,214.723,112.909,214.859,112.621,214.912z M116.631,217.182c0.145-0.021,0.289-0.048,0.434-0.066
			c0.301-0.045,0.528-0.156,0.7-0.309c5.549-0.498,11.721,1.436,17.072,1.672c0.244,0.162,0.486,0.328,0.739,0.483
			c1.121,0.688,2.171-0.282,2.221-1.295c0.047-0.015,0.093-0.026,0.14-0.04c0.229,1.094,0.457,2.186,0.695,3.271
			c-1.31-0.416-2.613-0.858-3.9-1.352c-1.274-0.484-2.031,0.809-1.747,1.854c-1.237,0.125-2.475,0.222-3.712,0.332
			c0.334-0.754,0.133-1.816-0.874-2.183C124.516,218.146,120.592,217.493,116.631,217.182z M101.007,228.587
			c0.291-0.663,0.187-1.584-0.583-1.965c-0.367-0.183-0.735-0.622-1.103-0.622h0.012c12.036,0,24.034-0.623,36-1.916
			c0.579-0.062,0.981-0.345,1.209-0.756c0.227,0.074,0.457,0.145,0.685,0.217c-1.765-0.092-2.473,2.619-0.626,2.9
			c4.05,0.619,8.077,0.687,12.094,0.479c1.875,0.594,3.733,1.239,5.548,2.018c0.402,0.172,0.789,0.164,1.13,0.051
			c0.03,0.93,0.173,1.861,0.41,2.773C137.55,230.307,119.271,229.568,101.007,228.587z M168.343,220.786
			c-6.841-0.937-13.746-0.655-20.677-0.619c-1.937,0.01-1.932,2.96,0,3c1.962,0.041,3.941,0.222,5.929,0.462
			c-1.498,0.15-2.996,0.271-4.495,0.355c-2.416-0.744-4.856-1.411-7.284-2.118c0.008-0.065,0.018-0.13,0.017-0.199
			c-0.019-1.671-0.099-3.335-0.205-4.996c1.684-0.333,3.384-0.585,5.104-0.891c0.656-0.116,0.983-0.538,1.061-1.024
			c2.802-0.918,5.537-2.009,8.154-3.43c-0.577,0.697-0.667,1.812,0.295,2.303c2.842,1.448,5.71,1.523,8.847,1.257
			c4.135-0.35,9.354-1.854,11.131,3.179c0.258,0.732,0.886,1.035,1.499,1.022C174.601,219.704,171.48,220.302,168.343,220.786z
			 M178.321,218.971c0.636-0.248,1.089-0.861,0.792-1.701c-0.159-0.451-0.336-0.854-0.521-1.237c0.825,0.71,1.67,1.401,2.541,2.071
			c0.053,0.095,0.106,0.187,0.159,0.276C180.302,218.576,179.312,218.773,178.321,218.971z M184.398,217.587
			c-0.012-0.36-0.146-0.719-0.428-1.017c-0.195-0.603-0.384-1.216-0.566-1.838c1.771,1.117,3.578,2.172,5.428,3.167
			C187.352,217.828,185.872,217.73,184.398,217.587z M224.617,229.252c-2.73-2.548-5.627-4.867-8.996-6.418l-1.374-1.374
			c4.03,2.738,8.096,5.423,11.968,8.373C225.676,229.659,225.145,229.462,224.617,229.252z M177.72,263.561
			c-2.172-6.652-3.775-13.487-2.359-20.115c1.288,1.977,2.065,4.488,2.571,7.109C177.895,254.885,177.686,259.23,177.72,263.561z
			 M195.734,286.309c1.648-0.332,3.31-0.615,4.973-0.873c0.521,0.094,1.047,0.198,1.57,0.312
			C200.093,286.025,197.902,286.234,195.734,286.309z M230.066,282h-0.01c0.26-5,0.432-8.484,0.502-12.729
			C230.811,273.492,230.562,277,230.066,282z"/>
		<path display="inline" opacity="0.1" fill="#464D9E" enable-background="new    " d="M129.667,254.5c1.895-0.232,1.917-3.236,0-3
			c-3.236,0.398-6.702,2.072-7.53,5.518c-0.965,4.02,3.187,6.193,6.464,6.762c1.892,0.328,2.701-2.562,0.798-2.893
			c-1.464-0.254-4.713-0.916-4.369-3.07C125.356,255.766,127.868,254.723,129.667,254.5z"/>
		<path display="inline" opacity="0.1" fill="#464D9E" enable-background="new    " d="M149.757,254.372
			c-2.117-1.146-3.882-2.854-6-4c-1.702-0.921-3.216,1.67-1.514,2.59c1.727,0.935,3.229,2.229,4.869,3.302
			c-0.938,1.881-2.394,3.522-3.839,5.01c-1.349,1.388,0.77,3.511,2.121,2.121c2.08-2.139,3.99-4.514,5.052-7.328
			C150.675,255.459,150.306,254.669,149.757,254.372z"/>
		<path display="inline" opacity="0.1" fill="#464D9E" enable-background="new    " d="M201.667,260.833
			c-1.909-0.041-3.606-0.293-2.972-2.487c0.547-1.885,2.021-3.58,3.365-4.951c1.354-1.383-0.768-3.506-2.121-2.121
			c-1.981,2.021-4.125,4.694-4.408,7.619c-0.355,3.676,3.072,4.875,6.136,4.94C203.604,263.874,203.6,260.874,201.667,260.833z"/>
	</g>
	<g id="Layer_14">
		<path fill="#5D798C" d="M419.837,450.75c0.334-0.748-0.056-1.609-0.653-2.104c0.56,0.243,1.111,0.497,1.67,0.741
			c-0.551-1.457-0.984-2.95-1.297-4.465c-18.386-8-37.225-14.922-56.021-21.873c-13.894-5.139-27.66-10.5-41.366-16.129
			c-14.54-5.975-29.508-13.45-44.736-17.319c-0.935-0.236-1.637,0.25-1.973,0.926c-0.184-0.078-0.37-0.162-0.552-0.242
			c-5.199-2.316,1.702,2.629-3.376,0.621c18.646,16.531,27.158,19.812,38.021,34.432c-15.363-1.592-68.467-40.676-65.471-34.979
			c0.126,9.211,87.882,86.207,99.389,96.528c6.024,5.404,0,0,8.907,1.609c17.137,3.096,63.882-15.844,65.409-26.885
			c2.453-2.959,3.91-6.73,2.419-9.42C420.3,451.705,420.146,451.158,419.837,450.75z"/>
	</g>
	<g id="Layer_12">
	</g>
	<polygon fill="#464D9E" points="174.291,293.529 130.702,299.872 129.176,256.495 174.291,251.662 	"/>
	<polygon fill="#2B336D" points="130.976,299.872 108.142,289.514 108.699,247.723 130.976,256.711 	"/>
	<polygon fill="#646EB5" points="150.158,243.004 108.699,247.723 130.702,256.711 174.291,251.662 	"/>
	<polygon fill="#464D9E" points="121.384,302.102 72.099,309.762 71.44,260.787 120.844,257.084 	"/>
	<polygon fill="#2B336D" points="72.099,309.762 54.041,296.652 53.499,253.454 71.629,263.021 	"/>
	<polygon fill="#646EB5" points="98.283,248.793 53.499,253.454 71.629,263.021 120.787,257.084 	"/>
	<polygon fill="#464D9E" points="282.064,231.824 211.762,241.998 211.991,166.677 281.29,159.87 	"/>
	<polygon fill="#2B336D" points="211.741,241.998 187,223.82 187,154.952 211.991,166.677 	"/>
	<polygon fill="#646EB5" points="249.945,150.245 187,154.952 211.991,166.677 281.29,159.87 	"/>
	<g id="skin">
		<g>
			<g>
				<g>
					<path fill="#FFDACA" d="M255.773,205.231c-10.644,6.399-13.229,26.109-2.965,34.089c6.709,5.215,15.518,2.438,19.157-5.096
						c3.399-7.029,0.888-15.621-3.597-21.436c-4.23-5.484-11.906-5.052-15.691,0.522c-3.111,4.583-4.628,11.262-2.783,16.602
						c2.498,7.231,11.104,10.586,16.845,4.754c4.823-4.897,2.78-14.914-1.669-19.332c-2.434-2.418-6.579-1.933-8.312,1.089
						c-1.659,2.895-2.721,7.196-1.946,10.51c1.02,4.369,5.584,6.83,9.551,4.416c6.66-4.061,2.466-17.104-2.486-20.764
						c-2.193-1.62-6.094-0.538-7.24,1.93c-0.203,0.434-0.404,0.867-0.607,1.303c-2.898,6.233,6.225,11.695,9.141,5.428
						c0.202-0.435,0.404-0.869,0.605-1.304c-2.414,0.646-4.827,1.287-7.24,1.931c-1.456-1.074-0.612-0.397-0.314,0.438
						c0.36,1.018,0.646,2.139,0.754,3.215c0.325,3.238,7.689,4.102,8.238,0.682c0.124-0.785,0.296-1.67,0.689-2.357
						c-2.771,0.363-5.543,0.728-8.312,1.09c1.125,1.117,1.453,3.433,1.141,4.951c0.179-0.869,1.517-0.86,1.355-1.094
						c-0.449-0.654-0.525-1.592-0.415-2.357c0.253-1.723,0.716-3.903,1.874-5.26c-1.131,1.322-2.559-0.77-0.656,1.213
						c1.032,1.074,1.405,2.873,1.768,4.265c0.572,2.221,0.363,4.496-1.17,6.213c-2.117,2.371-3.823-2.524-4.168-3.865
						c-1.032-4.012,0.065-10.241,3.801-12.489C266.982,210.99,261.661,201.691,255.773,205.231L255.773,205.231z"/>
				</g>
			</g>
			<g>
				<path fill="#FFDACA" d="M250.102,215.664c-0.893,1.135,2.107-1.037-4.304,1.747c-2.21,0.959-0.269,4.739,0.489,6.912"/>
			</g>
		</g>
		<g>
			<g>
				<path fill="#FFDACA" d="M245.754,222.658c-2.738,6.463,4.196,14.229,9.566,16.771c1.535,0.729,2.882-1.589,1.336-2.32
					c-3.76-1.783-10.691-8.201-8.617-13.094C248.706,222.441,246.428,221.072,245.754,222.658L245.754,222.658z"/>
			</g>
		</g>
		<g id="Layer_8">
			<path fill="#C1917E" d="M257.393,212.632c-0.772,0.473-1.522,0.972-2.246,1.498c0.621-1.937,0.662-4.071,0.677-6.078
				c0.008-1.033-1.634-1.032-1.642,0c-0.016,1.943-0.138,3.832-0.638,5.719c-0.28,1.053-0.812,1.967-1.379,2.87
				c-1.324,1.305-2.065,9.227-4.005,11.362c-1.949,3.451-0.577,4.33,0.818,6.828c0.86,0.604,1.68-0.785,0.826-1.381
				c-0.062-0.043-0.119-0.099-0.175-0.158c0.589-0.08,0.957-1.149,0.437-1.629c0.002-0.006,0.002-0.229,0.004-0.229s0.002,0,0.005,0
				c0,0-0.003,0.196-0.003,0.186c0.02-0.15,0.035-0.189,0.049-0.338c0.023-0.055,0.053-0.051,0.062-0.119
				c0.092-0.631,0.099-1.217,0.064-1.82c0.041-0.096,0.079-0.174,0.122-0.27c-0.009,0.262-0.011,0.529-0.021,0.791
				c-0.029,0.902,1.4,1.1,1.611,0.219c0.428-1.801,0.566-3.627,0.716-5.453c0.759-1.67,1.404-3.381,1.939-5.129l0.143-0.139
				c0.285-0.275,0.293-0.613,0.154-0.881c0.085-0.308,0.56-0.609,0.638-0.916c0.11-0.127,0.569-0.293,0.569-0.504v-0.267
				c0-0.262-0.507-0.459-0.681-0.595c1.025-0.804,1.906-1.53,2.974-2.183C259.311,213.468,258.294,212.083,257.393,212.632z"/>
		</g>
	</g>
	<g id="shirt">
		<path fill="#FFFFFF" d="M287.566,249.09c0.6-4.553,0.83-9.125,0.951-13.701c-0.77-2.793-1.602-5.572-2.422-8.35
			c-0.01-0.037-0.02-0.074-0.027-0.111c-1.338-5.307-4.065-11.175-9.02-14.124c-4.531-2.7-8.652,4.229-4.143,6.913
			c2.695,1.605,4.172,5.652,5.068,8.701c0.916,3.096,1.772,7.992,0.573,10.643c-0.123,0.271-0.222,0.541-0.298,0.816
			c-2.137,3.111-4.307,6.199-6.781,9.066c-0.83,0.961-1.701,1.92-2.628,2.826c-0.485-0.65-1.039-1.232-1.604-1.699
			c-3.239-2.664-7.834-3.275-12.271-2.986c0.645-1.219,0.04-2.975-1.497-3.514c-0.304-0.105-0.606-0.217-0.909-0.324
			c0.108-0.467,0.34-0.959,0.738-1.482c1.03-1.354-0.135-3.035-1.472-3.529c-2.427-0.899-19.978-4.6-28.677-11.112
			c-9.906-7.416-10.963-17.633-11.594-16.608c-12.062,19.583,31.383,47.298,31.68,47.587c0.172,1.41,0.527,6.404,0.746,7.805
			c0.156,0.451,3.625,10.765,4.598,13.701c2.086,6.291,0.232,6.07,0.13,12.724c-0.017,0.993,1.662,1.713,1.003,2.133
			c0.036,0.336,1.184,3.56-0.421,2.492c1.425,2.473,1.248,3.416,2.876,5.728c0.424,0.192,0.852,0.379,1.277,0.561
			c1.578,0.67,3.19,1.281,4.828,1.791c0.639,0.195,1.277,0.398,1.932,0.539c0.689,0.154,0.338,0.086,0.546,0.102
			c3.563,0.289,7.753-0.135,11.403-1.512c0.651-0.803,1.283-1.617,1.892-2.449c2.735-3.74,4.938-7.68,6.586-11.842
			c0.804-4.932,1.133-16.268,1.188-16.758C282.766,264.9,286.482,257.305,287.566,249.09z"/>
		<path fill="#CFEFFF" d="M223.525,224.623"/>
		<g id="Layer_7">
			<g>
				<path opacity="0.3" fill="#ADC3C4" enable-background="new    " d="M277.988,262.168c-3.135,0.514-11.717,13.85-13.605,15.889
					c-2.018,2.178-4.717,3.019-7.31,2.738c-0.062-0.039-0.13-0.07-0.214-0.094c-1.541-0.439-2.9-1.207-4.135-2.17
					c-0.486-0.773-0.912-1.602-1.27-2.455c-0.221-0.717-0.35-1.445-0.371-2.172c0.025-0.453,0.057-0.904,0.087-1.355
					c0.021-0.127,0.032-0.256,0.06-0.383c0.03-0.143,0.025-0.27-0.008-0.387c0.084-1.271,0.152-2.541,0.105-3.812
					c-0.171-4.564-5.732-8.67-6.043-9.002c0,0.002-1.207-0.725-1.264-0.768c0.012,0.014,0.021,0.025,0.029,0.039
					c-0.296,0.094-0.564-0.375-0.566,0.016c-0.008,0.98,0.002,2.662,0.012,3.627c-0.094,3.057,0.383,6.061,1.527,8.873
					c0.338,1.498,0.735,2.979,1.248,4.441c0.063,0.176,0.168,0.309,0.295,0.397c0.396,1.111,0.863,2.201,1.433,3.263
					c0.034,0.065,0.075,0.119,0.124,0.166c0.312,2.805,0.704,5.598,2.064,8.106c0.237,0.438,0.771,0.479,1.143,0.263
					c2.13,3.032,5.846,5.098,9.497,6.146c1.944,0.967,4.2,1.397,6.952,0.973c4.683-0.721,13.681-3.438,12.646-9.569
					c0.255-0.604,0.427-1.271,0.492-2.006C281.339,278.252,283.404,261.279,277.988,262.168z M271.664,273.07
					c-0.068,0.01-0.139,0.021-0.211,0.031c-0.061-0.043-0.123-0.078-0.188-0.113c0.2-0.072,0.399-0.125,0.6-0.15
					C271.791,272.916,271.725,272.992,271.664,273.07z"/>
				<path fill="#B4D2DB" d="M244.021,258.197C243.454,257.551,243.236,257.615,244.021,258.197L244.021,258.197z"/>
			</g>
			<path fill="#B4D2DB" d="M251.044,277.186"/>
		</g>
	</g>
	<g id="jeans">
		<path fill="#22345B" d="M284.281,304.215c-0.758-7.805-3.282-11.488-2.258-17.76c0.729-4.461-2.993,3.641-12.832,5.088
			c-10.7,1.578-19.948-5.736-20.702-6.006c-2.152-0.773,0.491,1.209,0.088,5.826c-0.327,3.746-0.968,5.352-1.876,9.053
			c-1.905,7.775-3.607,25.184-4.471,33.27c-1.59,14.896-1.687,30.025-0.096,44.918c-0.148,0.513-0.322,0.912-0.484,0.808
			c-0.327-0.211-0.594-0.332-0.944-0.486c-0.172-0.073-0.376-0.098-0.584-0.079c-0.035-0.009-0.07-0.019-0.106-0.023
			c-0.56-0.053-0.953,0.121-1.246,0.424c-0.27,0.027-0.508,0.207-0.574,0.584c-0.04,0.225-0.168,0.455-0.202,0.688
			c-0.265,0.506-0.231,1.09-0.231,1.699v0.012l0.09,0.011c-0.153,2.01,0.621,3.803,1.748,5.313c0.174,0.457,1.252,1.502,1.371,1.604
			c0.385,0.42,3.113,3.178,4.401,3.766c0.317,0.257,0.632,0.363,0.916,0.347c0.155,0.035,0.313,0.041,0.47,0.016
			c0.121,0.02,0.245,0.01,0.376-0.033c2.11-0.246,3.896-3.703,2.374-6.416c1.713-13.559,4.738-26.377,8.693-39.064
			c1.475-4.733,2.805-9.756,4.352-14.631c0.51-1.36,4.573-8.711,4.485-8.524c0.86,16.95,2.651,46.229,3.356,55.553
			c-0.492-0.211-0.996-0.387-1.502-0.541c-0.371-0.112-1.035-0.024-1.627,0.201c-2.219,0.433-1.979,3.569-1.006,5.269
			c0.326,0.567,0.736,1.098,1.2,1.588c0.509,0.703,1.126,1.313,1.793,1.858c0.207,0.224,0.424,0.435,0.646,0.644
			c1.26,1.662,2.978,3.026,4.687,3.658c0.705,0.028,1.396-0.152,2.038-0.457c1.175-1.752,1.659-3.688,0.505-5.957
			c-0.194-0.384-0.293-0.763-0.312-1.119c-0.015-0.062-0.022-0.111-0.02-0.146c0.005-0.026,0.014-0.075,0.021-0.144
			c0.009-0.133,0.031-0.262,0.061-0.389c0.719-4.647,5.928-37.803,7.547-60.309C284.438,322.188,285.043,312.023,284.281,304.215z"
			/>
		<g id="Layer_6">
			<g>
				<path fill="#14223A" d="M274.127,384.977c-0.001,0.01-0.006,0.015-0.008,0.021C274.109,385.037,274.109,385.041,274.127,384.977
					z"/>
				<path fill="#14223A" d="M275.633,359.848c1.537-7.137,3.065-14.488,3.065-21.748c0.003-3.74-0.164-7.438-0.164-11.174
					c0-1.666,4.489-13.166,1.981-13.883c-2.826-0.807-11.758,9.809-13.611,10.777c0,2.551,0.494,6.152,0.492,8.691
					c-0.006,4.317,0.326,8.743,0.326,13.061c0,3.178,0.324,15.506,0.491,18.674c0.187,3.461,0.894,7.201,1.677,10.574
					c0.069,0.303,0.5,1.43,1.084,2.826c0.004,0.223,0.021,0.446,0.041,0.67c0.021,0.668,0.059,1.334,0.104,2.002
					c-0.062-0.023-0.113-0.053-0.187-0.066c-0.847-0.16-1.551-0.502-2.445-0.562c-0.731-0.049-1.24,0.722-0.848,1.205
					c1.184,1.465,2.594,5.914,8.066,6.535c0.602,0.07-1.684-17.146-1.582-17.793C275.031,363.945,274.506,365.07,275.633,359.848z"
					/>
			</g>
			<path fill="#14223A" d="M266.906,348.547"/>
			<path fill="#14223A" d="M273.68,385.211"/>
		</g>
	</g>
	<g id="hair">
		<g>
			<g>
				<path fill="#2D2B2A" d="M260.318,228.096c0.129,0.664,0.438,1.269,0.736,1.869c0.131,0.207,0.27,0.412,0.403,0.615
					c-0.174-0.332-0.274-0.688-0.304-1.061c0.115,1.307-0.092,2.643-0.116,3.951c-0.048,2.932,2.444,5.377,5.294,5.377
					c2.923,0,5.243-2.447,5.293-5.377c0.021-1.318,0.162-2.632,0.116-3.951c-0.032-0.912-0.13-1.89-0.425-2.752
					c-0.18-0.568-0.42-1.105-0.717-1.615c-0.07-0.105-0.141-0.211-0.211-0.314c-0.32-0.525-0.275-0.395,0.137,0.396
					c-0.562-2.877-3.885-4.49-6.51-3.756C261.088,222.299,259.757,225.223,260.318,228.096L260.318,228.096z"/>
			</g>
		</g>
		<g>
			<g>
				<path fill="#2D2B2A" d="M256.848,205.486c1.407,2.359,1.592,4.98,1.079,7.649c-0.325,1.693,2.226,2.415,2.552,0.716
					c0.646-3.373,0.438-6.732-1.348-9.721C258.248,202.649,255.959,204,256.848,205.486L256.848,205.486z"/>
			</g>
		</g>
		<g>
			<g>
				<g>
					<path fill="#2D2B2A" d="M259.404,205.525c8.66-2.989,17.91,9.918,20.314,16.661c2.41,6.763,0.818,14.644-3.859,19.855
						c-3.086,3.439-6.771,6.338-10.319,9.26c-1.095,0.9-3.587,2.277-3.228,4.037c0.123,0.602,0.713,0.959,1.274,0.988
						c0.894,0.043,2.166-0.5,2.692-1.209c0.666-0.902-0.27-1.938-1.143-2.023c-5.729-0.568-10.389-1.359-12.707-7.656
						c-2.445-6.633-0.104-14.926,2.17-21.246c2.223-6.182,7.034-10.844,9.064-17c0.543-1.648-2.012-2.35-2.551-0.714
						c-1.355,4.111-4.326,7.399-6.413,11.147c-2.034,3.649-3.406,7.668-4.479,11.701c-1.49,5.61-2.338,12.893,0.225,18.325
						c3.072,6.517,8.326,7.5,14.691,8.129c-0.381-0.674-0.761-1.35-1.143-2.021c-0.02,0.025,0.165,2.308,1.179,1.341
						c0.707-0.675,1.486-1.277,2.237-1.898c2.32-1.92,4.635-3.842,6.871-5.863c4.922-4.445,7.715-8.346,8.796-15.025
						c1.269-7.819-1.731-14.871-6.558-20.784c-3.836-4.693-11.297-10.848-17.819-8.597
						C257.096,203.486,257.785,206.083,259.404,205.525L259.404,205.525z"/>
				</g>
			</g>
			<path fill="#2D2B2A" d="M278.537,253.797c0.068-2.496,0.566-4.932,0.921-7.383c2.005-6.482,5.196-16.508,3.369-19.75
				c0.03-0.123-0.468,1.498-1.066,3.465c0.075-2.096-0.079-4.17-0.837-6.098c0.004-0.021,0.014-0.043,0.016-0.064
				c0.023-0.246-0.104-0.656-0.301-1.033c-0.31-0.896-0.75-1.731-1.168-2.584c-0.102-0.207-0.273-0.305-0.459-0.326
				c-0.134-0.356-0.273-0.713-0.432-1.061c-0.04-0.088-0.089-0.158-0.146-0.211c-0.75-3.838-2.859-7.583-6.131-9.875
				c-0.548-0.494-1.146-0.941-1.802-1.326c-0.646-0.878-1.499-1.65-2.593-2.277c-0.541-0.308-1.045-0.224-1.413,0.044
				c-0.246-0.236-0.486-0.476-0.742-0.709c-0.217-0.198-0.453-0.288-0.687-0.334c-0.049-0.095-0.112-0.176-0.162-0.272
				c-0.582-1.021-2.178-0.645-2.504,0.256c-0.51-0.123-1.062,0.021-1.371,0.613c-0.025,0.047-0.03,0.098-0.053,0.146
				c-0.117-0.069-0.258-0.062-0.391-0.09c0.352-0.657,0.204-1.627-0.743-1.958c-1.603-0.559-3.282,0.415-4.36,1.494
				c-0.104,0.103-0.174,0.225-0.236,0.348c-1.456,1.184-1.784,3.211-1.188,5.236c1.435,4.909-1.664,10.802-1.361,15.66
				c-1.385,3.344-0.903,5.715-0.959,8.479c-0.238,0.848-0.428,1.992-0.539,3.268c-0.305,0.225-0.561,0.535-0.729,0.953
				c-0.63,1.559-0.437,3.801,0.146,6.102c-0.221,0.082-0.379,0.287-0.34,0.615c0.174,1.457,0.633,2.828,1.293,4.119
				c0.426,1.123,1.009,2.174,1.695,3.158c1.651,2.967,4.119,5.606,6.779,7.748c0.045,0.018,0.088,0.037,0.132,0.057
				c3.375,3.975,15.603,8.928,16.921,8.121c1.398,0,2.268-2.686,2.354-3.969C279.561,262.646,278.486,255.58,278.537,253.797z"/>
		</g>
	</g>
	<g id="Layer_13">
	</g>
	<rect x="81.498" y="74.095" fill="none" width="211.005" height="58.667"/>
	<text transform="matrix(1 0 0 1 81.498 109.8643)" fill="#5D798C" font-family="'Raleway-ExtraBold'" font-size="49">Projects.</text>
</g>
</svg>
