<?xml version="1.0" encoding="utf-8"?>
<!-- Generator: Adobe Illustrator 16.0.0, SVG Export Plug-In . SVG Version: 6.00 Build 0)  -->
<!DOCTYPE svg PUBLIC "-//W3C//DTD SVG 1.1//EN" "http://www.w3.org/Graphics/SVG/1.1/DTD/svg11.dtd">
<svg version="1.1" xmlns="http://www.w3.org/2000/svg" xmlns:xlink="http://www.w3.org/1999/xlink" x="0px" y="0px" width="576px"
	 height="360px" viewBox="0 0 576 360" enable-background="new 0 0 576 360" xml:space="preserve">
<g id="Layer_2">
	<rect fill="#BFDFAE" width="576" height="360"/>
</g>
<g id="Layer_5">
	<polygon fill="#445E35" points="590,391.667 338.083,388.334 344,115 475,115 	"/>
</g>
<g id="Layer_7">
	<path fill="#333333" stroke="#7F7F7F" stroke-width="3" stroke-miterlimit="10" d="M430.5,369.311
		c0,6.18-5.148,11.189-11.499,11.189H86.499c-6.351,0-11.999-5.01-11.999-11.189V150.189c0-6.18,5.648-10.689,11.999-10.689h332.502
		c6.351,0,11.499,4.51,11.499,10.689V369.311z"/>
	<path fill="#FFFFFF" stroke="#7F7F7F" stroke-miterlimit="10" d="M424.5,354.072c0,5.326-4.593,9.428-10.566,9.428H101.126
		c-5.974,0-10.626-4.102-10.626-9.428V165.221c0-5.326,4.652-9.721,10.626-9.721h312.808c5.974,0,10.566,4.395,10.566,9.721V354.072
		z"/>
</g>
<g id="Layer_11">
	<g>
		<defs>
			<path id="SVGID_1_" d="M424,353.14c0,5.326-4.093,9.86-10.066,9.86H101.126C95.152,363,90,358.466,90,353.14V164.288
				c0-5.326,5.152-9.288,11.126-9.288h312.808c5.974,0,10.066,3.962,10.066,9.288V353.14z"/>
		</defs>
		<clipPath id="SVGID_2_">
			<use xlink:href="#SVGID_1_"  overflow="visible"/>
		</clipPath>
		<polyline clip-path="url(#SVGID_2_)" fill="#E7F2DC" points="88.44,394.552 91.53,-9.831 375.293,-7.777 372.203,396.605 		"/>
		<path clip-path="url(#SVGID_2_)" fill="#FFFFFF" d="M324.04,12.239c0.038-0.016,0.073-0.037,0.112-0.051
			C322.987,12.627,323.333,12.494,324.04,12.239z"/>
		<path clip-path="url(#SVGID_2_)" fill="#FFFFFF" d="M391.941,80.156c-0.983-0.006-1.87,0.107-2.665,0.314
			c-0.138-0.13-0.28-0.258-0.432-0.381c-1.405-1.138-3.524-1.945-5.56-1.882c-1.33,0.041-3.236,0.239-4.354,0.914
			c-0.903,0.546-1.565,0.881-2.157,1.432c-0.053-0.016-0.107-0.026-0.159-0.042c-0.237-0.083-0.472-0.163-0.709-0.245
			c-1.099-0.245-2.199-0.295-3.302-0.167c-0.284-0.515-0.659-0.987-0.942-1.509c-0.033-0.061-0.063-0.122-0.096-0.182
			c-0.454-0.624-1.027-1.159-1.692-1.618c-0.962-0.899-2.245-1.592-3.779-1.941c-4.073-0.925-8.645,1.009-9.729,4.322
			c-0.011,0.033-0.023,0.068-0.035,0.102c-0.902-0.083-1.722-0.047-2.795,0.168c-0.299,0.06-1.352,0.432-2.052,0.685
			c-0.447,0.184-0.854,0.433-1.243,0.699c-0.774,0.296-1.485,0.68-2.116,1.172c-1.481,1.164-2.331,2.769-2.344,4.43
			c0,0.053,0.007,0.105,0.009,0.158c-0.002,0.053-0.011,0.104-0.011,0.157c-0.014,1.661,0.812,3.278,2.274,4.464
			c0.286,0.232,0.614,0.449,0.959,0.652c0.381,0.272,0.826,0.537,1.461,0.901c1.204,0.692,2.903,0.881,4.317,0.965
			c0.704,0.003,1.385-0.063,2.044-0.199c0.611,0.663,1.376,1.231,2.244,1.573c1.073,0.423,2.219,0.884,3.411,1.067
			c2.027,0.308,3.781,0.401,5.808-0.052c1.987-0.446,3.606-1.472,4.631-2.789c0.341,0.122,0.69,0.231,1.051,0.313
			c1.279,0.292,2.786,0.325,4.157,0.057c1.359,0.916,3.103,1.479,4.986,1.493l3.188,0.023c2.548,0.018,4.849-0.977,6.308-2.5
			C402.006,92.156,401.842,80.228,391.941,80.156z"/>
		<path clip-path="url(#SVGID_2_)" fill="#FFFFFF" d="M62.842,332.817c1.205,0.692,2.903,0.881,4.317,0.966
			c0.705,0.003,1.385-0.062,2.044-0.201c0.611,0.664,1.375,1.232,2.244,1.574c1.074,0.423,2.218,0.885,3.412,1.066
			c2.026,0.308,3.781,0.402,5.807-0.052c1.988-0.444,3.606-1.472,4.631-2.789c0.341,0.123,0.689,0.233,1.051,0.316
			c1.279,0.288,2.786,0.324,4.156,0.055c1.36,0.918,3.104,1.48,4.987,1.494l3.187,0.022c2.548,0.019,4.848-0.978,6.308-2.5
			c9.389-0.555,9.226-12.481-0.675-12.554c-0.984-0.007-1.871,0.106-2.666,0.312c-0.137-0.13-0.28-0.26-0.431-0.381
			c-1.406-1.139-3.526-1.944-5.56-1.88c-1.33,0.038-3.236,0.235-4.354,0.911c-0.903,0.547-1.566,0.881-2.158,1.433
			c-0.052-0.018-0.106-0.026-0.158-0.044c-0.236-0.082-0.472-0.161-0.708-0.243c-1.1-0.245-2.2-0.295-3.303-0.167
			c-0.283-0.515-0.658-0.987-0.942-1.51c-0.032-0.061-0.063-0.12-0.095-0.182c-0.455-0.625-1.027-1.158-1.693-1.618
			c-0.962-0.899-2.244-1.594-3.779-1.939c-4.073-0.926-8.645,1.007-9.73,4.322c-0.011,0.033-0.022,0.066-0.034,0.1
			c-0.904-0.083-1.723-0.047-2.796,0.169c-0.299,0.06-1.352,0.433-2.051,0.685"/>
		<path clip-path="url(#SVGID_2_)" fill="#FFFFFF" d="M149.274,316.232c-0.983-0.008-1.871,0.108-2.666,0.314
			c-0.137-0.131-0.28-0.259-0.431-0.381c-1.405-1.14-3.525-1.945-5.56-1.883c-1.33,0.041-3.236,0.238-4.354,0.913
			c-0.904,0.547-1.566,0.881-2.159,1.433c-0.052-0.017-0.106-0.026-0.158-0.043c-0.237-0.082-0.473-0.161-0.708-0.243
			c-1.1-0.245-2.201-0.295-3.303-0.169c-0.284-0.514-0.658-0.986-0.942-1.509c-0.032-0.06-0.063-0.12-0.095-0.18
			c-0.456-0.626-1.027-1.159-1.694-1.619c-0.961-0.9-2.244-1.594-3.778-1.939c-4.073-0.927-8.645,1.008-9.73,4.322
			c-0.011,0.032-0.022,0.067-0.033,0.1c-0.904-0.083-1.723-0.047-2.797,0.169c-0.299,0.059-1.352,0.433-2.051,0.683
			c-0.447,0.185-0.853,0.435-1.244,0.698c-0.774,0.297-1.485,0.681-2.117,1.173c-1.48,1.164-2.33,2.77-2.343,4.433
			c0,0.053,0.008,0.104,0.009,0.156c-0.002,0.053-0.011,0.104-0.011,0.156c-0.013,1.661,0.812,3.279,2.274,4.465
			c0.287,0.233,0.614,0.449,0.959,0.653c0.38,0.27,0.826,0.536,1.46,0.901c1.205,0.691,2.903,0.88,4.317,0.965
			c0.704,0.004,1.386-0.063,2.044-0.199c0.611,0.663,1.375,1.23,2.244,1.572c1.074,0.424,2.218,0.885,3.413,1.067
			c2.026,0.307,3.78,0.401,5.807-0.051c1.988-0.444,3.606-1.474,4.631-2.79c0.341,0.124,0.689,0.232,1.051,0.315
			c1.279,0.29,2.786,0.324,4.156,0.056c1.36,0.915,3.104,1.479,4.987,1.493l3.188,0.023c2.548,0.018,4.848-0.978,6.308-2.503
			C159.338,328.231,159.175,316.305,149.274,316.232z"/>
		<path clip-path="url(#SVGID_2_)" fill="#FFFFFF" d="M176.054,327.92c-0.984-0.008-1.871,0.106-2.666,0.313
			c-0.137-0.13-0.279-0.259-0.43-0.382c-1.406-1.138-3.526-1.943-5.561-1.881c-1.33,0.041-3.236,0.239-4.354,0.913
			c-0.904,0.547-1.567,0.881-2.159,1.433c-0.051-0.018-0.106-0.026-0.158-0.044c-0.237-0.081-0.473-0.161-0.709-0.243
			c-1.1-0.244-2.2-0.295-3.303-0.167c-0.284-0.514-0.658-0.987-0.942-1.509c-0.032-0.062-0.062-0.121-0.094-0.184
			c-0.456-0.623-1.027-1.157-1.694-1.617c-0.961-0.899-2.244-1.593-3.778-1.941c-4.073-0.924-8.646,1.011-9.729,4.323
			c-0.012,0.034-0.023,0.067-0.034,0.102c-0.904-0.084-1.722-0.047-2.796,0.169c-0.299,0.058-1.352,0.431-2.051,0.683
			c-0.447,0.185-0.854,0.435-1.243,0.699c-0.774,0.296-1.486,0.68-2.118,1.172c-1.48,1.164-2.33,2.77-2.342,4.43
			c0,0.054,0.008,0.106,0.009,0.159c-0.002,0.051-0.011,0.104-0.011,0.156c-0.013,1.661,0.812,3.279,2.275,4.465
			c0.286,0.233,0.614,0.448,0.959,0.653c0.38,0.27,0.826,0.536,1.461,0.9c1.204,0.692,2.902,0.881,4.317,0.966
			c0.704,0.002,1.385-0.063,2.044-0.199c0.612,0.662,1.375,1.231,2.244,1.572c1.073,0.424,2.218,0.885,3.412,1.067
			c2.026,0.307,3.781,0.402,5.808-0.052c1.987-0.445,3.606-1.473,4.631-2.789c0.341,0.123,0.689,0.232,1.051,0.313
			c1.279,0.293,2.786,0.326,4.156,0.058c1.362,0.915,3.104,1.478,4.988,1.491l3.187,0.023c2.548,0.018,4.848-0.976,6.308-2.501
			C186.118,339.918,185.954,327.991,176.054,327.92z"/>
		<path clip-path="url(#SVGID_2_)" fill="#FFFFFF" d="M314.683,253.812c-0.982-0.007-1.87,0.107-2.665,0.313
			c-0.138-0.132-0.281-0.258-0.431-0.381c-1.406-1.138-3.526-1.945-5.561-1.882c-1.329,0.041-3.235,0.239-4.354,0.914
			c-0.905,0.545-1.567,0.879-2.159,1.43c-0.053-0.015-0.106-0.026-0.159-0.041c-0.234-0.082-0.472-0.164-0.707-0.245
			c-1.101-0.245-2.201-0.295-3.304-0.166c-0.284-0.516-0.658-0.988-0.941-1.509c-0.031-0.062-0.063-0.123-0.095-0.184
			c-0.456-0.623-1.028-1.159-1.694-1.617c-0.962-0.898-2.244-1.593-3.778-1.941c-4.073-0.925-8.645,1.01-9.729,4.323
			c-0.011,0.032-0.023,0.067-0.034,0.1c-0.905-0.083-1.723-0.045-2.797,0.169c-0.299,0.06-1.352,0.434-2.052,0.685
			c-0.447,0.185-0.853,0.433-1.243,0.698c-0.774,0.297-1.485,0.681-2.117,1.174c-1.48,1.162-2.33,2.768-2.343,4.43
			c0,0.053,0.008,0.105,0.009,0.158c-0.002,0.053-0.011,0.104-0.012,0.157c-0.013,1.661,0.812,3.279,2.275,4.462
			c0.287,0.234,0.614,0.45,0.959,0.653c0.38,0.272,0.825,0.538,1.46,0.901c1.205,0.691,2.904,0.881,4.318,0.966
			c0.704,0.004,1.385-0.063,2.043-0.2c0.612,0.663,1.376,1.231,2.245,1.575c1.073,0.422,2.218,0.882,3.411,1.066
			c2.026,0.309,3.781,0.4,5.809-0.052c1.987-0.445,3.606-1.474,4.63-2.789c0.341,0.121,0.689,0.231,1.051,0.313
			c1.279,0.291,2.786,0.325,4.157,0.057c1.36,0.916,3.104,1.479,4.987,1.492l3.186,0.023c2.55,0.019,4.85-0.976,6.31-2.501
			C324.748,265.811,324.584,253.884,314.683,253.812z"/>
		<path clip-path="url(#SVGID_2_)" fill="#FFFFFF" d="M267.679,390.568c9.389-0.556,9.225-12.482-0.675-12.555
			c-0.984-0.007-1.871,0.107-2.667,0.314c-0.136-0.132-0.279-0.258-0.43-0.382c-1.405-1.138-3.525-1.942-5.56-1.881
			c-1.33,0.041-3.237,0.239-4.354,0.913c-0.904,0.546-1.566,0.882-2.159,1.431c-0.053-0.016-0.107-0.024-0.158-0.042
			c-0.237-0.081-0.473-0.163-0.709-0.243c-1.1-0.246-2.2-0.294-3.302-0.167c-0.285-0.516-0.659-0.988-0.943-1.509
			c-0.031-0.062-0.062-0.121-0.094-0.184c-0.456-0.624-1.028-1.157-1.694-1.617c-0.961-0.899-2.244-1.593-3.779-1.941
			c-4.073-0.923-8.644,1.009-9.729,4.323c-0.011,0.032-0.023,0.067-0.034,0.102c-0.904-0.084-1.723-0.047-2.796,0.167
			c-0.299,0.06-1.352,0.433-2.051,0.685c-0.447,0.185-0.854,0.435-1.243,0.7c-0.775,0.296-1.485,0.679-2.118,1.171
			c-1.48,1.165-2.33,2.77-2.343,4.431"/>
		<path clip-path="url(#SVGID_2_)" fill="#FFFFFF" d="M375.612,205.337c-0.984-0.008-1.871,0.106-2.666,0.314
			c-0.138-0.132-0.28-0.259-0.431-0.381c-1.405-1.138-3.525-1.945-5.56-1.884c-1.331,0.041-3.235,0.239-4.355,0.914
			c-0.902,0.547-1.565,0.881-2.157,1.432c-0.053-0.015-0.106-0.026-0.158-0.043c-0.237-0.08-0.473-0.162-0.709-0.243
			c-1.099-0.245-2.2-0.296-3.303-0.167c-0.284-0.515-0.659-0.988-0.942-1.509c-0.032-0.062-0.063-0.122-0.095-0.183
			c-0.455-0.624-1.027-1.158-1.693-1.618c-0.962-0.897-2.244-1.592-3.778-1.941c-4.073-0.925-8.646,1.01-9.729,4.321
			c-0.012,0.034-0.022,0.069-0.035,0.103c-0.903-0.081-1.722-0.046-2.796,0.17c-0.299,0.059-1.352,0.43-2.051,0.684
			c-0.447,0.184-0.854,0.433-1.243,0.697c-0.774,0.297-1.485,0.68-2.118,1.175c-1.479,1.163-2.33,2.77-2.341,4.428
			c-0.002,0.054,0.006,0.106,0.007,0.159c-0.002,0.053-0.011,0.104-0.011,0.156c-0.014,1.663,0.812,3.28,2.275,4.464
			c0.286,0.233,0.613,0.45,0.958,0.653c0.381,0.272,0.826,0.537,1.462,0.901c1.203,0.691,2.902,0.881,4.316,0.966
			c0.704,0.003,1.386-0.064,2.044-0.2c0.611,0.663,1.376,1.231,2.244,1.572c1.074,0.424,2.219,0.886,3.413,1.067
			c2.025,0.31,3.779,0.402,5.806-0.051c1.989-0.444,3.606-1.473,4.632-2.789c0.34,0.122,0.689,0.231,1.05,0.312
			c1.28,0.292,2.787,0.327,4.157,0.058c1.36,0.915,3.103,1.479,4.986,1.493l3.188,0.023c2.549,0.018,4.849-0.978,6.308-2.501
			C385.676,217.336,385.514,205.407,375.612,205.337z"/>
		<path clip-path="url(#SVGID_2_)" fill="#FFFFFF" d="M339.813,108.737c-1.097-0.167-2.12-0.293-3.18-0.304
			c-0.4-0.513-0.889-0.996-1.49-1.427c-3.939-2.824-8.886-2.402-12.858-0.266c-1.783,0.093-3.568,0.165-5.354,0.213
			c-0.038-0.001-0.077-0.001-0.116-0.003c-0.127-1.499-0.922-2.934-2.251-4.011c-2.966-2.402-8.162-2.54-11.147-0.081
			c-0.652,0.538-1.334,1.219-1.838,1.95c-0.29-0.025-0.584-0.042-0.88-0.038c-0.153,0.002-0.298,0.008-0.444,0.012
			c-1.027-0.088-1.736-0.032-3.29,0.13c-1.581,0.164-2.824,0.974-4.01,1.73c-0.971,0.62-1.529,1.459-2,2.337
			c-2.91,1.611-4.729,4.346-3.993,7.782c0.825,3.848,7.139,5.952,11.438,6.042c1.229,0.025,2.431-0.059,3.622-0.194
			c2.753,0.84,5.461,1.869,8.325,2.364c4.498,0.777,8.611,0.295,11.601-1.435c0.237,0.048,0.477,0.096,0.716,0.142
			c2.925,0.566,5.947,0.998,8.955,1.098c7.758,0.258,13.483-3.805,13.937-9.936C345.745,112.254,343.091,109.237,339.813,108.737z"
			/>
		<path clip-path="url(#SVGID_2_)" fill="#FFFFFF" d="M203.47,14.924c-1.096-0.167-2.12-0.294-3.18-0.305
			c-0.401-0.512-0.889-0.996-1.49-1.427c-3.94-2.824-8.886-2.402-12.858-0.266c-1.784,0.092-3.568,0.165-5.354,0.213
			c-0.04,0-0.078,0-0.118-0.001c-0.125-1.5-0.92-2.935-2.249-4.012c-2.965-2.402-8.163-2.539-11.148-0.081
			c-0.653,0.538-1.334,1.219-1.838,1.951c-0.291-0.027-0.583-0.042-0.879-0.039c-0.154,0.001-0.298,0.008-0.445,0.013
			c-1.027-0.089-1.737-0.032-3.29,0.129c-1.582,0.165-2.825,0.974-4.009,1.731c-0.971,0.619-1.53,1.459-2,2.337
			c-2.91,1.611-4.73,4.346-3.993,7.782c0.825,3.848,7.138,5.951,11.437,6.042c1.229,0.026,2.432-0.058,3.624-0.194
			c2.751,0.839,5.459,1.868,8.324,2.364c4.499,0.777,8.612,0.295,11.6-1.434c0.239,0.047,0.478,0.095,0.717,0.142
			c2.925,0.565,5.949,0.997,8.955,1.097c7.758,0.258,13.484-3.805,13.937-9.936C209.402,18.441,206.747,15.424,203.47,14.924z"/>
		<path clip-path="url(#SVGID_2_)" fill="#FFFFFF" d="M136.714,82.948c-1.127-2.024-3.467-3.544-6.87-3.411
			c-1.416,0.055-2.809,0.169-4.188,0.325c-0.118-0.005-0.235-0.007-0.353-0.016c-3.146-3.64-8.23-4.706-13.635-4.775
			c-0.229-0.256-0.465-0.507-0.711-0.75c-3.113-3.062-7.699-4.484-12.532-3.95c-6.268,0.693-8.439,5.899-9.184,10.131
			c-0.281,1.591,0.577,3.071,1.957,4.204c-1.918,0.709-3.448,2.009-4.101,3.857c-1.102,3.118,1.236,7.071,5.446,7.776
			c6.594,1.105,12.887,0.626,19.367-0.693c0.265-0.054,0.527-0.115,0.791-0.172c0.474,0.182,0.981,0.317,1.523,0.393
			c5.238,0.737,10.591,0.958,15.899,0.858c5.854-0.11,12.332-0.6,15.893-4.775C150.569,86.608,142.904,81.484,136.714,82.948z"/>
		<path clip-path="url(#SVGID_2_)" fill="#FFFFFF" d="M237.039,385.848c-3.145-3.641-8.229-4.706-13.635-4.775
			c-0.23-0.257-0.465-0.509-0.71-0.75c-3.113-3.062-7.7-4.485-12.532-3.95c-6.269,0.692-8.439,5.9-9.185,10.131"/>
		<path clip-path="url(#SVGID_2_)" fill="#FFFFFF" d="M163.378,195.091c-1.126-2.023-3.466-3.543-6.869-3.409
			c-1.416,0.056-2.809,0.169-4.189,0.325c-0.118-0.007-0.235-0.008-0.353-0.018c-3.146-3.64-8.23-4.706-13.635-4.776
			c-0.229-0.255-0.465-0.507-0.711-0.749c-3.112-3.062-7.699-4.483-12.531-3.95c-6.269,0.692-8.439,5.899-9.185,10.13
			c-0.281,1.592,0.577,3.072,1.957,4.205c-1.918,0.71-3.448,2.01-4.101,3.856c-1.102,3.12,1.236,7.07,5.447,7.776
			c6.594,1.104,12.887,0.627,19.367-0.693c0.265-0.053,0.527-0.115,0.791-0.172c0.474,0.183,0.982,0.317,1.523,0.394
			c5.238,0.738,10.591,0.958,15.899,0.858c5.854-0.11,12.332-0.601,15.892-4.776C177.233,198.752,169.568,193.627,163.378,195.091z"
			/>
		<path clip-path="url(#SVGID_2_)" fill="#FFFFFF" d="M371.43,346.726c-1.126-2.023-3.467-3.545-6.868-3.411
			c-1.416,0.056-2.811,0.171-4.189,0.327c-0.118-0.007-0.235-0.007-0.353-0.018c-3.146-3.64-8.23-4.706-13.635-4.775
			c-0.229-0.256-0.466-0.508-0.712-0.75c-3.112-3.062-7.699-4.482-12.531-3.95c-6.27,0.692-8.438,5.9-9.185,10.131
			c-0.28,1.593,0.577,3.071,1.956,4.203c-1.918,0.711-3.449,2.012-4.101,3.858c-1.103,3.117,1.236,7.069,5.446,7.776
			c6.595,1.104,12.887,0.624,19.368-0.694c0.264-0.053,0.526-0.114,0.79-0.171c0.474,0.179,0.982,0.316,1.522,0.392
			c5.238,0.736,10.592,0.958,15.9,0.857c5.854-0.108,12.331-0.599,15.893-4.774C385.286,350.386,377.619,345.263,371.43,346.726z"/>
		<path clip-path="url(#SVGID_2_)" fill="#84987A" d="M522.665,502.412c0.81-105.937-78.142-192.392-176.343-193.102
			c-13.487-0.098-26.631,1.441-39.281,4.425c-2.965,0.05-5.732,0.843-8.254,2.03c-2.612,0.479-6.199,1.196-8.026,2.682
			c-71.222,24.633-123.069,96.358-123.719,181.392"/>
		<path clip-path="url(#SVGID_2_)" fill="#BEDEAE" d="M371.537,474.273c0.81-105.938-78.141-192.389-176.342-193.101
			c-13.487-0.097-26.631,1.443-39.281,4.424c-2.964,0.049-5.731,0.842-8.253,2.032c-2.612,0.479-6.2,1.194-8.026,2.68
			C68.412,314.943,16.564,386.667,15.915,471.7"/>
		<path clip-path="url(#SVGID_2_)" fill="#84987A" d="M521.877,502.405c0.81-105.937-78.142-192.391-176.344-193.102
			c-13.486-0.098-26.63,1.443-39.28,4.426c-2.964,0.05-5.732,0.842-8.254,2.031c-2.612,0.478-6.199,1.195-8.026,2.681
			c-71.222,24.632-123.069,96.359-123.719,181.391"/>
		<path clip-path="url(#SVGID_2_)" fill="#BEDEAE" d="M370.75,474.268c0.81-105.938-78.143-192.389-176.343-193.1
			c-13.488-0.098-26.631,1.443-39.281,4.424c-2.964,0.049-5.731,0.841-8.253,2.032c-2.612,0.479-6.199,1.193-8.026,2.68
			c-71.221,24.633-123.07,96.357-123.72,181.391"/>
		<path opacity="0.7" clip-path="url(#SVGID_2_)" fill="#A5B29D" d="M164.562,311.916c-1.324-1.307-1.98-2.129-3.346-2.374
			l0.002-0.312c0.007-0.987-1.252-1.846-2.483-1.533c-0.121,0.03-0.245,0.062-0.368,0.093c-0.252-0.47-0.667-0.893-1.259-1.205
			c-0.506-0.268-1.124-0.279-1.665-0.119c-0.313-0.371-0.846-0.628-1.408-0.706c-0.282-0.988-1.505-1.755-2.842-1.104
			c-0.354,0.172-0.712,0.336-1.071,0.501c-0.043-0.319-0.193-0.634-0.479-0.895c-1.109-1.015-2.019-2.154-3.129-3.168
			c-0.552-0.504-1.685-0.632-2.386-0.263c-0.018,0.009-0.035,0.018-0.053,0.029c-0.032,0.014-0.063,0.031-0.094,0.05
			c-0.753,0.398-1.472,0.807-2.156,1.229c-4.287-1.025-8.62-2.149-12.241-3.93c-2.172-1.07-4.173,1.637-2.011,2.699
			c3.301,1.625,7.135,2.736,11.015,3.71c-0.548,0.537-1.056,1.115-1.515,1.755c-0.621,0.864-0.087,1.76,0.785,2.161
			c0.579,0.76,1.95,1.167,3.079,0.401c0.52-0.351,1.071-0.663,1.633-0.962c0.241,0.358,0.647,0.646,1.181,0.757
			c0.042,0.124,0.084,0.249,0.127,0.373c0.213,1.369,1.949,2.083,3.355,1.136c0.432-0.291,0.891-0.553,1.366-0.797
			c0.2,0.631,0.969,1.161,1.809,1.253c-0.066,0.182-0.125,0.365-0.169,0.553c-0.356,1.478,1.793,2.729,3.281,1.553
			c0.613-0.485,1.204-0.973,1.778-1.469c0.227,0.062,0.484,0.091,0.781,0.062c0.409-0.041,0.809-0.095,1.206-0.155
			c0.106,0.996,1.278,1.541,2.462,1.382c0.923-0.123,1.524,1.017,2.013,1.497C163.361,315.698,166.15,313.479,164.562,311.916z"/>
		<path opacity="0.7" clip-path="url(#SVGID_2_)" fill="#A5B29D" d="M185.406,306.723c-0.808-1.186-1.811-1.938-3.081-2.522
			c0.214-0.321,0.454-0.632,0.742-0.938c0.755-0.8,0.204-1.677-0.701-2.096c0.341-0.88,0.643-1.774,0.936-2.681
			c0.437-1.345-1.34-2.306-2.668-1.888c-0.691-0.836-2.309-1.12-3.246-0.033c-0.129-0.046-0.26-0.095-0.39-0.141
			c0.157-0.873-0.546-1.705-1.548-1.856c0.442-1.591-2.215-2.605-3.594-1.149c-0.123,0.13-0.256,0.253-0.384,0.377
			c-0.209-0.604-0.826-0.989-1.522-1.083c0.465-1.356-1.388-2.408-2.886-1.779c-0.923,0.387-1.828,0.802-2.697,1.258
			c-4.242-1.195-8.58-2.078-12.854-2.214c-2.542-0.082-2.559,3.062-0.024,3.145c1.265,0.04,2.545,0.162,3.829,0.337
			c0.146,0.283,0.372,0.543,0.686,0.737c2.714,1.695,5.637,3.147,8.49,4.682c0.03,0.115,0.076,0.223,0.137,0.326
			c-0.722,1.509,1.561,2.97,3.169,1.75c0.051-0.038,0.103-0.076,0.154-0.113c0.203,0.122,0.408,0.24,0.609,0.365
			c0.615,0.385,1.274,0.355,1.813,0.106c0.041,0.033,0.079,0.067,0.119,0.101c-0.331,0.693-0.683,1.379-1.08,2.052
			c-0.922,1.563,1.384,3.223,3.08,1.927c0.217-0.165,0.433-0.327,0.648-0.491c0.047,1.38,2.366,2.288,3.5,0.945
			c0.549,0.552,1.544,0.83,2.374,0.542c0.074,0.03,0.147,0.062,0.223,0.086c1.354,0.418,2.065,0.809,2.75,1.813
			C183.207,310.068,186.623,308.509,185.406,306.723z"/>
		<path opacity="0.7" clip-path="url(#SVGID_2_)" fill="#A5B29D" d="M202.923,294.336c-1.627-0.918-3.046-1.733-4.709-2.257
			c0.042-0.133,0.086-0.265,0.118-0.403c0.304-1.334-1.263-2.486-2.881-1.795c-0.062,0.024-0.126,0.044-0.188,0.071l0.009-1.231
			c0.009-1.127-1.178-1.657-2.314-1.502c-0.224-0.958-1.799-1.707-2.996-1.151c-0.242,0.113-0.464,0.24-0.695,0.36
			c-2.945-1.115-6.121-2.061-8.928-2.547c-1.11-0.191-2.674,0.417-2.506,1.499c0.099,0.637,0.359,1.104,1.088,1.435
			c0.327,0.15,0.646,0.208,0.952,0.212c1.909,0.37,3.953,0.933,5.953,1.615c-0.341,0.254-0.679,0.514-1.017,0.777
			c-1.45,1.132,0.009,2.981,1.896,2.642c0.076-0.013,0.149-0.033,0.226-0.05c0.26,0.365,0.683,0.642,1.222,0.728
			c-0.002,0.111-0.006,0.221-0.008,0.333c-0.019,1.222,1.656,1.934,2.955,1.378c0.871-0.37,1.789-0.601,2.714-0.813
			c0.25,0.558,0.902,0.977,1.807,1.063c2.044,0.194,3.69,1.434,5.294,2.338C202.998,298.212,204.987,295.5,202.923,294.336z"/>
		<path clip-path="url(#SVGID_2_)" fill="#46563C" d="M152.989,279.126c-3.382-2.154-6.901-4.153-10.463-6.107
			c0.024-0.004,0.048-0.012,0.073-0.017c1.792,0.149,3.582,0.312,5.363,0.54c2.069,0.265,3.639-1.921,1.54-2.861
			c-3.726-1.674-6.213-4.205-7.847-7.244c1.254,0.024,2.51,0.066,3.754,0.081c1.855,0.022,2.438-1.655,1.414-2.675
			c-3.2-3.187-6.696-6.16-9.076-9.812c-0.137-0.208-0.324-0.371-0.541-0.493c-0.068-1.644-3.316-2.236-3.843-0.419
			c-1.355,4.674-4.306,9.152-6.999,13.41c-0.792,1.254,0.956,3.2,2.68,2.17c1.376-0.821,2.847-1.351,4.375-1.695
			c-1.677,3.582-3.619,7.086-6.348,10.222c-0.927,1.066,0.605,2.846,2.208,2.326c1.818-0.591,3.658-1.119,5.509-1.62
			c-1.178,3.605-3.639,7.049-6.222,9.997c-1.053,1.202,0.646,2.599,2.208,2.325c2.966-0.516,5.93-1.099,8.849-1.791
			c0.528,1.288,0.841,2.681,1.918,3.753c1.576,1.565,4.476,0.566,6.244-0.109c0.599-0.229,1-0.833,0.986-1.352
			c-0.043-1.553-0.625-3.072-1.401-4.496c0.905-0.311,1.805-0.632,2.69-0.978c0.683-0.164,1.364-0.338,2.04-0.533
			C153.324,281.394,154.262,279.938,152.989,279.126z"/>
		<path clip-path="url(#SVGID_2_)" fill="#46563C" d="M125.825,289.1c0.158-0.692-0.287-1.447-1.358-1.778
			c-2.907-0.895-5.562-2.23-8.463-3.147c1.491-0.509,3.007-0.979,4.557-1.397c1.394-0.374,1.962-1.724,0.889-2.619
			c-2.155-1.804-4.143-3.702-6.438-5.38c0.634-0.071,1.276-0.127,1.933-0.146c1.687-0.047,2.662-1.662,1.414-2.675
			c-3.011-2.442-6-4.885-8.613-7.609c-0.299-0.312-0.688-0.462-1.092-0.494c-0.67-1.645-4.13-1.574-3.848,0.312
			c0.613,4.088-0.756,8.104-2.973,11.764c-0.822,1.356,0.861,3.008,2.68,2.17c1.038-0.476,2.083-0.933,3.143-1.354
			c-0.633,3.076-1.461,6.119-2.943,9.015c-0.681,1.332,1.504,2.432,2.881,1.798c1.22-0.562,2.451-1.098,3.696-1.609
			c-0.979,3.632-3.308,6.883-5.669,10.136c-1.13,1.556,1.458,3.159,3.081,1.927c2.212-1.681,4.595-3.11,7.13-4.344
			c0.654,1.678,1.392,3.331,2.184,4.976c0.604,1.256,2.613,1.618,3.599,0.401c2.279-2.812,1.208-4.86-0.53-7.572
			c0.6-0.217,1.206-0.427,1.82-0.628c0.163,0.043,0.327,0.08,0.487,0.131C124.923,291.446,126.064,290.16,125.825,289.1z"/>
		<path clip-path="url(#SVGID_2_)" fill="#5C6D52" d="M179.842,272.401c-2.155-1.681-4.477-3.215-6.684-4.852
			c0.185-0.046,0.37-0.095,0.554-0.142c0.383,0.157,0.762,0.322,1.124,0.511c0.355,0.213,0.709,0.429,1.071,0.637
			c1.816,1.032,4.15-1.333,2.407-2.453c-0.132-0.085-0.272-0.159-0.409-0.236c0.004-0.005,0.008-0.009,0.012-0.013
			c-0.215-0.121-0.422-0.252-0.635-0.378c0.042-0.302-0.019-0.626-0.224-0.95c-1.749-2.769-3.706-5.448-5.455-8.217
			c-0.149-0.235-0.352-0.414-0.587-0.541c-0.157-1.385-2.662-2.265-3.594-0.748c-2.66,4.335-4.646,8.978-6.608,13.537
			c-0.583,1.356,1.441,2.422,2.881,1.796c1.156-0.502,2.354-0.907,3.57-1.271c-1.303,2.303-2.951,4.452-5.208,6.336
			c-1.299,1.086-0.06,3.14,1.897,2.643c1.835-0.466,3.677-0.911,5.53-1.32c0.231,1.811,0.757,3.531,1.475,5.303
			c0.271,0.673,0.981,1.162,1.891,1.169l1.576,0.011c1.309,0.01,2.211-0.983,1.916-1.975c-0.389-1.303-0.775-2.596-1.217-3.872
			c0.064-0.369,0.144-0.733,0.237-1.093c0.234-0.194,0.389-0.477,0.446-0.777c1.044-0.175,2.091-0.339,3.146-0.481
			C180.434,274.824,180.836,273.179,179.842,272.401z"/>
		<path clip-path="url(#SVGID_2_)" fill="#FFFFFF" d="M145.167,19.174c-0.056,7.293-8.04,13.149-17.836,13.079
			c-9.793-0.071-17.689-6.042-17.634-13.335s8.042-13.15,17.836-13.079C137.329,5.91,145.223,11.88,145.167,19.174z"/>
	</g>
</g>
<g id="Layer_3">
	
		<rect x="223.992" y="40.208" transform="matrix(0.9999 -0.016 0.016 0.9999 -0.9627 4.6085)" fill="none" width="128.016" height="44.718"/>
	
		<text transform="matrix(0.9999 -0.014 0.014 0.9999 224.2163 77.1152)" fill="#51AE59" font-family="'AsapCondensed-Medium'" font-size="48">ReLeaf</text>
	<g>
		<path fill="#FFFFFF" d="M280,427V116.778c0-9.9,7.752-17.778,17.652-17.778h160.062c9.9,0,18.286,7.878,18.286,17.778V427"/>
	</g>
	<rect x="291" y="121" fill="#9E9E9E" width="174" height="278"/>
	<path fill="none" stroke="#9E9E9E" stroke-miterlimit="10" d="M376.032,324.5c0,2.944-2.312,5-5.163,5h-18.07
		c-2.852,0-5.163-2.056-5.163-5l0,0c0-2.944,2.312-5,5.163-5h18.07C373.721,319.5,376.032,321.556,376.032,324.5L376.032,324.5z"/>
	<ellipse fill="#606060" cx="358.463" cy="109.871" rx="3.09" ry="2.467"/>
	<path fill="#878787" d="M407.499,110c0,0.934-1.152,2-2.574,2h-33.463c-1.422,0-2.574-1.066-2.574-2l0,0c0-0.934,1.152-2,2.574-2
		h33.463C406.347,108,407.499,109.066,407.499,110L407.499,110z"/>
	<path fill="#FFFFFF" d="M281,175.462c0-1.094-0.372-1.98-1.5-1.98l0,0c-1.128,0-1.5,0.887-1.5,1.98v53.487
		c0,1.095,0.372,1.981,1.5,1.981l0,0c1.128,0,1.5-0.887,1.5-1.981V175.462z"/>
	<path fill="#FFFFFF" d="M478,174.496c0-0.56-0.373-1.015-1.5-1.015l0,0c-1.127,0-1.5,0.455-1.5,1.015v27.381
		c0,0.561,0.373,1.015,1.5,1.015l0,0c1.127,0,1.5-0.454,1.5-1.015V174.496z"/>
	<polygon opacity="0.2" fill="#FFFAFA" points="291,398.766 291,121 465.417,121 	"/>
</g>
<g id="Layer_4">
	<g>
		<defs>
			<rect id="SVGID_3_" x="291" y="121" width="174" height="278"/>
		</defs>
		<clipPath id="SVGID_4_">
			<use xlink:href="#SVGID_3_"  overflow="visible"/>
		</clipPath>
		<rect x="290.402" y="113.213" clip-path="url(#SVGID_4_)" fill="#E7F2DC" width="183.426" height="321.688"/>
		<rect x="290.402" y="113.213" clip-path="url(#SVGID_4_)" fill="#313E49" width="183.426" height="321.688"/>
		<path clip-path="url(#SVGID_4_)" fill="#FFFFFF" d="M329.125,159.74c-1.643,0-1.643,2.501,0,2.501
			C330.769,162.242,330.769,159.74,329.125,159.74z"/>
		<path clip-path="url(#SVGID_4_)" fill="#FFFFFF" d="M392.814,142.23c-1.644,0-1.644,2.501,0,2.501
			C394.457,144.731,394.457,142.23,392.814,142.23z"/>
		<path clip-path="url(#SVGID_4_)" fill="#FFFFFF" d="M439.689,224.277c-1.643,0-1.643,2.502,0,2.502
			C441.333,226.779,441.333,224.277,439.689,224.277z"/>
		<path clip-path="url(#SVGID_4_)" fill="#FFFFFF" d="M381.096,204.266c-1.643,0-1.643,2.501,0,2.501
			S382.738,204.266,381.096,204.266z"/>
		<path clip-path="url(#SVGID_4_)" fill="#FFFFFF" d="M322.502,302.323c-1.644,0-1.644,2.501,0,2.501
			C324.144,304.824,324.144,302.323,322.502,302.323z"/>
		<path clip-path="url(#SVGID_4_)" fill="#FFFFFF" d="M456.504,326.837c-1.643,0-1.643,2.501,0,2.501
			S458.146,326.837,456.504,326.837z"/>
		<path clip-path="url(#SVGID_4_)" fill="#FFFFFF" d="M355.11,398.379c-1.644,0-1.644,2.502,0,2.502
			C356.753,400.881,356.753,398.379,355.11,398.379z"/>
		<path clip-path="url(#SVGID_4_)" fill="#FFFFFF" d="M406.062,350.851c-1.644,0-1.644,2.502,0,2.502
			C407.705,353.353,407.705,350.851,406.062,350.851z"/>
		<path clip-path="url(#SVGID_4_)" fill="#FFFFFF" d="M318.934,155.487c-3.284,0-3.284,5.002,0,5.002
			C322.22,160.49,322.22,155.487,318.934,155.487z"/>
		<path clip-path="url(#SVGID_4_)" fill="#FFFFFF" d="M422.367,287.064c-3.286,0-3.286,5.002,0,5.002
			C425.651,292.066,425.651,287.064,422.367,287.064z"/>
		<path clip-path="url(#SVGID_4_)" fill="#FFFFFF" d="M319.444,365.609c-3.286,0-3.286,5.003,0,5.003
			S322.73,365.609,319.444,365.609z"/>
		<path clip-path="url(#SVGID_4_)" fill="#FFFFFF" d="M469.241,156.488c-3.284,0-3.284,5.003,0,5.003
			C472.527,161.491,472.527,156.488,469.241,156.488z"/>
		<path clip-path="url(#SVGID_4_)" fill="#FFFFFF" d="M296.516,210.394c-0.821,0-0.821,1.252,0,1.252
			C297.338,211.646,297.338,210.394,296.516,210.394z"/>
		<path clip-path="url(#SVGID_4_)" fill="#FFFFFF" d="M345.938,120.842c-0.821,0-0.821,1.25,0,1.25
			C346.761,122.093,346.761,120.842,345.938,120.842z"/>
		<path clip-path="url(#SVGID_4_)" fill="#FFFFFF" d="M462.618,135.35c-0.821,0-0.821,1.252,0,1.252S463.439,135.35,462.618,135.35z
			"/>
		<path clip-path="url(#SVGID_4_)" fill="#FFFFFF" d="M473.318,269.429c-0.822,0-0.822,1.25,0,1.25
			C474.14,270.679,474.14,269.429,473.318,269.429z"/>
		<path clip-path="url(#SVGID_4_)" fill="#FFFFFF" d="M343.901,250.918c-0.822,0-0.822,1.251,0,1.251
			C344.723,252.169,344.723,250.918,343.901,250.918z"/>
		<path clip-path="url(#SVGID_4_)" fill="#FFFFFF" d="M368.357,316.456c-0.821,0-0.821,1.25,0,1.25
			C369.18,317.706,369.18,316.456,368.357,316.456z"/>
		<path clip-path="url(#SVGID_4_)" fill="#FFFFFF" d="M466.694,375.49c-0.821,0-0.821,1.251,0,1.251S467.516,375.49,466.694,375.49z
			"/>
		<path clip-path="url(#SVGID_4_)" fill="#FFFFFF" d="M421.348,391.499c-0.822,0-0.822,1.251,0,1.251
			C422.169,392.75,422.169,391.499,421.348,391.499z"/>
		<path clip-path="url(#SVGID_4_)" fill="#84987A" d="M456.668,365.609c-8.719,0-17.206,1.301-25.369,3.745
			c-1.916,0.058-3.7,0.703-5.324,1.664c-1.686,0.396-4.001,0.986-5.175,2.179c-45.914,20.004-79.073,77.357-79.073,145.001
			c0,84.272,51.461,152.589,114.941,152.589c63.478,0,114.936-68.316,114.936-152.589
			C571.604,433.925,520.146,365.609,456.668,365.609z"/>
		<path clip-path="url(#SVGID_4_)" fill="#BEDEAE" d="M358.845,344.097c-8.719,0-17.206,1.301-25.367,3.746
			c-1.917,0.057-3.702,0.702-5.326,1.663c-1.686,0.396-4.001,0.986-5.174,2.179c-45.915,20.004-79.073,77.357-79.073,145.001
			c0,84.273,51.46,152.589,114.94,152.589c63.479,0,114.936-68.315,114.936-152.589S422.323,344.097,358.845,344.097z"/>
		<path clip-path="url(#SVGID_4_)" fill="#84987A" d="M456.158,365.609c-8.719,0-17.207,1.301-25.368,3.745
			c-1.916,0.058-3.701,0.703-5.325,1.664c-1.687,0.396-4.001,0.986-5.175,2.179c-45.914,20.004-79.071,77.357-79.071,145.001
			c0,84.272,51.46,152.589,114.939,152.589c63.478,0,114.936-68.316,114.936-152.589
			C571.094,433.925,519.636,365.609,456.158,365.609z"/>
		<path clip-path="url(#SVGID_4_)" fill="#BEDEAE" d="M358.336,344.097c-8.719,0-17.207,1.301-25.369,3.746
			c-1.916,0.057-3.7,0.702-5.324,1.663c-1.686,0.396-4.001,0.986-5.176,2.179c-45.913,20.004-79.072,77.357-79.072,145.001
			c0,84.273,51.459,152.589,114.941,152.589c63.477,0,114.936-68.315,114.936-152.589S421.812,344.097,358.336,344.097z"/>
		<path opacity="0.7" clip-path="url(#SVGID_4_)" fill="#A5B29D" d="M313.071,361.989c0.476-1.575-1.882-2.141-2.457-0.666
			c-0.23,0.592-0.499,1.165-0.772,1.735c-0.444-0.23-1.008-0.224-1.447,0.215c-2.321,2.313-4.466,4.799-6.727,7.169
			c-0.434,0.201-0.891,0.375-1.374,0.514c-0.768,0.224-1.089,1.052-0.825,1.696c-0.578,0.555-1.165,1.102-1.774,1.628
			c-0.808,0.697-0.192,2.221,0.901,2.134c0.098-0.007,0.192-0.006,0.289-0.01c-0.04,0.181-0.04,0.381,0.011,0.594
			c0.047,0.195,0.086,0.392,0.128,0.589c-0.181,0.106-0.342,0.25-0.462,0.42c-0.565-0.252-1.195,0.019-1.529,0.498
			c-1.183-0.512-2.374,1.11-1.376,2.046c0.285,0.268,0.579,0.518,0.875,0.77c0.051,0.468,0.166,0.914,0.343,1.35
			c-0.384,0.244-0.618,0.668-0.542,1.191c-0.641,0.89-1.276,1.779-1.895,2.678c-0.876,1.278,0.955,2.327,2.001,1.517
			c0.858-0.665,2.018-0.791,3.005-1.18c0.609-0.239,0.923-0.699,0.9-1.244c0.155-0.086,0.287-0.198,0.392-0.327
			c0.32-0.17,0.53-0.499,0.603-0.863c0.316-0.056,0.588-0.252,0.771-0.522c0.35,0.01,0.705-0.122,0.953-0.366
			c0.577-0.565,1.629-1.243,1.855-2.053c0.063-0.226,0.055-0.421,0.013-0.604c0.388-0.06,0.669-0.258,0.846-0.518
			c0.279,0.122,0.562,0.238,0.838,0.368c1.126,0.528,2.114-0.451,1.83-1.434c1.134,0.261,2.254-1.015,1.242-2.032
			c-0.319-0.321-0.634-0.648-0.946-0.977c0.858-0.356,1.151-1.612,0.179-2.221c-0.223-0.139-0.45-0.267-0.676-0.398
			c0.21-0.25,0.408-0.518,0.591-0.807c0.518-0.018,1.024-0.3,1.181-0.885c0.528-1.997,1.247-3.992,1.499-6.05
			c0.069-0.022,0.139-0.049,0.208-0.081c0.198-0.091,1.039-0.653,0.46-0.5c1.082-0.288,1.11-1.508,0.511-2.114
			C312.815,362.827,312.944,362.408,313.071,361.989z"/>
		<path opacity="0.7" clip-path="url(#SVGID_4_)" fill="#A5B29D" d="M325.811,357.406c0.031-0.202,0.013-0.411-0.047-0.608
			c0.073-0.088,0.146-0.178,0.228-0.261c1.013-1.043-0.266-2.63-1.544-1.964c-0.229,0.119-0.444,0.256-0.658,0.398
			c-0.472-0.095-0.992,0.045-1.327,0.55c-0.244,0.366-0.544,0.805-0.506,1.265c0.01,0.121,0.04,0.241,0.082,0.359
			c-0.337,0.251-0.654,0.516-0.933,0.806c-0.001,0.001-0.002,0.001-0.004,0.002c-0.249,0.152-0.425,0.37-0.526,0.615
			c-0.103,0.138-0.197,0.279-0.289,0.423c-0.482-0.118-1.032,0.01-1.392,0.533c-0.159,0.232-0.308,0.463-0.448,0.693
			c-0.527,0.771-1.108,1.504-1.589,2.308c-0.326,0.546-0.217,1.044,0.096,1.381c-0.029,0.157-0.052,0.312-0.073,0.471
			c-0.333,0.253-0.688,0.489-1.095,0.702c-0.518,0.271-0.682,0.803-0.58,1.301c-0.194,0.307-0.252,0.684-0.077,1.055
			c-0.999-0.201-1.587,0.72-1.428,1.508c-0.025,0.161-0.022,0.327,0.016,0.489c-0.347,0.048-0.625,0.231-0.814,0.479h-0.039
			c-1.646,0-1.642,2.47,0,2.501c0.118,0.003,0.235,0.01,0.354,0.014c-1.334,0.14-1.474,2.021-0.184,2.443
			c0.102,0.033,0.203,0.066,0.304,0.1c-0.191,0.294-0.24,0.661-0.174,1.028c0.002,0.016,0.008,0.03,0.011,0.047
			c-0.817,0.422-1.283,1.758-0.195,2.233c0.668,0.292,0.428,0.326,0.185-0.279c0.462,1.148,2.04,1.017,2.448,0.201
			c0.472-0.323,0.647-0.957,0.436-1.532c0.504,0.07,1.041,0.22,1.401,0.248c0.508,0.041,0.863-0.214,1.058-0.575
			c0.544-0.258,0.778-0.969,0.573-1.572c0.536-0.285,0.746-0.938,0.559-1.501c0.177,0.034,0.353,0.066,0.529,0.102
			c1.33,0.261,2.377-1.68,0.981-2.285c-0.073-0.033-0.148-0.057-0.223-0.087c0.061-0.076,0.115-0.156,0.158-0.244
			c0.438-0.223,0.764-0.658,0.718-1.142c0.188-0.142,0.349-0.339,0.441-0.617c0.279-0.841,0.53-1.689,0.774-2.54
			c0.308-0.941,0.649-1.867,1.041-2.771c0.061-0.096,0.122-0.189,0.183-0.285c0.325-0.367,0.65-0.731,0.931-1.11
			c0.206-0.277,0.261-0.551,0.223-0.799c0.435-0.735,0.864-1.472,1.306-2.202C327.175,358.499,326.553,357.604,325.811,357.406z"/>
		<path opacity="0.7" clip-path="url(#SVGID_4_)" fill="#A5B29D" d="M341.513,348.265c-0.563,0.56-1.112,1.126-1.641,1.704
			c-0.232,0.091-0.443,0.265-0.597,0.55c-0.061,0.114-0.127,0.226-0.188,0.338c-1.182,1.377-2.233,2.827-3.078,4.408
			c-2.128,0.772-4.035,1.978-5.705,3.506c-0.567,0.521-0.475,1.62,0.258,1.965c0.146,0.067,0.291,0.126,0.436,0.19
			c0.073,0.441,0.358,0.833,0.888,0.937c0.152,0.029,0.304,0.057,0.454,0.086c-0.685,0.767-1.27,1.644-1.725,2.578
			c-0.423,0.87,0.087,1.833,1.1,1.882c0.422,0.021,0.839,0.07,1.256,0.131c-0.524,0.361-0.991,0.791-1.337,1.49
			c-0.662,1.338,0.87,2.375,2.001,1.516c0.628-0.478,1.168-1.034,1.675-1.622c0.401-0.241,0.813-0.469,1.181-0.732
			c0.61,0.104,1.226,0.189,1.849,0.219c1.272,0.063,1.729-1.741,0.643-2.33c-0.324-0.177-0.642-0.366-0.955-0.56
			c0.233-0.745-0.344-1.513-1.216-1.612c-0.519-0.059-1.019-0.189-1.523-0.307c0.053-0.042,0.107-0.082,0.162-0.121
			c1.093,0.159,2.192,0.282,3.3,0.355c0.168,0.013,0.336,0.025,0.506,0.034c0.372,0.019,0.747,0.031,1.121,0.038
			c0.553,0.007,0.915-0.272,1.096-0.646c0.633-0.376,0.932-1.324,0.314-1.99c-0.465-0.503-0.889-1.046-1.288-1.605
			c1.414-2.94,2.599-5.954,3.145-9.185C343.84,348.314,342.479,347.305,341.513,348.265z M334.561,358.822
			c-0.037,0.135-0.044,0.265-0.035,0.39c-0.229,0.065-0.471,0.113-0.724,0.15c-0.052-0.019-0.103-0.04-0.155-0.058
			c0.312-0.22,0.63-0.429,0.958-0.621C334.592,358.73,334.574,358.775,334.561,358.822z"/>
		<path clip-path="url(#SVGID_4_)" fill="#46563C" d="M331.555,342.713c-2.196-1.695-4.481-3.265-6.794-4.799
			c0.016-0.005,0.031-0.01,0.047-0.014c1.158,0.107,2.317,0.228,3.47,0.398c1.339,0.199,2.342-1.549,0.981-2.285
			c-2.417-1.311-4.037-3.31-5.108-5.717c0.811,0.012,1.623,0.037,2.427,0.042c1.199,0.008,1.567-1.329,0.9-2.135
			c-2.084-2.518-4.357-4.863-5.915-7.752c-0.089-0.166-0.211-0.293-0.351-0.391c-0.052-1.307-2.155-1.76-2.486-0.311
			c-0.854,3.727-2.739,7.306-4.458,10.707c-0.505,1.002,0.634,2.541,1.743,1.712c0.886-0.662,1.833-1.092,2.818-1.374
			c-1.064,2.857-2.304,5.656-4.052,8.167c-0.595,0.854,0.405,2.26,1.438,1.837c1.172-0.479,2.359-0.91,3.553-1.319
			c-0.743,2.874-2.316,5.629-3.972,7.988c-0.675,0.962,0.43,2.062,1.438,1.837c1.915-0.427,3.827-0.907,5.711-1.476
			c0.348,1.021,0.557,2.127,1.258,2.973c1.026,1.237,2.896,0.425,4.035-0.123c0.386-0.186,0.644-0.667,0.631-1.08
			c-0.036-1.234-0.419-2.439-0.927-3.568c0.584-0.252,1.162-0.513,1.732-0.793c0.441-0.134,0.88-0.275,1.316-0.437
			C331.782,344.514,332.381,343.351,331.555,342.713z"/>
		<path clip-path="url(#SVGID_4_)" fill="#46563C" d="M314.046,350.803c0.098-0.553-0.193-1.152-0.887-1.407
			c-1.884-0.696-3.606-1.744-5.486-2.455c0.962-0.413,1.939-0.796,2.938-1.138c0.899-0.307,1.26-1.383,0.562-2.09
			c-1.402-1.421-2.696-2.92-4.188-4.24c0.408-0.062,0.824-0.11,1.249-0.128c1.09-0.047,1.712-1.338,0.899-2.136
			c-1.958-1.925-3.902-3.852-5.604-6.003c-0.195-0.248-0.446-0.364-0.708-0.388c-0.441-1.303-2.678-1.229-2.485,0.271
			c0.416,3.248-0.449,6.449-1.863,9.374c-0.525,1.085,0.571,2.388,1.741,1.711c0.669-0.385,1.343-0.755,2.025-1.097
			c-0.394,2.451-0.914,4.876-1.857,7.189c-0.434,1.062,0.985,1.925,1.871,1.412c0.785-0.454,1.579-0.888,2.381-1.301
			c-0.615,2.893-2.104,5.494-3.614,8.095c-0.723,1.244,0.959,2.506,2.001,1.516c1.421-1.351,2.955-2.501,4.587-3.496
			c0.431,1.33,0.916,2.642,1.436,3.944c0.398,0.996,1.697,1.272,2.329,0.299c1.458-2.249,0.756-3.873-0.381-6.021
			c0.388-0.176,0.777-0.347,1.175-0.51c0.104,0.033,0.211,0.063,0.314,0.101C313.474,352.675,314.205,351.645,314.046,350.803z"/>
		<path clip-path="url(#SVGID_4_)" fill="#5C6D52" d="M348.877,337.209c-1.4-1.325-2.909-2.532-4.344-3.821
			c0.119-0.039,0.239-0.077,0.357-0.116c0.249,0.123,0.494,0.252,0.729,0.4c0.231,0.168,0.46,0.337,0.695,0.499
			c1.181,0.812,2.676-1.083,1.544-1.965c-0.085-0.066-0.177-0.125-0.266-0.186c0.003-0.003,0.005-0.007,0.009-0.01
			c-0.14-0.097-0.275-0.198-0.412-0.296c0.025-0.241-0.016-0.499-0.15-0.757c-1.145-2.191-2.423-4.312-3.567-6.503
			c-0.097-0.187-0.229-0.328-0.382-0.427c-0.109-1.101-1.732-1.788-2.326-0.574c-1.699,3.464-2.96,7.167-4.205,10.806
			c-0.371,1.081,0.943,1.919,1.87,1.411c0.746-0.406,1.517-0.735,2.303-1.031c-0.832,1.839-1.886,3.559-3.337,5.071
			c-0.834,0.87-0.021,2.497,1.24,2.09c1.184-0.381,2.372-0.746,3.568-1.082c0.157,1.438,0.506,2.806,0.979,4.211
			c0.18,0.532,0.64,0.919,1.228,0.919h1.02c0.846,0,1.424-0.797,1.228-1.583c-0.257-1.034-0.514-2.06-0.805-3.072
			c0.04-0.294,0.09-0.585,0.147-0.871c0.149-0.157,0.249-0.383,0.284-0.622c0.674-0.145,1.351-0.281,2.031-0.4
			C349.272,339.132,349.525,337.82,348.877,337.209z"/>
		<ellipse clip-path="url(#SVGID_4_)" fill="#F6F8DE" cx="452.938" cy="135.976" rx="10.19" ry="9.891"/>
		<ellipse clip-path="url(#SVGID_4_)" fill="#313E49" cx="465.93" cy="130.858" rx="12.993" ry="12.622"/>
	</g>
</g>
<g id="Layer_6">
	<polygon opacity="0.2" fill="#FFFAFA" points="291,398.766 291,121 465.417,121 	"/>
</g>
<g id="Layer_10">
</g>
<g id="Layer_9">
</g>
<g id="Layer_8">
	<polygon opacity="0.2" fill="#FFFAFA" points="76.438,374.104 75,139 272.645,139.466 	"/>
</g>
</svg>
