<?xml version="1.0" encoding="utf-8"?>
<!-- Generator: Adobe Illustrator 16.0.0, SVG Export Plug-In . SVG Version: 6.00 Build 0)  -->
<!DOCTYPE svg PUBLIC "-//W3C//DTD SVG 1.1//EN" "http://www.w3.org/Graphics/SVG/1.1/DTD/svg11.dtd">
<svg version="1.1" xmlns="http://www.w3.org/2000/svg" xmlns:xlink="http://www.w3.org/1999/xlink" x="0px" y="0px" width="360px"
	 height="432px" viewBox="0 0 360 432" enable-background="new 0 0 360 432" xml:space="preserve">
<g id="Layer_4">
	<rect fill="#CFC3F4" width="360" height="432"/>
</g>
<g id="Layer_3">
	<polygon fill="#7C6CA3" points="277.953,188.349 -4,274.927 96.745,524.591 404.799,480 	"/>
</g>
<g id="Layer_1">
	<polygon fill="#FFFFFF" points="279.953,139.349 -2,225.927 98.745,475.591 406.799,431 	"/>
	
		<text transform="matrix(0.9517 -0.3071 0.3071 0.9517 50.2266 258.1543)" fill="#7C6CA3" font-family="'Helvetica'" font-size="14">Maggie Shan</text>
	<path fill="#7C6CA3" d="M216,183c-7,0-7,10,0,10C222,193,222,183,216,183z"/>
	<path fill="#7C6CA3" d="M224,200.45c-6,0-6,10,0,10C231,210.45,231,200.45,224,200.45z"/>
	<line fill="none" stroke="#7C6CA3" stroke-miterlimit="10" x1="55.778" y1="278.604" x2="278.598" y2="205.45"/>
	<path fill="#7C6CA3" d="M83,296.423c-6,0-6,10,0,10C90,306.423,90,296.423,83,296.423z"/>
	<path fill="#7C6CA3" d="M91,315.886c-6,0-6,10,0,10C98,325.886,98,315.886,91,315.886z"/>
	<path fill="#7C6CA3" d="M111,366.893c-6,0-6,10,0,10C118,376.893,118,366.893,111,366.893z"/>
	<path fill="#7C6CA3" d="M120,385.685c-7,0-7,10,0,10C126,395.685,126,385.685,120,385.685z"/>
	<line fill="none" stroke="#7C6CA3" stroke-miterlimit="10" x1="101.431" y1="294.735" x2="166.532" y2="272.89"/>
	<line fill="none" stroke="#7C6CA3" stroke-miterlimit="10" x1="110.358" y1="312.565" x2="175.458" y2="290.72"/>
	<line fill="none" stroke="#7C6CA3" stroke-miterlimit="10" x1="116.572" y1="322.822" x2="169.402" y2="305.094"/>
	<line fill="none" stroke="#7C6CA3" stroke-miterlimit="10" x1="129.884" y1="361.634" x2="194.984" y2="339.788"/>
	<line fill="none" stroke="#7C6CA3" stroke-miterlimit="10" x1="139.403" y1="382.423" x2="204.504" y2="360.577"/>
	<line fill="none" stroke="#7C6CA3" stroke-miterlimit="10" x1="144.403" y1="391.423" x2="199.984" y2="372.771"/>
	<path fill="none" stroke="#7C6CA3" stroke-miterlimit="10" d="M91.375,285.5"/>
	<line fill="none" stroke="#7C6CA3" stroke-miterlimit="10" x1="235.5" y1="242.416" x2="321.114" y2="429.664"/>
	<rect x="86.5" y="75.682" fill="none" width="211.004" height="58.667"/>
	<text transform="matrix(1 0 0 1 86.4995 111.4521)" fill="#7C6CA3" font-family="'Raleway-ExtraBold'" font-size="49">Resume.</text>
</g>
<g id="Layer_19">
	<path fill="none" stroke="#5643A3" stroke-miterlimit="10" d="M227.834,372c2.523-0.066,4.69,3.511,7.011,3.317
		c1.681-0.141,1.933-2.435,2.458-3.824c1.87-4.947,3.881-9.571,6.531-14.16"/>
	<path fill="none" stroke="#5643A3" stroke-miterlimit="10" d="M212.667,335.333c0.955,0.78,2.787,2.504,4.085,2.466
		c1.159-0.034,0.602,0,1.429-0.927c0.754-0.843,1.141-2.571,1.514-3.59c0.98-2.677,1.775-5.354,2.973-7.949"/>
	<path fill="none" stroke="#5643A3" stroke-miterlimit="10" d="M192.5,288.165c0.899,0.69,3.292,3.669,4.67,3.372
		c1.26-0.271,1.798-3.168,2.152-4.204c1.229-3.585,2.447-7.118,4.178-10.501"/>
</g>
<g id="Layer_18">
	<path opacity="0.8" fill="#7C6CA3" d="M297.482,366.188c-4.603-5.122-13.263-2.291-8.732,3.062
		c5.341,5.942,61.75,24.814,32.364,24.814c-6.114-1.689-39.215-23.374-47.181-28.471c-0.838-0.537-1.781-0.869-2.751-1.031
		c-5.034-4.075-13.041-1.881-8.37,3.009c3.616,3.788,70.411,99.246,114.161,67.746c7.715-5.555,7.728-34.876,7.627-43.222
		C384.516,385.118,304.74,374.766,297.482,366.188z"/>
	<path fill="#CFC3F4" d="M384.5,353.501"/>
</g>
<g id="Layer_10">
	<path fill="#212121" d="M302.625,265c-2.828-13.549-22.086-19.293-28.88-7.473c-2.864,4.981-3.917,10.882-4.687,16.714
		c-0.692,5.224-2.696,12.774,0.156,17.577c3.327,5.607,9.225,7.859,14.841,5.714c5.415-2.07,7.671-8.549,9.449-14.242
		c1.397-4.477,3.469-8.526,3.779-13.072C299.116,268.77,303.298,268.228,302.625,265z"/>
</g>
<g id="Layer_2">
	<path fill="#FFDACA" d="M291.335,262.535c-1.992-2.476-5.215-5.145-8.316-5.737c-4.182-0.8-5.647,4.375-5.787,8.544
		c-0.432,1.208-0.898,2.604-1.511,3.749c2.107,1.285,3.027,2.698,4.28,4.759c0.835,1.375,1.736,1.254,2.919,1.011
		c2.174-0.048,2.753,0.146,3.146,0.373c0.186,0.165,0.363,0.339,0.541,0.514c0.127,0.164,0.247,0.33,0.356,0.508
		c0.907,1.439,2.952,1.686,4.235,0.72c1.378-1.037,1.567-2.953,0.659-4.396c-0.216-0.344-0.468-0.66-0.733-0.961
		c0.705-0.646,1.176-1.333,1.209-2.016c0.009-0.187,0.012-0.37,0.007-0.554C293.444,266.946,292.76,264.303,291.335,262.535z"/>
</g>
<g id="Layer_11">
	<path fill="#212121" d="M281.366,254.875c-1.741,1.25,1.358,9.431,4.521,10.359c3.216,0.943,11.595,3.766,10.237-3.984"/>
</g>
<g id="Layer_8">
	<path fill="#FFFFFF" stroke="#B2B2B2" stroke-width="0.5" stroke-miterlimit="10" d="M300.334,284.837
		c1.171,6.516,2.942,16.74,3.041,23.401c0.077,5.188-9.857,14.705-13.752,12.929c-2.86-1.305-11.545,1.806-11.622-1.999"/>
	<path fill="#22345B" d="M287.458,302.279c4.289,0.469,19.542-2.946,16.834,4.739c-0.325,0.923,1.843,6.905,0.877,10.154
		c-2.018,6.791-4.398,20.139-6.169,26.994c-1.773,6.867-4.312,13.903-4.995,20.838c-0.094,0.948-1.646,3.127-3.255,2.433
		c-0.903-0.391-0.816-2.934-0.938-3.75c-0.484-3.251,0.237-6.701-0.1-9.976c-0.815-7.926,0.976-29.205,0.976-29.205
		c-1.234,0.876-9.698,11.248-11.187,14.166c-2.377,4.662-4.773,13.199-7.465,17.702c-1.12,1.875-3.952,6.779-5.85,7.938
		c-1.833,1.12-2.105,0.097-2.25-1.375c-0.47-4.775,2.754-14,4.4-18.422c1.482-3.979,3.074-8.363,5.167-12.006
		c2.138-3.721,3.446-8.264,5.829-11.676"/>
	<g>
		<g>
			<path fill="#22345B" d="M289.852,364.054c0.069-0.022,0.438,0.079,0.094-0.022c-0.205-0.06-0.398-0.127-0.609-0.165
				c-0.804-0.145-1.613,0.206-1.845,1.048c-0.235,0.854,0.288,1.544,1.048,1.845c-0.24-0.095,0.23,0.129,0.219,0.122
				c0.189,0.103,0.375,0.216,0.563,0.321c0.38,0.214,0.792,0.397,1.218,0.494c0.796,0.181,1.621-0.233,1.845-1.048
				c0.209-0.761-0.25-1.664-1.048-1.845c-0.007-0.002-0.453-0.15-0.219-0.046c-0.194-0.087-0.379-0.199-0.563-0.306
				c-0.396-0.228-0.792-0.417-1.218-0.586c-0.266,0.964-0.531,1.929-0.797,2.893c0.735,0.132,1.344,0.428,2.109,0.188
				c0.78-0.244,1.271-1.036,1.048-1.845C291.485,364.334,290.632,363.81,289.852,364.054L289.852,364.054z"/>
		</g>
	</g>
	<g>
		<g>
			<path fill="#22345B" d="M265,362.25c-0.273,0.002,0.227,0.073,0.281,0.097c-0.065-0.028-0.352-0.236-0.076-0.018
				c-0.201-0.159-0.371-0.357-0.533-0.554c0.206,0.249-0.054-0.086-0.077-0.119c-0.07-0.102-0.135-0.207-0.199-0.312
				c-0.106-0.174-0.201-0.354-0.288-0.538c-0.785,0.605-1.57,1.212-2.355,1.817c0.751,0.645,1.348,1.445,2.125,2.062
				c0.64,0.509,1.494,0.627,2.121,0c0.528-0.528,0.642-1.611,0-2.121c-0.776-0.617-1.373-1.418-2.125-2.062
				c-1.322-1.135-3.085,0.264-2.355,1.817c0.627,1.337,1.861,2.94,3.482,2.931C266.934,365.238,266.936,362.238,265,362.25
				L265,362.25z"/>
		</g>
	</g>
	<g>
		<g>
			<path fill="#22345B" d="M288.352,367.071c1.221,0.481,2.462,0.87,3.75,1.125c0.945,0.188,1.898-0.417,1.898-1.446
				c0-0.125,0-0.25,0-0.375c0-1.935-3-1.935-3,0c0,0.125,0,0.25,0,0.375c0.633-0.482,1.266-0.964,1.898-1.446
				c-1.288-0.255-2.529-0.644-3.75-1.125c-0.762-0.301-1.646,0.323-1.845,1.048C287.069,366.079,287.592,366.771,288.352,367.071
				L288.352,367.071z"/>
		</g>
	</g>
</g>
<g id="Layer_12">
	<path fill="#B5B5B5" d="M302.508,300.075c-0.832-1.566-2.063-2.932-3.523-3.922c-1.946-1.319-4.988-1.221-6.866,0.168
		c-2,1.479-3.27,3.478-3.306,6.022c-0.039,2.726,2.304,5,5,5c0.191,0,0.373-0.036,0.56-0.058c0.095,0.113,0.175,0.237,0.28,0.343
		c1.763,1.764,5.37,2.137,7.07,0c0.938-1.177,1.558-2.487,1.434-4.098C303.053,302.191,303.141,301.266,302.508,300.075z"/>
</g>
<g id="Layer_9">
	<path fill="#22345B" d="M287.458,302.279c4.289,0.469,19.542-2.946,16.834,4.739c-0.325,0.923,1.843,6.905,0.877,10.154
		c-2.018,6.791-4.398,20.139-6.169,26.994c-1.773,6.867-4.312,13.903-4.995,20.838c-0.094,0.948-1.646,3.127-3.255,2.433
		c-0.903-0.391-0.816-2.934-0.938-3.75c-0.484-3.251,0.237-6.701-0.1-9.976c-0.815-7.926,0.976-29.205,0.976-29.205
		c-1.234,0.876-9.698,11.248-11.187,14.166c-2.377,4.662-4.773,13.199-7.465,17.702c-1.12,1.875-3.952,6.779-5.85,7.938
		c-1.833,1.12-2.105,0.097-2.25-1.375c-0.47-4.775,2.754-14,4.4-18.422c1.482-3.979,3.074-8.363,5.167-12.006
		c2.138-3.721,3.446-8.264,5.829-11.676"/>
</g>
<g id="Layer_17">
	<path fill="#14223A" d="M290.75,324.333c0.127,0.006-0.055,0.021-0.144-0.015c2.085-1.972,4.727-4.151,5.662,1.33
		c0.35,2.05,0.199,3.742-0.041,5.8c-0.371,3.175-0.757,6.332-1.244,9.491c-0.79,5.13-2.454,10.252-2.652,15.458
		c-0.129,3.376,0.43,6.368-0.586,9.665c-0.24,0.78-0.532,1.167-1.183,0.354c-0.181-0.226-0.246-0.576-0.377-0.835
		c-0.299-0.588-0.735-1.086-1.103-1.664"/>
</g>
<g id="Layer_15">
	<path opacity="0.7" fill="#C1917E" d="M286.146,275.306c0.224,0.145,0.159,0.314,0.322,0.778c0.137,0.386,0.223,0.58,0.688,0.376
		c0.46-0.202,0.572-0.671,0.854-1.045c0.308-0.411,0.73-0.746,1.073-1.133c1.328-1.499,2.225-3.022,2.917-4.916
		c0.292-0.798,0.7-2.278-0.157-2.849c-0.354-0.236-0.544-0.169-0.953-0.174c-0.539-0.006-1.559-0.146-2.322-0.354
		c-0.382-0.104-0.298,1.644-0.441,2.009c-0.283,0.724-0.689,1.426-1.041,2.125c-0.606,1.207-1.159,2.314-2.003,3.37
		c-0.36,0.449-0.776,1.137-1.371,1.29c0.083-0.034,0.016,0.058,0.085,0.071c2.35,0.451,1.416,0.239,1.416,0.239"/>
</g>
<g id="Layer_7">
	<path fill="#EA973D" d="M324.665,246.715c2.311-4.431,0.061-10.173-5.025-12.825l-0.174-0.092
		c-5.086-2.652-11.082-1.212-13.394,3.22L250.5,350.711c-2.312,4.431-1.225,5.246,3.86,7.899l0.174,0.092
		c5.087,2.652,1.922,2.091,5.466-0.702L324.665,246.715z"/>
	<g>
		<defs>
			<path id="SVGID_1_" d="M324.665,246.715c2.311-4.431,0.061-10.173-5.025-12.825l-0.174-0.092
				c-5.086-2.652-11.082-1.212-13.394,3.22L250.5,350.711c-2.312,4.431-1.225,5.246,3.86,7.899l0.174,0.092
				c3.829,1.996,3.78,2.528,5.466-0.702L324.665,246.715z"/>
		</defs>
		<clipPath id="SVGID_2_">
			<use xlink:href="#SVGID_1_"  overflow="visible"/>
		</clipPath>
		<path clip-path="url(#SVGID_2_)" fill="#995E23" d="M313.977,280.933c-11.522,8.795-22.646,18.067-32.668,28.539
			c-6.678,5.942-13.039,12.314-19.223,18.733c-4.304,4.468-8.481,9.089-12.121,14.12c-2.254,3.117-5.23,8.214-2.532,11.948
			c0.047,0.065,0.099,0.122,0.147,0.184c0.344,1.865,1.353,3.473,3.013,4.168c3.495,3.258,8.938,1.817,11.725-3.852
			c2.665-5.424,5.413-10.663,8.5-15.737c0.073-0.084,0.145-0.168,0.218-0.251c0.486-0.556,0.816-1.142,1.025-1.735
			c1.538-2.432,3.152-4.83,4.895-7.187c3.135-4.24,6.543-8.277,10.142-12.153c1.466-1.327,2.939-2.644,4.438-3.925
			c0.773-0.661,1.247-1.393,1.48-2.141c8.151-7.967,17.043-15.234,26.008-22.077C324.076,285.711,319.104,277.019,313.977,280.933z"
			/>
		<path clip-path="url(#SVGID_2_)" fill="#995E23" d="M320.329,246.179c-0.029-0.01-0.821-0.326-0.864-0.326
			c-0.422-0.204-0.833-0.431-1.241-0.659c-0.816-0.458-1.869-1.159-2.444-1.62c-0.863-0.692-1.649-1.472-2.393-2.29
			c0.119,0.101-0.555-0.764-0.558-0.767c-0.131-0.208-0.161-0.299-0.154-0.275c-0.375-2.485-2.249-4.491-4.925-4.491
			c-2.593,0-5.176,2.277-5,5c0.469,7.267,8.533,13.025,14.921,15.071C323.83,257.794,326.445,248.138,320.329,246.179z"/>
	</g>
	<path fill="#FFB0EB" d="M327.731,239.607c-0.735-3.216-2.817-5.654-5.563-7.347c-2.409-1.483-5.533-2.679-8.401-2.53
		c-4.223,0.219-7.231,3.533-7.017,7.77c0.249,4.902,5.657,9.295,10.988,10.236c0.356,0.176,0.708,0.356,1.095,0.505
		C324.13,250.279,328.841,244.464,327.731,239.607z"/>
	<path fill="#995E23" d="M249.456,353.501c-0.296,0.084-0.227,0.872-0.249,1.131c-0.126,1.452-0.152,2.901-0.264,4.355
		c-0.111,1.453-0.112,2.901-0.112,4.356c0,0.369-0.246,2.039,0.124,2.243c0.258,0.142,1.437-0.583,1.671-0.687
		c1.086-0.481,2.173-0.977,3.249-1.478c1.237-0.574,3.236-2.498,4.372-3.255c0.379-0.253,1.533-1.824,1.753-2.168"/>
	<g>
		<defs>
			<path id="SVGID_3_" d="M249.456,353.501c-0.296,0.084-0.227,0.872-0.249,1.131c-0.126,1.452-0.152,2.901-0.264,4.355
				c-0.111,1.453-0.112,2.901-0.112,4.356c0,0.369-0.246,2.039,0.124,2.243c0.258,0.142,1.437-0.583,1.671-0.687
				c1.086-0.481,2.173-0.977,3.249-1.478c1.237-0.574,3.236-2.498,4.372-3.255c0.379-0.253,1.533-1.824,1.753-2.168"/>
		</defs>
		<clipPath id="SVGID_4_">
			<use xlink:href="#SVGID_3_"  overflow="visible"/>
		</clipPath>
		<path clip-path="url(#SVGID_4_)" fill="#302E2D" d="M253.099,360.049c-0.007-0.007-0.014-0.014-0.021-0.021
			c-1.97-1.881-5.11-1.96-7.07,0c-1.894,1.893-1.972,5.189,0,7.07c0.007,0.007,0.014,0.014,0.021,0.021c1.97,1.881,5.11,1.96,7.07,0
			C254.992,365.227,255.07,361.93,253.099,360.049z"/>
	</g>
</g>
<g id="Layer_6">
	<path fill="#FFFFFF" stroke="#B2B2B2" stroke-width="0.5" stroke-miterlimit="10" d="M300.188,271.861
		c3.642,3.422,6.881,6.138,8.781,10.963c1.003,2.547,1.903,5.36,2.12,8.09c0.219,2.76-2.539,5.858-4.94,6.6
		c-3.628,1.119-5.181-7.113-5.792-9.789c-0.409-1.79-2.082-8.094-2.42-9.519c-0.233-0.983-0.099-1.952-0.455-2.909"/>
	<path fill="#FFFFFF" stroke="#B2B2B2" stroke-width="0.5" stroke-miterlimit="10" d="M287.667,278.833
		c-1.292,0.578-3.179,0.767-4.7,1.535c-4.094,2.064-8.129,4.815-11.137,8.291c-2.289,2.646-5.722,7.099-5.679,10.853
		c0.031,2.674,2.431,3.312,4.55,2.336c3.876-1.784,7.901-5.891,10.766-9.015c2.26-2.467,4.904-5.46,6.582-8.37
		c0.66-1.144,3.479-8.671-0.549-5.963"/>
</g>
<g id="Layer_13">
	<path fill="#E0E0E0" d="M267.812,302.031c0.021,0.018-2.031-0.854-1.558-1.682c0.896-1.564,5.302-4.033,6.477-5.387
		c2.386-2.751,4.654-5.403,7.624-7.544c2.167-1.562,3.77-3.742,5.874-5.333c0.833-0.631,2.536-1.105,2.927-2.117
		c0.465,1.413-0.53,2.862-1.094,4.188c-0.808,1.896-1.904,3.194-3.311,4.68c-2.684,2.835-4.931,5.838-7.743,8.515
		c-1.383,1.316-2.985,2.415-4.521,3.524c-0.737,0.534-1.911,0.719-2.736,1.108C269.432,302.135,268.949,302.302,267.812,302.031"/>
	<path fill="#DDDDDD" d="M306.417,278.459c-0.088,0.128,0.021,0.502,0.042,0.725c0.051,0.562-0.049,1.129-0.136,1.682
		c-0.239,1.532-0.528,3.061-0.791,4.587c-0.468,2.712-1.448,5.3-1.448,8.085c0,0.766,0.089,1.507,0.125,2.268
		c0.018,0.379-0.05,1.234,0.247,1.527c0.581,0.574,1.302,0.329,1.975,0.081c1.911-0.704,3.931-2.966,4.467-4.85
		c0.688-2.421-0.157-4.928-0.896-7.301c-0.737-2.37-1.924-4.881-3.626-6.679"/>
</g>
<g id="Layer_14">
	<path fill="#FFDACA" d="M290.208,280.845c-0.421,0.778-0.88,1.244-1.368,1.989c-0.674,1.027-0.679,0.521-1.183-0.124
		c-0.488-0.627-1.012-1.2-1.5-1.834c-0.276-0.358-0.626-0.813-0.603-1.293c0.026-0.537,0.502-0.81,0.834-1.165
		c0.64-0.686,1.228-1.312,1.987-1.888c0.754-0.572,1.73-0.999,2.708-0.905c1.065,0.103,1.191,1.146,0.916,2
		C291.618,278.806,290.791,279.767,290.208,280.845z"/>
	<path fill="#FFDACA" d="M297.458,275.959c-0.35-1.366-1.333-2.703-1.823-4.095c-0.471-1.335,0.881-2.033,1.988-1.698
		c0.936,0.283,2.846,1.188,2.798,2.335c-0.046,1.087-2.054,1.505-2.577,2.333c-0.097,0.152-0.216,0.562-0.261,0.5"/>
</g>
<g id="Layer_16">
	<path opacity="0.4" fill="#C1917E" d="M285.941,280.586c0.178,0.087,5.654-2.412,5.861-2.449c-1.662,3.598-3.635,5.568-3.615,5.363
		"/>
	<path opacity="0.4" fill="#C1917E" d="M297.749,270.206c0.648,0.923,1.297,3.736,1.556,3.562c0.347-0.233,1.141-0.748,1.116-1.268
		C300.354,271.09,297.952,270.379,297.749,270.206"/>
</g>
</svg>
